<svg width="290" height="205" viewBox="0 0 290 205" fill="none" xmlns="http://www.w3.org/2000/svg">
<path d="M100.475 140.163L73.1717 191.392C72.8138 192.064 73.0692 192.897 73.7421 193.254C74.0786 193.432 74.4559 193.458 74.7932 193.355C75.1307 193.252 75.4288 193.02 75.6077 192.685L102.911 141.455C103.269 140.784 103.014 139.951 102.341 139.594C101.668 139.237 100.832 139.492 100.475 140.163Z" fill="#2B2C2E"/>
<path fill-rule="evenodd" clip-rule="evenodd" d="M156.547 68.3746C156.032 55.7264 160.177 45.1685 166.403 43.2695C167.001 43.0872 167.618 42.9861 168.233 42.9671C175.336 42.7543 181.35 53.5765 181.921 67.6046C182.168 73.6804 181.073 81.4162 179.317 86.0029C179.161 86.4047 178.83 86.7052 178.431 86.8271C178.315 86.8624 178.192 86.883 178.068 86.8868L161.913 87.3553C161.363 87.3712 160.859 87.0613 160.622 86.5654C158.505 82.0863 156.792 74.4365 156.547 68.3746ZM162.755 84.5768L177.045 84.1626C178.48 79.8538 179.377 73.005 179.164 67.7143C178.671 55.6306 173.704 45.5574 168.315 45.7195C167.944 45.7289 167.574 45.7909 167.21 45.9018C162.93 47.2073 158.803 55.9299 159.303 68.2647C159.517 73.5546 160.97 80.3535 162.755 84.5768Z" fill="#2B2C2E"/>
<path fill-rule="evenodd" clip-rule="evenodd" d="M161.226 93.9237C160.975 94.1913 160.84 94.5502 160.857 94.9161C161.04 99.468 163.364 108.016 170.828 107.803C171.619 107.779 172.374 107.658 173.074 107.445C180.131 105.293 179.783 94.7778 179.765 94.3333C179.734 93.5783 179.102 92.9895 178.345 93.0122L162.194 93.4853C161.828 93.4961 161.479 93.653 161.226 93.9237ZM172.268 104.812C171.801 104.954 171.29 105.034 170.748 105.05C165.628 105.198 164.16 99.0282 163.759 96.1929L176.979 95.8072C176.836 98.3473 176.072 103.651 172.268 104.812Z" fill="#2B2C2E"/>
<path fill-rule="evenodd" clip-rule="evenodd" d="M104.85 37.8656C105.423 35.3918 106.675 33.5 108.472 32.3954C108.991 32.0745 109.555 31.8207 110.15 31.6391C116.366 29.7432 125.607 35.8114 132.118 46.0684C135.24 50.9888 138.009 57.9649 138.702 62.6619C138.782 63.2057 138.53 63.7463 138.06 64.0329L124.345 72.4664C124.246 72.5303 124.137 72.5778 124.026 72.6115C123.637 72.7302 123.205 72.6733 122.854 72.4401C118.873 69.7806 113.713 64.2757 110.589 59.3502C105.748 51.7269 103.546 43.495 104.85 37.8656ZM112.922 57.877C115.629 62.1508 120.122 67.0439 123.672 69.6466L135.82 62.1775C134.987 57.8944 132.489 51.7967 129.785 47.5418C123.688 37.9371 114.479 31.9412 109.919 34.7373C108.748 35.4571 107.948 36.7185 107.539 38.4824C106.415 43.3485 108.525 50.9588 112.922 57.877Z" fill="#2B2C2E"/>
<path fill-rule="evenodd" clip-rule="evenodd" d="M127.465 77.3116C127.149 77.5038 126.925 77.8134 126.844 78.1727C126.759 78.5305 126.824 78.907 127.02 79.2181C127.25 79.581 132.74 88.0804 139.781 85.933C140.477 85.7207 141.169 85.4056 141.833 84.9952C143.791 83.7907 145.034 82.1073 145.525 79.9868C146.665 75.0626 143.214 69.5505 143.068 69.3199C142.66 68.6798 141.809 68.4755 141.178 68.884L127.465 77.3116ZM140.385 82.654C139.921 82.939 139.446 83.1567 138.975 83.3005C135.197 84.4528 131.711 80.8127 130.177 78.877L141.389 71.9884C142.21 73.6467 143.447 76.7383 142.833 79.3747C142.509 80.7666 141.708 81.8398 140.385 82.654Z" fill="#2B2C2E"/>
<path fill-rule="evenodd" clip-rule="evenodd" d="M96.7965 38.6015C103.892 25.2939 115.756 15.5386 130.205 11.1315C144.658 6.72357 159.966 8.19459 173.308 15.2717C200.85 29.8789 211.344 64.1181 196.698 91.5922C189.603 104.9 177.736 114.656 163.286 119.063C148.834 123.471 133.527 122.002 120.183 114.929C92.6496 100.313 82.157 66.0763 96.7965 38.6015ZM121.479 112.498C134.17 119.226 148.733 120.623 162.479 116.431C176.226 112.238 187.514 102.956 194.262 90.2999C208.191 64.1662 198.21 31.5978 172.013 17.7022C159.32 10.9695 144.759 9.5716 131.012 13.7642C117.269 17.9559 105.981 27.2376 99.2334 39.894C85.3091 66.0259 95.2885 98.5977 121.479 112.498Z" fill="#2B2C2E"/>
<path fill-rule="evenodd" clip-rule="evenodd" d="M88.4959 34.7491C96.7226 19.3153 110.48 8.0004 127.235 2.8903C143.99 -2.2198 161.738 -0.514205 177.209 7.69221C209.144 24.6311 221.311 64.3343 204.331 96.1917C196.105 111.625 182.347 122.94 165.593 128.051C151.539 132.337 136.789 131.829 123.268 126.714L115.893 140.552L117.114 141.2C117.787 141.556 118.043 142.389 117.685 143.061L87.7893 199.146C86.4053 201.747 84.0899 203.654 81.2681 204.514C81.2654 204.515 81.2654 204.515 81.2632 204.516C78.4429 205.373 75.4602 205.085 72.8645 203.704C70.2574 202.323 68.3497 200.015 67.4876 197.202C66.6256 194.39 66.9127 191.41 68.2993 188.808C68.3119 188.784 68.3252 188.761 68.3391 188.738C68.3508 188.719 68.363 188.7 68.3756 188.681C68.3899 188.649 68.4054 188.616 68.4224 188.585L98.1943 132.723C98.5522 132.051 99.3873 131.797 100.06 132.154L101.278 132.8L108.637 118.985C96.7326 110.659 87.9953 98.6942 83.6797 84.6041C78.5572 67.8893 80.2672 50.1839 88.4959 34.7491ZM114.601 142.984L85.3533 197.854C84.3144 199.806 82.5773 201.236 80.4615 201.881L80.4563 201.883C78.3421 202.525 76.1089 202.309 74.1626 201.273C72.2048 200.236 70.7726 198.505 70.1266 196.397C69.4797 194.287 69.6961 192.051 70.7357 190.1C70.7528 190.068 70.7685 190.035 70.7829 190.003C70.8004 189.977 70.8172 189.95 70.8331 189.923C70.8418 189.908 70.8503 189.892 70.8585 189.877L99.983 135.23L114.601 142.984ZM103.714 134.092L113.457 139.259L120.695 125.678C118.977 124.945 117.282 124.135 115.613 123.25C114.01 122.4 112.452 121.491 110.941 120.526L103.714 134.092ZM116.982 120.683C131.766 128.522 148.729 130.153 164.74 125.269C180.752 120.386 193.898 109.572 201.758 94.8263C217.983 64.3842 206.357 26.4465 175.841 10.2598C161.059 2.41952 144.099 0.788027 128.087 5.67157C112.076 10.555 98.9295 21.3683 91.0702 36.1143C83.2081 50.8612 81.5727 67.7803 86.4681 83.7536C91.3605 99.7275 102.199 112.839 116.982 120.683Z" fill="#2B2C2E"/>
<path fill-rule="evenodd" clip-rule="evenodd" d="M36.9937 26.2753C36.9937 26.1366 36.8812 26.024 36.7424 26.024C36.641 26.024 36.5496 26.0849 36.5105 26.1784L11.7705 85.372C10.9445 87.3484 12.3964 89.5288 14.5385 89.5288H36.9937V26.2753ZM33.9937 86.5288V39.9799L14.5385 86.5288H33.9937Z" fill="#2B2C2E"/>
<path fill-rule="evenodd" clip-rule="evenodd" d="M33.8262 99.0673H6C2.68629 99.0673 0 96.381 0 93.0673V90.1918C0 89.424 0.147358 88.6633 0.434078 87.9511L33.1191 6.75935C34.0335 4.4879 36.2364 3 38.685 3H41.0269C44.3406 3 47.0269 5.68629 47.0269 9V86.3654H53C56.3137 86.3654 59 89.0517 59 92.3654V93.0673C59 96.381 56.3137 99.0673 53 99.0673H47.0269V122C47.0269 125.314 44.3406 128 41.0269 128H39.8262C36.5125 128 33.8262 125.314 33.8262 122V99.0673ZM6 96.0673C4.34315 96.0673 3 94.7242 3 93.0673V90.1918C3 89.8079 3.07368 89.4276 3.21704 89.0714L35.9021 7.87967C36.3593 6.74395 37.4607 6 38.685 6H41.0269C42.6837 6 44.0269 7.34315 44.0269 9V89.3654H53C54.6569 89.3654 56 90.7085 56 92.3654V93.0673C56 94.7242 54.6569 96.0673 53 96.0673H44.0269V122C44.0269 123.657 42.6837 125 41.0269 125H39.8262C38.1694 125 36.8262 123.657 36.8262 122V96.0673H6Z" fill="#2B2C2E"/>
<path fill-rule="evenodd" clip-rule="evenodd" d="M267.994 26.2753C267.994 26.1366 267.881 26.024 267.742 26.024C267.641 26.024 267.55 26.0849 267.51 26.1784L242.771 85.372C241.944 87.3484 243.396 89.5288 245.539 89.5288H267.994V26.2753ZM264.994 86.5288V39.9799L245.539 86.5288H264.994Z" fill="#2B2C2E"/>
<path fill-rule="evenodd" clip-rule="evenodd" d="M264.826 99.0673H237C233.686 99.0673 231 96.381 231 93.0673V90.1918C231 89.424 231.147 88.6633 231.434 87.9511L264.119 6.75935C265.034 4.4879 267.236 3 269.685 3H272.027C275.341 3 278.027 5.68629 278.027 9V86.3654H284C287.314 86.3654 290 89.0517 290 92.3654V93.0673C290 96.381 287.314 99.0673 284 99.0673H278.027V122C278.027 125.314 275.341 128 272.027 128H270.826C267.513 128 264.826 125.314 264.826 122V99.0673ZM237 96.0673C235.343 96.0673 234 94.7242 234 93.0673V90.1918C234 89.8079 234.074 89.4276 234.217 89.0714L266.902 7.87967C267.359 6.74395 268.461 6 269.685 6H272.027C273.684 6 275.027 7.34315 275.027 9V89.3654H284C285.657 89.3654 287 90.7085 287 92.3654V93.0673C287 94.7242 285.657 96.0673 284 96.0673H275.027V122C275.027 123.657 273.684 125 272.027 125H270.826C269.169 125 267.826 123.657 267.826 122V96.0673H237Z" fill="#2B2C2E"/>
</svg>
