<svg width="54" height="32" viewBox="0 0 54 32" fill="none" xmlns="http://www.w3.org/2000/svg">
<rect width="54" height="32" rx="6" fill="#F3B265"/>
<path d="M5.96191 20H7.3457L9.61816 13.1826C9.66895 13.0387 9.71126 12.8949 9.74512 12.751C9.7832 12.6071 9.81494 12.4674 9.84033 12.332H9.89746C9.92285 12.4674 9.95247 12.6071 9.98633 12.751C10.0244 12.8949 10.0667 13.0387 10.1133 13.1826L12.373 20H13.8838L10.6338 10.7007H9.18652L5.96191 20ZM7.49805 17.7085H12.2842L11.9097 16.5659H7.86621L7.49805 17.7085ZM20.1934 20H21.9263L17.8511 14.7061L16.7021 15.4233L20.1934 20ZM15.6357 14.6553V15.8169H17.6099L21.6406 10.7578H20.0664L17.0005 14.6553H15.6357ZM14.8994 20H16.334V10.7578H14.8994V20ZM29.4863 21.8408H30.8193V18.8447H29.7085V10.7578H28.2676V18.8447H24.3066V10.7578H22.8721V20H29.4863V21.8408ZM39.0396 20V10.7578H37.4971L33.8853 17.1626C33.8133 17.2938 33.7393 17.4398 33.6631 17.6006C33.5911 17.7614 33.5319 17.901 33.4854 18.0195H33.4346C33.443 17.8841 33.4473 17.7233 33.4473 17.5371C33.4515 17.3467 33.4536 17.1838 33.4536 17.0483V10.7578H32.0254V20H33.5679L37.186 13.5571C37.2622 13.4217 37.3341 13.2842 37.4019 13.1445C37.4696 13.0007 37.5309 12.8674 37.5859 12.7446H37.6367C37.6283 12.8843 37.6219 13.0387 37.6177 13.208C37.6134 13.373 37.6113 13.5254 37.6113 13.665V20H39.0396ZM46.9043 20H45.4634V16.3628H43.4575L43.2036 16.2803C42.4334 16.1787 41.841 15.8867 41.4263 15.4043C41.0116 14.9219 40.8042 14.3019 40.8042 13.5444C40.8042 12.6685 41.075 11.985 41.6167 11.4941C42.1584 11.0033 42.9264 10.7578 43.9209 10.7578H46.9043V20ZM45.4634 15.2329V11.8877H43.9526C43.3179 11.8877 42.8735 12.0443 42.6196 12.3574C42.37 12.6663 42.2451 13.062 42.2451 13.5444C42.2451 14.0269 42.37 14.4289 42.6196 14.7505C42.8693 15.0721 43.3094 15.2329 43.9399 15.2329H45.4634ZM41.9341 20H40.3789L42.6006 15.7344H44.0986L41.9341 20Z" fill="white"/>
</svg>
