<svg width="24" height="24" viewBox="0 0 24 24" fill="none" xmlns="http://www.w3.org/2000/svg">
<rect width="24" height="24" fill="white" fill-opacity="0.01"/>
<path fill-rule="evenodd" clip-rule="evenodd" d="M12.7667 3.98257C13.0097 4.08325 13.2304 4.23081 13.4163 4.41682L19.5843 10.5838C19.7705 10.7698 19.9182 10.9906 20.019 11.2336C20.1197 11.4767 20.1716 11.7372 20.1716 12.0003C20.1716 12.2634 20.1197 12.524 20.019 12.767C19.9182 13.0101 19.7705 13.2309 19.5843 13.4168L13.4163 19.5838C13.2304 19.7698 13.0097 19.9174 12.7667 20.0181C12.5238 20.1187 12.2633 20.1706 12.0003 20.1706C11.7374 20.1706 11.4769 20.1187 11.234 20.0181C10.991 19.9174 10.7703 19.7698 10.5843 19.5838L4.41635 13.4168C4.23018 13.2309 4.0825 13.0101 3.98173 12.767C3.88097 12.524 3.8291 12.2634 3.8291 12.0003C3.8291 11.7372 3.88097 11.4767 3.98173 11.2336C4.0825 10.9906 4.23018 10.7698 4.41635 10.5838L10.5843 4.41682C10.7703 4.23081 10.991 4.08325 11.234 3.98257C11.4769 3.8819 11.7374 3.83008 12.0003 3.83008C12.2633 3.83008 12.5238 3.8819 12.7667 3.98257ZM11.2932 13.7069C11.4808 13.8945 11.7351 13.9998 12.0003 13.9998C12.2656 13.9998 12.5199 13.8945 12.7074 13.7069C12.895 13.5194 13.0003 13.265 13.0003 12.9998V7.99982C13.0003 7.7346 12.895 7.48025 12.7074 7.29271C12.5199 7.10517 12.2656 6.99982 12.0003 6.99982C11.7351 6.99982 11.4808 7.10517 11.2932 7.29271C11.1057 7.48025 11.0003 7.7346 11.0003 7.99982V12.9998C11.0003 13.265 11.1057 13.5194 11.2932 13.7069ZM11.2932 16.7069C11.4808 16.8945 11.7351 16.9998 12.0003 16.9998C12.2656 16.9998 12.5199 16.8945 12.7074 16.7069C12.895 16.5194 13.0003 16.265 13.0003 15.9998C13.0003 15.7346 12.895 15.4802 12.7074 15.2927C12.5199 15.1052 12.2656 14.9998 12.0003 14.9998C11.7351 14.9998 11.4808 15.1052 11.2932 15.2927C11.1057 15.4802 11.0003 15.7346 11.0003 15.9998C11.0003 16.265 11.1057 16.5194 11.2932 16.7069Z" fill="#F95E5E"/>
</svg>
