<svg width="24" height="24" viewBox="0 0 24 24" fill="none" xmlns="http://www.w3.org/2000/svg">
<rect width="24" height="24" fill="white" fill-opacity="0.01"/>
<path fill-rule="evenodd" clip-rule="evenodd" d="M11.0616 4.96686C11.5776 3.99286 12.4196 3.98886 12.9376 4.96686L20.0616 18.4249C20.5776 19.3989 20.1066 20.1959 19.0046 20.1959H4.99458C3.89258 20.1959 3.41958 19.4029 3.93758 18.4249L11.0616 4.96686ZM11.2925 14.707C11.48 14.8945 11.7344 14.9999 11.9996 14.9999C12.2648 14.9999 12.5192 14.8945 12.7067 14.707C12.8942 14.5194 12.9996 14.2651 12.9996 13.9999V8.99986C12.9996 8.73465 12.8942 8.48029 12.7067 8.29276C12.5192 8.10522 12.2648 7.99986 11.9996 7.99986C11.7344 7.99986 11.48 8.10522 11.2925 8.29276C11.1049 8.48029 10.9996 8.73465 10.9996 8.99986V13.9999C10.9996 14.2651 11.1049 14.5194 11.2925 14.707ZM11.2925 17.707C11.48 17.8945 11.7344 17.9999 11.9996 17.9999C12.2648 17.9999 12.5192 17.8945 12.7067 17.707C12.8942 17.5194 12.9996 17.2651 12.9996 16.9999C12.9996 16.7346 12.8942 16.4803 12.7067 16.2928C12.5192 16.1052 12.2648 15.9999 11.9996 15.9999C11.7344 15.9999 11.48 16.1052 11.2925 16.2928C11.1049 16.4803 10.9996 16.7346 10.9996 16.9999C10.9996 17.2651 11.1049 17.5194 11.2925 17.707Z" fill="#DBA300"/>
</svg>
