<svg width="48" height="48" viewBox="0 0 48 48" fill="none" xmlns="http://www.w3.org/2000/svg">
<rect x="-0.5" y="0.5" width="47" height="47" rx="7.5" transform="matrix(-1 0 0 1 47 0)" fill="white" stroke="#2B2C2E"/>
<path d="M32 23.5C32.2761 23.5 32.5 23.7239 32.5 24C32.5 24.2761 32.2761 24.5 32 24.5L32 23.5ZM15.6464 24.3536C15.4512 24.1583 15.4512 23.8417 15.6464 23.6464L18.8284 20.4645C19.0237 20.2692 19.3403 20.2692 19.5355 20.4645C19.7308 20.6597 19.7308 20.9763 19.5355 21.1716L16.7071 24L19.5355 26.8284C19.7308 27.0237 19.7308 27.3403 19.5355 27.5355C19.3403 27.7308 19.0237 27.7308 18.8284 27.5355L15.6464 24.3536ZM32 24.5L16 24.5L16 23.5L32 23.5L32 24.5Z" fill="#2B2C2E"/>
</svg>
