<svg width="48" height="48" viewBox="0 0 48 48" fill="none" xmlns="http://www.w3.org/2000/svg">
<rect x="0.5" y="0.5" width="47" height="47" rx="7.5" fill="white" stroke="#2B2C2E"/>
<path d="M16 23.5C15.7239 23.5 15.5 23.7239 15.5 24C15.5 24.2761 15.7239 24.5 16 24.5L16 23.5ZM32.3536 24.3536C32.5488 24.1583 32.5488 23.8417 32.3536 23.6464L29.1716 20.4645C28.9763 20.2692 28.6597 20.2692 28.4645 20.4645C28.2692 20.6597 28.2692 20.9763 28.4645 21.1716L31.2929 24L28.4645 26.8284C28.2692 27.0237 28.2692 27.3403 28.4645 27.5355C28.6597 27.7308 28.9763 27.7308 29.1716 27.5355L32.3536 24.3536ZM16 24.5L32 24.5L32 23.5L16 23.5L16 24.5Z" fill="#2B2C2E"/>
</svg>
