<svg width="48" height="48" viewBox="0 0 48 48" fill="none" xmlns="http://www.w3.org/2000/svg">
<rect x="0.5" y="47.5" width="47" height="47" rx="7.5" transform="rotate(-90 0.5 47.5)" fill="white" stroke="#2B2C2E"/>
<path d="M23.5 32C23.5 32.2761 23.7239 32.5 24 32.5C24.2761 32.5 24.5 32.2761 24.5 32L23.5 32ZM24.3536 15.6464C24.1583 15.4512 23.8417 15.4512 23.6464 15.6464L20.4645 18.8284C20.2692 19.0237 20.2692 19.3403 20.4645 19.5355C20.6597 19.7308 20.9763 19.7308 21.1716 19.5355L24 16.7071L26.8284 19.5355C27.0237 19.7308 27.3403 19.7308 27.5355 19.5355C27.7308 19.3403 27.7308 19.0237 27.5355 18.8284L24.3536 15.6464ZM24.5 32L24.5 16L23.5 16L23.5 32L24.5 32Z" fill="#2B2C2E"/>
</svg>
