<svg width="32" height="8" viewBox="0 0 32 8" fill="none" xmlns="http://www.w3.org/2000/svg">
<path d="M1 3.5C0.723858 3.5 0.5 3.72386 0.5 4C0.5 4.27614 0.723858 4.5 1 4.5L1 3.5ZM31.3536 4.35355C31.5488 4.15829 31.5488 3.84171 31.3536 3.64644L28.1716 0.464464C27.9763 0.269202 27.6597 0.269202 27.4645 0.464464C27.2692 0.659726 27.2692 0.976308 27.4645 1.17157L30.2929 4L27.4645 6.82842C27.2692 7.02369 27.2692 7.34027 27.4645 7.53553C27.6597 7.73079 27.9763 7.73079 28.1716 7.53553L31.3536 4.35355ZM1 4.5L31 4.5L31 3.5L1 3.5L1 4.5Z" fill="#DBA300"/>
</svg>
