<svg width="25" height="19" viewBox="0 0 25 19" fill="none" xmlns="http://www.w3.org/2000/svg">
<g clip-path="url(#clip0_380_18911)">
<path fill-rule="evenodd" clip-rule="evenodd" d="M0 0.5H37.504V12.4566H0V0.5Z" fill="#B20000"/>
<path fill-rule="evenodd" clip-rule="evenodd" d="M0 12.4566H37.504V18.5H0V12.4566Z" fill="#429F00"/>
<path fill-rule="evenodd" clip-rule="evenodd" d="M0 0.5H4.15327V18.5H0V0.5Z" fill="white"/>
<path fill-rule="evenodd" clip-rule="evenodd" d="M0.197754 0.805859H0.395529V1.11172H0.197754V0.805859ZM0.791079 0.805859H1.3844V1.11172H0.791079V0.805859ZM0.988854 0.5H1.18663V0.805859H0.988854V0.5ZM1.97773 0.5H2.1755V0.805859H1.97773V0.5ZM2.76883 0.805859H3.36215V1.11172H2.76883V0.805859ZM2.9666 0.5H3.16438V0.805859H2.9666V0.5ZM0.593304 1.11172H0.988854V1.41406H0.593304V1.11172ZM1.18663 1.11172H1.58218V1.41406H1.18663V1.11172ZM2.57105 1.11172H2.9666V1.41406H2.57105V1.11172ZM3.16438 1.11172H3.55993V1.41406H3.16438V1.11172ZM0.395529 1.41406H0.791079V1.71992H0.395529V1.41406ZM1.3844 1.41406H1.77995V1.71992H1.3844V1.41406ZM2.37328 1.41406H2.76883V1.71992H2.37328V1.41406ZM3.36215 1.41406H3.7577V1.71992H3.36215V1.41406ZM3.7577 0.805859H3.95548V1.11172H3.7577V0.805859ZM0.197754 1.71992H0.593304V2.02578H0.197754V1.71992ZM1.58218 1.71992H1.97773V2.02578H1.58218V1.71992ZM3.55993 1.71992H3.95548V2.02578H3.55993V1.71992ZM0.395529 2.63398H0.791079V2.93984H0.395529V2.63398ZM0.593304 2.93984H0.988854V3.2457H0.593304V2.93984ZM1.3844 2.6375H1.77995V2.93984H1.3844V2.6375ZM1.18663 2.93984H1.58218V3.2457H1.18663V2.93984ZM0.791079 3.2457H1.3844V3.55156H0.791079V3.2457Z" fill="#B20000"/>
<path fill-rule="evenodd" clip-rule="evenodd" d="M0.988875 3.55157H1.18665V3.85743H0.988875V3.55157ZM2.3733 2.63751H2.76885V2.93986H2.3733V2.63751ZM2.57107 2.93986H2.96662V3.24572H2.57107V2.93986ZM3.36217 2.63751H3.75772V2.93986H3.36217V2.63751ZM3.1644 2.93986H3.55995V3.24572H3.1644V2.93986ZM2.76885 3.24572H3.36217V3.55157H2.76885V3.24572ZM2.96662 3.55157H3.1644V3.85743H2.96662V3.55157ZM1.97775 3.2422H2.17552V3.54806H1.97775V3.2422ZM0 3.2422H0.197775V3.54806H0V3.2422ZM3.9555 3.2422H4.15327V3.54806H3.9555V3.2422ZM0.988875 4.76798H1.18665V5.07384H0.988875V4.76798ZM0.7911 5.07736H1.38442V5.3797H0.7911V5.07736ZM0.593325 5.3797H1.5822V5.68556H0.593325V5.3797ZM2.96662 4.7715H3.1644V5.07736H2.96662V4.7715ZM2.76885 5.07736H3.36217V5.3797H2.76885V5.07736ZM2.57107 5.3797H3.55995V5.68556H2.57107V5.3797ZM2.76885 6.90548H3.75772V7.21134H2.76885V6.90548ZM2.3733 5.68556H3.75772V5.99142H2.3733V5.68556ZM0.39555 5.68556H1.77997V5.99142H0.39555V5.68556ZM0.593325 7.21134H1.18665V7.5172H0.593325V7.21134ZM0.39555 6.90548H1.38442V7.21134H0.39555V6.90548ZM3.1644 6.30079H4.15327V6.60665H3.1644V6.30079ZM2.96662 7.21486H3.55995V7.52072H2.96662V7.21486Z" fill="#B20000"/>
<path fill-rule="evenodd" clip-rule="evenodd" d="M0.7911 7.51718H0.988875V7.82304H0.7911V7.51718ZM3.1644 7.51718H3.36217V7.82304H3.1644V7.51718ZM0 6.29725H0.988875V6.60311H0V6.29725ZM1.77997 6.90546H2.3733V7.21132H1.77997V6.90546ZM1.97775 7.21483H2.17552V7.52069H1.97775V7.21483ZM1.38442 6.30077H2.76885V6.60663H1.38442V6.30077ZM2.17552 1.71991H2.57107V2.02577H2.17552V1.71991ZM1.77997 2.02577H2.3733V2.33163H1.77997V2.02577ZM1.5822 2.33163H1.97775V2.63397H1.5822V2.33163ZM2.17552 2.33163H2.57107V2.63397H2.17552V2.33163ZM0 2.02577H0.39555V2.33163H0V2.02577ZM0.197775 2.33163H0.593325V2.63397H0.197775V2.33163ZM3.75772 2.02577H4.15327V2.32811H3.75772V2.02577ZM3.55995 2.32811H3.9555V2.63046H3.55995V2.32811ZM0 5.0703H0.197775V5.37616H0V5.0703ZM3.9555 5.0703H4.15327V5.37616H3.9555V5.0703ZM1.77997 7.51366H2.3733V7.81952H1.77997V7.51366ZM1.5822 7.81952H1.97775V8.12186H1.5822V7.81952ZM2.17552 7.81952H2.57107V8.12186H2.17552V7.81952ZM1.38442 8.12186H1.77997V8.42772H1.38442V8.12186ZM2.3733 8.12186H2.76885V8.42772H2.3733V8.12186ZM1.18665 8.42772H1.5822V8.73358H1.18665V8.42772ZM2.57107 8.42772H2.96662V8.73358H2.57107V8.42772ZM0.988875 8.7371H1.38442V9.04296H0.988875V8.7371ZM2.76885 8.7371H3.1644V9.04296H2.76885V8.7371ZM0.593325 9.04296H1.18665V9.34882H0.593325V9.04296ZM2.96662 9.04296H3.55995V9.34882H2.96662V9.04296ZM3.36217 8.7371H3.75772V9.04296H3.36217V8.7371ZM3.55995 8.43124H3.9555V8.7371H3.55995V8.43124ZM3.75772 8.12538H4.15327V8.43124H3.75772V8.12538ZM0.39555 8.7371H0.7911V9.04296H0.39555V8.7371ZM0.197775 8.43124H0.593325V8.7371H0.197775V8.43124ZM0 8.12889H0.39555V8.43475H0V8.12889ZM0.7911 9.35233H0.988875V9.65468H0.7911V9.35233ZM3.1644 9.35233H3.36217V9.65468H3.1644V9.35233ZM1.97775 8.43827H2.17552V8.74061H1.97775V8.43827ZM1.38442 9.35233H1.5822V9.65468H1.38442V9.35233ZM2.57107 9.35233H2.76885V9.65468H2.57107V9.35233ZM1.97775 9.35233H2.17552V9.65468H1.97775V9.35233ZM0 9.35233H0.197775V9.65468H0L0 9.35233ZM3.9555 9.35233H4.15327V9.65468H3.9555V9.35233ZM1.97775 5.07733H2.17552V5.37968H1.97775V5.07733ZM0.988875 2.02577H1.18665V2.33163H0.988875V2.02577ZM2.96662 2.02577H3.1644V2.33163H2.96662V2.02577ZM1.77997 4.15975H2.3733V4.46561H1.77997V4.15975ZM1.38442 4.46561H1.97775V4.77147H1.38442V4.46561ZM1.5822 4.77147H1.77997V5.07733H1.5822V4.77147ZM1.18665 4.15975H1.5822V4.46561H1.18665V4.15975ZM1.38442 3.85741H1.97775V4.15975H1.38442V3.85741ZM1.5822 3.55155H1.77997V3.85741H1.5822V3.55155ZM2.17552 3.85741H2.76885V4.15975H2.17552V3.85741ZM2.3733 3.55155H2.57107V3.85741H2.3733V3.55155ZM2.57107 4.15975H2.96662V4.46561H2.57107V4.15975ZM2.17552 4.46561H2.76885V4.77147H2.17552V4.46561ZM2.3733 4.77147H2.57107V5.07733H2.3733V4.77147ZM3.1644 4.15975H3.55995V4.46561H3.1644V4.15975ZM3.36217 3.85741H3.9555V4.15975H3.36217V3.85741ZM3.75772 4.15975H4.15327V4.46561H3.75772V4.15975ZM3.36217 4.46561H3.9555V4.77147H3.36217V4.46561ZM3.55995 4.77147H3.75772V5.07733H3.55995V4.77147ZM3.55995 3.55155H3.75772V3.85741H3.55995V3.55155ZM0 4.15624H0.39555V4.4621H0V4.15624ZM0.197775 3.85389H0.7911V4.15624H0.197775V3.85389ZM0.593325 4.15624H0.988875V4.4621H0.593325V4.15624ZM0.197775 4.4621H0.7911V4.76796H0.197775V4.4621Z" fill="#B20000"/>
<path fill-rule="evenodd" clip-rule="evenodd" d="M0.39555 4.7715H0.593325V5.07736H0.39555V4.7715ZM0.39555 3.55157H0.593325V3.85743H0.39555V3.55157ZM0.197775 5.99142H0.988875V6.29728H0.197775V5.99142ZM1.18665 5.99142H1.97775V6.29728H1.18665V5.99142ZM2.17552 5.99142H2.96662V6.29728H2.17552V5.99142ZM3.1644 5.99142H3.9555V6.29728H3.1644V5.99142ZM1.5822 6.60314H2.57107V6.90548H1.5822V6.60314ZM0.197775 6.60314H1.18665V6.90548H0.197775V6.60314ZM2.96662 6.60314H3.9555V6.90548H2.96662V6.60314ZM3.9555 7.82306H4.15327V8.1254H3.9555V7.82306ZM0 7.82306H0.197775V8.1254H0V7.82306ZM0.197775 18.1942H0.39555V17.8918H0.197775V18.1942ZM0.7911 18.1942H1.38442V17.8918H0.7911V18.1942ZM0.988875 18.5H1.18665V18.1942H0.988875V18.5ZM1.97775 18.5H2.17552V18.1942H1.97775V18.5ZM2.76885 18.1942H3.36217V17.8883H2.76885V18.1942ZM2.96662 18.5H3.1644V18.1942H2.96662V18.5ZM0.593325 17.8883H0.988875V17.5859H0.593325V17.8883ZM1.18665 17.8883H1.5822V17.5859H1.18665V17.8883ZM2.57107 17.8883H2.96662V17.5859H2.57107V17.8883ZM3.1644 17.8883H3.55995V17.5859H3.1644V17.8883ZM1.38442 17.5859H1.77997V17.2801H1.38442V17.5859ZM2.3733 17.5859H2.76885V17.2801H2.3733V17.5859ZM3.36217 17.5859H3.75772V17.2801H3.36217V17.5859ZM3.75772 18.1942H3.9555V17.8883H3.75772V18.1942ZM0.197775 17.2801H0.593325V16.9742H0.197775V17.2801ZM1.5822 17.2801H1.97775V16.9742H1.5822V17.2801ZM3.55995 17.2801H3.9555V16.9742H3.55995V17.2801ZM0.39555 16.366H0.7911V16.0602H0.39555V16.366ZM0.593325 16.0602H0.988875V15.7543H0.593325V16.0602ZM1.38442 16.366H1.77997V16.0602H1.38442V16.366ZM1.18665 16.0602H1.5822V15.7543H1.18665V16.0602ZM0.7911 15.7543H1.38442V15.4484H0.7911V15.7543ZM0.988875 15.4484H1.18665V15.1461H0.988875V15.4484ZM2.3733 16.3625H2.76885V16.0602H2.3733V16.3625ZM2.57107 16.0602H2.96662V15.7543H2.57107V16.0602ZM3.36217 16.366H3.75772V16.0602H3.36217V16.366ZM3.1644 16.0602H3.55995V15.7543H3.1644V16.0602ZM2.76885 15.7543H3.36217V15.4484H2.76885V15.7543ZM2.96662 15.4484H3.1644V15.1461H2.96662V15.4484ZM1.97775 15.7578H2.17552V15.452H1.97775V15.7578ZM0 15.7578H0.197775V15.452H0V15.7578ZM3.9555 15.7578H4.15327V15.452H3.9555V15.7578ZM0.988875 14.232H1.18665V13.9262H0.988875V14.232ZM0.7911 13.9227H1.38442V13.6203H0.7911V13.9227ZM0.593325 13.6203H1.5822V13.3145H0.593325V13.6203ZM2.96662 14.2285H3.1644V13.9227H2.96662V14.2285Z" fill="#B20000"/>
<path fill-rule="evenodd" clip-rule="evenodd" d="M2.76885 13.9226H3.36217V13.6203H2.76885V13.9226ZM2.57107 13.6203H3.55995V13.3144H2.57107V13.6203ZM2.76885 12.0945H3.75772V11.7851H2.76885V12.0945ZM2.3733 13.3144H3.75772V13.0086H2.3733V13.3144ZM0.39555 13.3144H1.77997V13.0086H0.39555V13.3144ZM0.593325 11.7887H1.18665V11.4828H0.593325V11.7887ZM0.39555 12.0945H1.38442V11.7851H0.39555V12.0945ZM3.1644 12.6992H4.15327V12.3934H3.1644V12.6992ZM2.96662 11.7851H3.55995V11.4793H2.96662V11.7851ZM0 12.6992H0.988875V12.3934H0V12.6992ZM1.77997 12.091H2.3733V11.7851H1.77997V12.091ZM1.97775 11.7851H2.17552V11.4793H1.97775V11.7851ZM1.38442 12.6992H2.76885V12.3934H1.38442V12.6992ZM2.17552 17.2766H2.57107V16.9707H2.17552V17.2766ZM1.77997 16.9707H2.3733V16.6719H1.77997V16.9707ZM1.5822 16.6648H1.97775V16.359H1.5822V16.6648ZM2.17552 16.6648H2.57107V16.359H2.17552V16.6648ZM0 16.9742H0.39555V16.6719H0V16.9742ZM0.197775 16.6684H0.593325V16.366H0.197775V16.6684ZM3.75772 16.9742H4.15327V16.6719H3.75772V16.9742ZM3.55995 16.6684H3.9555V16.366H3.55995V16.6684ZM0 13.9297H0.197775V13.6238H0V13.9297ZM3.9555 13.9297H4.15327V13.6238H3.9555V13.9297ZM1.5822 11.1805H1.97775V10.8781H1.5822V11.1805ZM2.17552 11.1805H2.57107V10.8781H2.17552V11.1805ZM1.38442 10.8781H1.77997V10.5723H1.38442V10.8781ZM2.3733 10.8781H2.76885V10.5723H2.3733V10.8781ZM1.18665 10.5723H1.5822V10.2664H1.18665V10.5723ZM2.57107 10.5723H2.96662V10.2664H2.57107V10.5723ZM0.988875 10.2629H1.38442V9.95702H0.988875V10.2629ZM2.76885 10.2629H3.1644V9.95702H2.76885V10.2629ZM0.593325 9.95702H1.18665V9.65117H0.593325V9.95702ZM2.96662 9.95702H3.55995V9.65117H2.96662V9.95702ZM3.36217 10.2629H3.75772V9.95702H3.36217V10.2629ZM3.55995 10.5687H3.9555V10.2629H3.55995V10.5687ZM3.75772 10.8746H4.15327V10.5687H3.75772V10.8746ZM0.39555 10.2629H0.7911V9.95702H0.39555V10.2629ZM0.197775 10.5687H0.593325V10.2629H0.197775V10.5687ZM0 10.8711H0.39555V10.5652H0V10.8711ZM0.7911 9.64765H0.988875V9.34531H0.7911V9.64765ZM1.97775 10.5617H2.17552V10.2594H1.97775V10.5617ZM1.97775 13.9191H2.17552V13.6168H1.97775V13.9191ZM0.988875 16.9707H1.18665V16.6719H0.988875V16.9707ZM2.96662 16.9707H3.1644V16.6719H2.96662V16.9707ZM1.77997 14.8437H2.3733V14.5379H1.77997V14.8437ZM1.38442 14.5379H1.97775V14.232H1.38442V14.5379ZM1.5822 14.232H1.77997V13.9262H1.5822V14.232ZM1.18665 14.8437H1.5822V14.5379H1.18665V14.8437ZM1.38442 15.1426H1.97775V14.8437H1.38442V15.1426ZM1.5822 15.4484H1.77997V15.1461H1.5822V15.4484ZM2.17552 15.1426H2.76885V14.8437H2.17552V15.1426ZM2.3733 15.4484H2.57107V15.1461H2.3733V15.4484ZM2.57107 14.8402H2.96662V14.5344H2.57107V14.8402ZM2.17552 14.5344H2.76885V14.2285H2.17552V14.5344ZM2.3733 14.2285H2.57107V13.9226H2.3733V14.2285ZM3.1644 14.8437H3.55995V14.5379H3.1644V14.8437ZM3.36217 15.1426H3.9555V14.8437H3.36217V15.1426ZM3.75772 14.8402H4.15327V14.5344H3.75772V14.8402ZM3.36217 14.5344H3.9555V14.2285H3.36217V14.5344ZM3.55995 14.2285H3.75772V13.9226H3.55995V14.2285ZM3.55995 15.4484H3.75772V15.1461H3.55995V15.4484ZM0 14.8437H0.39555V14.5379H0V14.8437ZM0.197775 15.1426H0.7911V14.8437H0.197775V15.1426Z" fill="#B20000"/>
<path fill-rule="evenodd" clip-rule="evenodd" d="M0.593325 14.8402H0.988875V14.5344H0.593325V14.8402ZM0.197775 14.5344H0.7911V14.2285H0.197775V14.5344ZM0.39555 14.2285H0.593325V13.9227H0.39555V14.2285ZM0.39555 15.4484H0.593325V15.1461H0.39555V15.4484ZM0.197775 13.0086H0.988875V12.7027H0.197775V13.0086ZM1.18665 13.0086H1.97775V12.7027H1.18665V13.0086ZM2.17552 13.0086H2.96662V12.7027H2.17552V13.0086ZM3.1644 13.0086H3.9555V12.7027H3.1644V13.0086ZM1.5822 12.3969H2.57107V12.0945H1.5822V12.3969ZM0.197775 12.3969H1.18665V12.0945H0.197775V12.3969ZM2.96662 12.3969H3.9555V12.0945H2.96662V12.3969ZM3.9555 11.1805H4.15327V10.8711H3.9555V11.1805ZM0 11.1805H0.197775V10.8711H0V11.1805ZM1.77997 9.65117H1.97775V9.95703H1.77997V9.65117ZM2.17552 9.65117H2.3733V9.95703H2.17552V9.65117ZM2.17552 9.04297H2.3733V9.34883H2.17552V9.04297ZM1.77997 9.04297H1.97775V9.34883H1.77997V9.04297ZM0.39555 17.2801H0.7911V17.5859H0.39555V17.2801ZM3.1644 11.4828H3.36217V11.177H3.1644V11.4828ZM0.7911 11.4828H0.988875V11.177H0.7911V11.4828ZM1.77997 11.177H2.3733V11.4828H1.77997V11.177Z" fill="#B20000"/>
</g>
<defs>
<clipPath id="clip0_380_18911">
<rect width="25" height="18" fill="white" transform="translate(0 0.5)"/>
</clipPath>
</defs>
</svg>
