<svg width="24" height="24" viewBox="0 0 24 24" fill="none" xmlns="http://www.w3.org/2000/svg">
<path d="M16.4901 22.75H7.50012C5.78012 22.75 4.49012 22.29 3.69012 21.38C2.89012 20.47 2.58011 19.15 2.79011 17.44L3.69012 9.94C3.95012 7.73 4.51012 5.75 8.41012 5.75H15.6101C19.5001 5.75 20.0601 7.73 20.3301 9.94L21.2301 17.44C21.4301 19.15 21.1301 20.48 20.3301 21.38C19.5001 22.29 18.2201 22.75 16.4901 22.75ZM8.40011 7.25C5.52011 7.25 5.38012 8.38999 5.17012 10.11L4.27012 17.61C4.12012 18.88 4.30012 19.81 4.81012 20.38C5.32012 20.95 6.22012 21.24 7.50012 21.24H16.4901C17.7701 21.24 18.6701 20.95 19.1801 20.38C19.6901 19.81 19.8701 18.88 19.7201 17.61L18.8201 10.11C18.6101 8.37999 18.4801 7.25 15.5901 7.25H8.40011Z" fill="#2B2C2E"/>
<path d="M16.0004 8.75C15.5904 8.75 15.2504 8.41 15.2504 8V4.5C15.2504 3.42 14.5804 2.75 13.5004 2.75H10.5004C9.42037 2.75 8.75037 3.42 8.75037 4.5V8C8.75037 8.41 8.41037 8.75 8.00037 8.75C7.59037 8.75 7.25037 8.41 7.25037 8V4.5C7.25037 2.59 8.59037 1.25 10.5004 1.25H13.5004C15.4104 1.25 16.7504 2.59 16.7504 4.5V8C16.7504 8.41 16.4104 8.75 16.0004 8.75Z" fill="#2B2C2E"/>
</svg>
