<svg width="28" height="28" viewBox="0 0 28 28" fill="none" xmlns="http://www.w3.org/2000/svg">
<path d="M10.111 25.4999H17.8888M10.111 25.4999H7.51844C6.14324 25.4999 4.82437 24.9606 3.85196 24.0007C2.87955 23.0407 2.33325 21.7388 2.33325 20.3812V12.3295C2.33323 11.4493 2.56311 10.5841 3.00067 9.81721C3.43824 9.05036 4.06872 8.40785 4.83122 7.95171L11.3127 4.07429C12.123 3.58954 13.0524 3.33325 13.9999 3.33325C14.9474 3.33325 15.8768 3.58954 16.6871 4.07429L23.1686 7.95171C23.9309 8.40773 24.5613 9.05005 24.9988 9.81666C25.4364 10.5833 25.6664 11.4483 25.6666 12.3282V20.3812C25.6666 21.7388 25.1203 23.0407 24.1479 24.0007C23.1755 24.9606 21.8566 25.4999 20.4814 25.4999H17.8888H10.111ZM10.111 25.4999V20.3812C10.111 19.363 10.5208 18.3866 11.2501 17.6666C11.9794 16.9467 12.9685 16.5422 13.9999 16.5422V16.5422C15.0313 16.5422 16.0205 16.9467 16.7498 17.6666C17.4791 18.3866 17.8888 19.363 17.8888 20.3812V25.4999H10.111Z" stroke="#DBA300" stroke-width="1.5" stroke-linecap="round" stroke-linejoin="round"/>
</svg>
