<svg width="29" height="28" viewBox="0 0 29 28" fill="none" xmlns="http://www.w3.org/2000/svg">
<path fill-rule="evenodd" clip-rule="evenodd" d="M17.5728 19.7188C21.7134 19.7188 25.0855 16.3403 25.0855 12.1535C25.0855 7.96668 21.7134 4.58824 17.5728 4.58824C13.4323 4.58824 10.0601 7.96668 10.0601 12.1535C10.0601 16.3403 13.4323 19.7188 17.5728 19.7188ZM17.5728 21.307C19.5784 21.307 21.4325 20.6545 22.9366 19.5491L27.1116 23.7481C27.3973 24.0355 27.8619 24.0368 28.1493 23.7511C28.4367 23.4653 28.438 23.0007 28.1523 22.7133L24.0482 18.5855C25.6716 16.9323 26.6738 14.6606 26.6738 12.1535C26.6738 7.09816 22.5991 3 17.5728 3C12.5465 3 8.47189 7.09816 8.47189 12.1535C8.47189 17.2088 12.5465 21.307 17.5728 21.307ZM7.2 6.6C7.64183 6.6 8 6.24183 8 5.8C8 5.35817 7.64183 5 7.2 5H0.8C0.358172 5 0 5.35817 0 5.8C0 6.24183 0.358172 6.6 0.8 6.6L7.2 6.6ZM5.2 14.6C5.64183 14.6 6 14.2418 6 13.8C6 13.3582 5.64183 13 5.2 13H0.8C0.358172 13 0 13.3582 0 13.8C0 14.2418 0.358172 14.6 0.8 14.6H5.2ZM10 21.8C10 22.2418 9.64183 22.6 9.2 22.6H0.8C0.358172 22.6 0 22.2418 0 21.8C0 21.3582 0.358172 21 0.8 21H9.2C9.64183 21 10 21.3582 10 21.8Z" fill="#2B2C2E"/>
</svg>
