<svg width="28" height="28" viewBox="0 0 28 28" fill="none" xmlns="http://www.w3.org/2000/svg">
<path fill-rule="evenodd" clip-rule="evenodd" d="M17.4212 10.2C17.4212 10.6373 17.7791 11 18.2107 11C18.6423 11 19.0002 10.6373 19.0002 10.2V9.65713C21.0078 9.93494 21.1437 11.0349 21.3373 12.603L21.339 12.6166L22.3086 20.5577C22.4702 21.9024 22.2763 22.8872 21.7268 23.4907C21.1774 24.0942 20.2078 24.4013 18.8287 24.4013H9.14324C7.76422 24.4013 6.79459 24.0942 6.24514 23.4907C5.69568 22.8872 5.50176 21.9024 5.66337 20.5577L6.63299 12.6166C6.82837 11.0438 6.96751 9.92909 9.00018 9.65423V10.2C9.00018 10.6373 9.35807 11 9.78965 11C10.2212 11 10.5791 10.6373 10.5791 10.2V9.58835H17.4212V10.2ZM19.0002 8.0574C22.1855 8.40841 22.7031 10.3232 22.9658 12.4366L23.9354 20.3778C24.1509 22.1884 23.8277 23.5966 22.9658 24.5495C22.0716 25.5131 20.6926 26.0001 18.8287 26.0001H9.14324C7.29018 26.0001 5.90039 25.5131 5.0385 24.5495C4.17661 23.586 3.84261 22.1884 4.06886 20.3778L5.0385 12.4366C5.29146 10.3234 5.808 8.40886 9.00018 8.05753V6.46667C9.00018 4.42933 10.4107 3 12.4212 3H15.5791C17.5897 3 19.0002 4.42933 19.0002 6.46667V8.0574ZM10.5791 8.00011V6.46667C10.5791 5.31467 11.2844 4.6 12.4212 4.6H15.5791C16.716 4.6 17.4212 5.31467 17.4212 6.46667V8.00011H10.5791Z" fill="#2B2C2E"/>
</svg>
