<svg width="28" height="28" viewBox="0 0 28 28" fill="none" xmlns="http://www.w3.org/2000/svg">
<path fill-rule="evenodd" clip-rule="evenodd" d="M7.2 12.4C9.5196 12.4 11.4 10.5196 11.4 8.2C11.4 5.8804 9.5196 4 7.2 4C4.8804 4 3 5.8804 3 8.2C3 10.5196 4.8804 12.4 7.2 12.4ZM7.2 10.72C8.59176 10.72 9.72 9.59176 9.72 8.2C9.72 6.80824 8.59176 5.68 7.2 5.68C5.80824 5.68 4.68 6.80824 4.68 8.2C4.68 9.59176 5.80824 10.72 7.2 10.72Z" fill="#2B2C2E"/>
<path fill-rule="evenodd" clip-rule="evenodd" d="M19.8 25C22.1196 25 24 23.1196 24 20.8C24 18.4804 22.1196 16.6 19.8 16.6C17.4804 16.6 15.6 18.4804 15.6 20.8C15.6 23.1196 17.4804 25 19.8 25ZM19.8 23.32C21.1918 23.32 22.32 22.1918 22.32 20.8C22.32 19.4082 21.1918 18.28 19.8 18.28C18.4082 18.28 17.28 19.4082 17.28 20.8C17.28 22.1918 18.4082 23.32 19.8 23.32Z" fill="#2B2C2E"/>
<path d="M22.5311 6.94328C22.8796 6.59474 22.8796 6.02964 22.5311 5.68109C22.1825 5.33255 21.6175 5.33255 21.2689 5.68109L4.68109 22.2689C4.33255 22.6175 4.33255 23.1826 4.68109 23.5311C5.02964 23.8796 5.59473 23.8796 5.94328 23.5311L22.5311 6.94328Z" fill="#2B2C2E"/>
</svg>
