<svg width="28" height="28" viewBox="0 0 28 28" fill="none" xmlns="http://www.w3.org/2000/svg">
<path fill-rule="evenodd" clip-rule="evenodd" d="M19 11.5C19 13.9853 16.7614 16 14 16C11.2386 16 9 13.9853 9 11.5C9 9.01472 11.2386 7 14 7C16.7614 7 19 9.01472 19 11.5ZM17.4 11.5C17.4 12.9472 16.0405 14.4 14 14.4C11.9595 14.4 10.6 12.9472 10.6 11.5C10.6 10.0528 11.9595 8.6 14 8.6C16.0405 8.6 17.4 10.0528 17.4 11.5Z" fill="#2B2C2E"/>
<path fill-rule="evenodd" clip-rule="evenodd" d="M13.9729 26.9819L14 27C14 27 25.0398 19.772 24.9999 11.4C24.9999 5.6657 20.0651 1 14 1C7.93494 1 3.00011 5.6657 3.00011 11.3935C2.96086 19.6405 13.2513 26.5008 13.9729 26.9819ZM4.60011 11.4011V11.3935C4.60011 6.63334 8.7322 2.6 14 2.6C19.2671 2.6 23.3999 6.63271 23.3999 11.4L23.3999 11.4076C23.4167 14.9333 21.0593 18.4363 18.3638 21.2282C17.0515 22.5874 15.7323 23.7029 14.739 24.4792C14.4617 24.6959 14.2109 24.8854 13.994 25.0456C12.9663 24.2988 11.2108 22.9281 9.48334 21.1261C6.85304 18.3825 4.58325 14.9436 4.60011 11.4011Z" fill="#2B2C2E"/>
</svg>
