<svg width="24" height="24" viewBox="0 0 24 24" fill="none" xmlns="http://www.w3.org/2000/svg">
<path d="M20.4095 4.62C21.4281 5.65527 22 7.05693 22 8.51812C22 9.97932 21.4281 11.381 20.4095 12.4163L12.7116 20.2712C12.3195 20.6713 11.6752 20.6713 11.2831 20.2712L3.58514 12.4163C2.82865 11.6452 2.31362 10.6654 2.10452 9.59951C1.89542 8.53358 2.00154 7.4289 2.40961 6.42374C2.81767 5.41859 3.50954 4.55762 4.39861 3.94862C5.28768 3.33961 6.33444 3.00964 7.40786 3C8.84321 3.00882 10.2171 3.59103 11.2306 4.62C11.5262 4.91613 11.7838 5.24874 11.9973 5.61C12.2109 5.24874 12.4685 4.91613 12.7641 4.62C13.2635 4.10706 13.8586 3.69974 14.5149 3.42172C15.1711 3.1437 15.8754 3.00053 16.5868 3.00053C17.2982 3.00053 18.0025 3.1437 18.6588 3.42172C19.315 3.69974 19.9102 4.10706 20.4095 4.62Z" stroke="#2B2C2E" stroke-width="1.5" stroke-linecap="round" stroke-linejoin="round"/>
</svg>
