<svg width="34" height="34" viewBox="0 0 34 34" fill="none" xmlns="http://www.w3.org/2000/svg">
<rect width="34" height="34" rx="8" fill="#2B2C2E"/>
<path d="M23.6801 13.5613C24 14.675 24 17 24 17C24 17 24 19.325 23.6801 20.4388C23.5023 21.0544 22.9822 21.5387 22.3235 21.7025C21.1272 22 17 22 17 22C17 22 12.8749 22 11.6765 21.7025C11.015 21.5363 10.4956 21.0525 10.3199 20.4388C10 19.325 10 17 10 17C10 17 10 14.675 10.3199 13.5613C10.4977 12.9456 11.0178 12.4612 11.6765 12.2975C12.8749 12 17 12 17 12C17 12 21.1272 12 22.3235 12.2975C22.985 12.4637 23.5044 12.9475 23.6801 13.5613ZM15.6 19.1875L19.8 17L15.6 14.8125V19.1875Z" fill="white"/>
</svg>
