<svg width="34" height="34" viewBox="0 0 34 34" fill="none" xmlns="http://www.w3.org/2000/svg">
<rect width="34" height="34" rx="8" fill="#2B2C2E"/>
<g clip-path="url(#clip0_447_7306)">
<path fill-rule="evenodd" clip-rule="evenodd" d="M23.6792 13.4695C23.776 13.151 23.6792 12.9165 23.2154 12.9165H21.6842C21.2945 12.9165 21.1148 13.1189 21.0174 13.3423C21.0174 13.3423 20.2387 15.2067 19.1356 16.4177C18.7786 16.7688 18.6164 16.8803 18.4216 16.8803C18.3242 16.8803 18.1777 16.7688 18.1777 16.4498V13.4695C18.1777 13.0868 18.0704 12.9165 17.7461 12.9165H15.3381C15.0948 12.9165 14.9484 13.0938 14.9484 13.2624C14.9484 13.6247 15.5002 13.7087 15.5568 14.7283V16.9438C15.5568 17.4298 15.4676 17.5178 15.2727 17.5178C14.7536 17.5178 13.4907 15.6448 12.7411 13.5016C12.5958 13.0845 12.4488 12.9165 12.0574 12.9165H10.525C10.0875 12.9165 10 13.1189 10 13.3423C10 13.7402 10.5192 15.7165 12.4179 18.3304C13.6837 20.1154 15.4658 21.0832 17.0892 21.0832C18.0628 21.0832 18.183 20.8685 18.183 20.4981V19.1488C18.183 18.7189 18.2752 18.6332 18.5837 18.6332C18.8112 18.6332 19.2003 18.7452 20.1092 19.6056C21.1475 20.6258 21.3184 21.0832 21.9029 21.0832H23.4342C23.8717 21.0832 24.091 20.8685 23.965 20.4438C23.8262 20.0215 23.3303 19.4084 22.6729 18.681C22.3159 18.2668 21.7804 17.8206 21.6177 17.5972C21.3907 17.3108 21.4555 17.183 21.6177 16.9281C21.6177 16.9281 23.4843 14.3463 23.6786 13.4695H23.6792Z" fill="white"/>
</g>
<defs>
<clipPath id="clip0_447_7306">
<rect width="14" height="14" fill="white" transform="translate(10 10)"/>
</clipPath>
</defs>
</svg>
