<svg width="34" height="34" viewBox="0 0 34 34" fill="none" xmlns="http://www.w3.org/2000/svg">
<rect width="34" height="34" rx="8" fill="#2B2C2E"/>
<path d="M17 11C18.6302 11 18.8336 11.006 19.4732 11.036C20.1122 11.066 20.5472 11.1662 20.93 11.315C21.326 11.4674 21.6596 11.6738 21.9932 12.0068C22.2983 12.3067 22.5344 12.6696 22.685 13.07C22.8332 13.4522 22.934 13.8878 22.964 14.5268C22.9922 15.1664 23 15.3698 23 17C23 18.6302 22.994 18.8336 22.964 19.4732C22.934 20.1122 22.8332 20.5472 22.685 20.93C22.5348 21.3307 22.2987 21.6936 21.9932 21.9932C21.6932 22.2982 21.3304 22.5343 20.93 22.685C20.5478 22.8332 20.1122 22.934 19.4732 22.964C18.8336 22.9922 18.6302 23 17 23C15.3698 23 15.1664 22.994 14.5268 22.964C13.8878 22.934 13.4528 22.8332 13.07 22.685C12.6694 22.5347 12.3065 22.2986 12.0068 21.9932C11.7016 21.6933 11.4656 21.3305 11.315 20.93C11.1662 20.5478 11.066 20.1122 11.036 19.4732C11.0078 18.8336 11 18.6302 11 17C11 15.3698 11.006 15.1664 11.036 14.5268C11.066 13.8872 11.1662 13.4528 11.315 13.07C11.4651 12.6693 11.7013 12.3064 12.0068 12.0068C12.3066 11.7015 12.6695 11.4654 13.07 11.315C13.4528 11.1662 13.8872 11.066 14.5268 11.036C15.1664 11.0078 15.3698 11 17 11ZM17 14C16.2044 14 15.4413 14.3161 14.8787 14.8787C14.3161 15.4413 14 16.2044 14 17C14 17.7956 14.3161 18.5587 14.8787 19.1213C15.4413 19.6839 16.2044 20 17 20C17.7956 20 18.5587 19.6839 19.1213 19.1213C19.6839 18.5587 20 17.7956 20 17C20 16.2044 19.6839 15.4413 19.1213 14.8787C18.5587 14.3161 17.7956 14 17 14ZM20.9 13.85C20.9 13.6511 20.821 13.4603 20.6803 13.3197C20.5397 13.179 20.3489 13.1 20.15 13.1C19.9511 13.1 19.7603 13.179 19.6197 13.3197C19.479 13.4603 19.4 13.6511 19.4 13.85C19.4 14.0489 19.479 14.2397 19.6197 14.3803C19.7603 14.521 19.9511 14.6 20.15 14.6C20.3489 14.6 20.5397 14.521 20.6803 14.3803C20.821 14.2397 20.9 14.0489 20.9 13.85ZM17 15.2C17.4774 15.2 17.9352 15.3896 18.2728 15.7272C18.6104 16.0648 18.8 16.5226 18.8 17C18.8 17.4774 18.6104 17.9352 18.2728 18.2728C17.9352 18.6104 17.4774 18.8 17 18.8C16.5226 18.8 16.0648 18.6104 15.7272 18.2728C15.3896 17.9352 15.2 17.4774 15.2 17C15.2 16.5226 15.3896 16.0648 15.7272 15.7272C16.0648 15.3896 16.5226 15.2 17 15.2Z" fill="white"/>
</svg>
