<svg width="34" height="34" viewBox="0 0 34 34" fill="none" xmlns="http://www.w3.org/2000/svg">
<rect width="34" height="34" rx="8" fill="#2B2C2E"/>
<path d="M18.4608 20.1741C19.2048 20.0037 19.9148 19.7096 20.5612 19.3039C20.7891 19.1501 20.9483 18.9136 21.005 18.6446C21.0616 18.3755 21.0114 18.095 20.865 17.8623C20.7185 17.6296 20.4872 17.463 20.2202 17.3978C19.9531 17.3325 19.6711 17.3738 19.4338 17.5128C18.7039 17.9684 17.8607 18.21 17.0002 18.21C16.1397 18.21 15.2965 17.9684 14.5666 17.5128C14.3297 17.3634 14.0431 17.314 13.7698 17.3754C13.4965 17.4368 13.2587 17.604 13.1084 17.8404V17.8426C13.0342 17.96 12.9839 18.0909 12.9603 18.2278C12.9367 18.3647 12.9404 18.5049 12.9712 18.6404C13.0019 18.7758 13.059 18.9039 13.1394 19.0172C13.2197 19.1306 13.3216 19.2269 13.4392 19.3008L13.4409 19.303C14.0857 19.7088 14.7946 20.0024 15.5374 20.1714L13.5162 22.1923C13.3183 22.3865 13.2055 22.6513 13.2025 22.9286C13.1996 23.2059 13.3067 23.473 13.5004 23.6714L13.5184 23.6894C13.7192 23.8963 13.9904 23.9991 14.2617 23.9991C14.5329 23.9991 14.8037 23.8963 15.0041 23.6894L17.0004 21.7044L18.9849 23.692C19.4067 24.0949 20.0765 24.0857 20.4825 23.6644C20.673 23.4672 20.7795 23.2037 20.7795 22.9294C20.7795 22.6552 20.673 22.3917 20.4825 22.1944L18.4608 20.1741ZM17 17.2258C17.9579 17.2252 18.8765 16.8445 19.554 16.1673C20.2316 15.4901 20.6127 14.5717 20.6137 13.6137C20.6137 11.6223 18.9915 10 17 10C15.0085 10 13.3862 11.6223 13.3862 13.6137C13.3873 14.5719 13.7683 15.4905 14.4458 16.1681C15.1233 16.8456 16.0418 17.2268 17 17.2279V17.2258ZM17 12.1192C17.3963 12.1195 17.7763 12.277 18.0565 12.5572C18.3367 12.8375 18.4943 13.2175 18.4945 13.6137C18.4944 14.0104 18.337 14.3907 18.0568 14.6715C17.7767 14.9522 17.3966 15.1104 17 15.1113C16.6032 15.1103 16.223 14.9521 15.9425 14.6715C15.662 14.3908 15.5041 14.0105 15.5033 13.6137C15.5047 13.2172 15.6628 12.8373 15.9432 12.557C16.2236 12.2766 16.6035 12.1184 17 12.1171V12.1192Z" fill="white"/>
</svg>
