<svg width="36" height="30" viewBox="0 0 36 30" fill="none" xmlns="http://www.w3.org/2000/svg">
<rect width="36" height="30" rx="6" fill="#73A8F7"/>
<path d="M6.10156 19H7.60596L10.0879 14.7534H10.2402L13.1982 9.75781H11.7129L9.3833 13.8647H9.22461L6.10156 19ZM6.24756 9.75781L9.23096 14.7725H9.28174L11.7573 19H13.3823L10.2529 13.8521H10.1958L7.85986 9.75781H6.24756ZM21.5581 19V9.75781H20.0156L16.4038 16.1626C16.3319 16.2938 16.2578 16.4398 16.1816 16.6006C16.1097 16.7614 16.0505 16.901 16.0039 17.0195H15.9531C15.9616 16.8841 15.9658 16.7233 15.9658 16.5371C15.9701 16.3467 15.9722 16.1838 15.9722 16.0483V9.75781H14.5439V19H16.0864L19.7046 12.5571C19.7808 12.4217 19.8527 12.2842 19.9204 12.1445C19.9881 12.0007 20.0495 11.8674 20.1045 11.7446H20.1553C20.1468 11.8843 20.1405 12.0387 20.1362 12.208C20.132 12.373 20.1299 12.5254 20.1299 12.665V19H21.5581ZM22.7705 10.9067H25.5127V19H26.9473V10.9067H29.6958V9.75781H22.7705V10.9067Z" fill="white"/>
</svg>
