<svg width="14" height="14" viewBox="0 0 14 14" fill="none" xmlns="http://www.w3.org/2000/svg">
<path d="M12.4688 2.625H4.48438C4.42422 2.625 4.375 2.67422 4.375 2.73438V3.5C4.375 3.56016 4.42422 3.60938 4.48438 3.60938H12.4688C12.5289 3.60938 12.5781 3.56016 12.5781 3.5V2.73438C12.5781 2.67422 12.5289 2.625 12.4688 2.625ZM12.4688 6.50781H4.48438C4.42422 6.50781 4.375 6.55703 4.375 6.61719V7.38281C4.375 7.44297 4.42422 7.49219 4.48438 7.49219H12.4688C12.5289 7.49219 12.5781 7.44297 12.5781 7.38281V6.61719C12.5781 6.55703 12.5289 6.50781 12.4688 6.50781ZM12.4688 10.3906H4.48438C4.42422 10.3906 4.375 10.4398 4.375 10.5V11.2656C4.375 11.3258 4.42422 11.375 4.48438 11.375H12.4688C12.5289 11.375 12.5781 11.3258 12.5781 11.2656V10.5C12.5781 10.4398 12.5289 10.3906 12.4688 10.3906ZM1.42188 3.11719C1.42187 3.21773 1.44168 3.31729 1.48015 3.41018C1.51863 3.50307 1.57503 3.58747 1.64612 3.65857C1.71722 3.72966 1.80162 3.78606 1.89451 3.82453C1.9874 3.86301 2.08696 3.88281 2.1875 3.88281C2.28804 3.88281 2.3876 3.86301 2.48049 3.82453C2.57338 3.78606 2.65778 3.72966 2.72888 3.65857C2.79997 3.58747 2.85637 3.50307 2.89485 3.41018C2.93332 3.31729 2.95312 3.21773 2.95312 3.11719C2.95312 3.01664 2.93332 2.91709 2.89485 2.8242C2.85637 2.73131 2.79997 2.6469 2.72888 2.57581C2.65778 2.50471 2.57338 2.44832 2.48049 2.40984C2.3876 2.37137 2.28804 2.35156 2.1875 2.35156C2.08696 2.35156 1.9874 2.37137 1.89451 2.40984C1.80162 2.44832 1.71722 2.50471 1.64612 2.57581C1.57503 2.6469 1.51863 2.73131 1.48015 2.8242C1.44168 2.91709 1.42187 3.01664 1.42188 3.11719ZM1.42188 7C1.42187 7.10054 1.44168 7.2001 1.48015 7.29299C1.51863 7.38588 1.57503 7.47028 1.64612 7.54138C1.71722 7.61247 1.80162 7.66887 1.89451 7.70735C1.9874 7.74582 2.08696 7.76562 2.1875 7.76562C2.28804 7.76562 2.3876 7.74582 2.48049 7.70735C2.57338 7.66887 2.65778 7.61247 2.72888 7.54138C2.79997 7.47028 2.85637 7.38588 2.89485 7.29299C2.93332 7.2001 2.95312 7.10054 2.95312 7C2.95312 6.89946 2.93332 6.7999 2.89485 6.70701C2.85637 6.61412 2.79997 6.52972 2.72888 6.45862C2.65778 6.38753 2.57338 6.33113 2.48049 6.29265C2.3876 6.25418 2.28804 6.23438 2.1875 6.23438C2.08696 6.23438 1.9874 6.25418 1.89451 6.29265C1.80162 6.33113 1.71722 6.38753 1.64612 6.45862C1.57503 6.52972 1.51863 6.61412 1.48015 6.70701C1.44168 6.7999 1.42187 6.89946 1.42188 7ZM1.42188 10.8828C1.42187 10.9834 1.44168 11.0829 1.48015 11.1758C1.51863 11.2687 1.57503 11.3531 1.64612 11.4242C1.71722 11.4953 1.80162 11.5517 1.89451 11.5902C1.9874 11.6286 2.08696 11.6484 2.1875 11.6484C2.28804 11.6484 2.3876 11.6286 2.48049 11.5902C2.57338 11.5517 2.65778 11.4953 2.72888 11.4242C2.79997 11.3531 2.85637 11.2687 2.89485 11.1758C2.93332 11.0829 2.95312 10.9834 2.95312 10.8828C2.95312 10.7823 2.93332 10.6827 2.89485 10.5898C2.85637 10.4969 2.79997 10.4125 2.72888 10.3414C2.65778 10.2703 2.57338 10.2139 2.48049 10.1755C2.3876 10.137 2.28804 10.1172 2.1875 10.1172C2.08696 10.1172 1.9874 10.137 1.89451 10.1755C1.80162 10.2139 1.71722 10.2703 1.64612 10.3414C1.57503 10.4125 1.51863 10.4969 1.48015 10.5898C1.44168 10.6827 1.42187 10.7823 1.42188 10.8828Z" fill="white"/>
</svg>
