<svg width="109" height="47" viewBox="0 0 109 47" fill="none" xmlns="http://www.w3.org/2000/svg">
<path fill-rule="evenodd" clip-rule="evenodd" d="M58.2455 4.47722C69.027 4.62981 79.4372 5.31601 88.8237 7.69179C88.2942 7.52122 87.7537 7.35049 87.1893 7.17942C78.2524 4.44603 68.0055 2.81439 57.1063 2.66013C43.3151 2.46494 30.5222 4.66153 20.0191 8.54496C31.5383 5.76074 44.5197 4.28295 58.2455 4.47722Z" fill="#D6A119"/>
<path fill-rule="evenodd" clip-rule="evenodd" d="M98.9863 33.1135C96.6803 33.1135 94.6599 32.6856 92.9251 31.83C91.081 30.9209 89.8734 29.6814 89.3023 28.1113L92.7786 24.8308L94.2188 26.1143C94.0609 26.3846 93.9415 26.6737 93.8637 26.9739C93.7908 27.2236 93.7483 27.4804 93.737 27.7392C93.737 28.5093 94.3379 29.1264 95.5447 29.5832C96.6447 29.9884 97.8163 30.1899 98.9962 30.1767C100.112 30.2056 101.219 29.9803 102.224 29.5197C103.275 29.0015 103.801 28.2731 103.801 27.3342C103.801 26.0436 102.791 25.0443 100.772 24.3362C100.068 24.0866 98.8828 23.7427 97.2158 23.3047C94.3156 22.5778 92.3606 21.7142 91.3508 20.7141C90.4519 19.8428 90.0025 18.7194 90.0025 17.3441C89.9942 15.2591 91.0263 13.5885 93.0989 12.3325C94.9558 11.2238 97.1126 10.651 99.3066 10.684C101.109 10.6497 102.897 10.9906 104.546 11.6825C105.949 12.2576 107.141 13.2129 107.973 14.4285L104.705 17.3935L103.299 16.428C103.401 16.2124 103.453 15.9787 103.451 15.7426C103.451 15.0973 102.974 14.5863 102.021 14.2024C101.166 13.8395 100.243 13.644 99.3066 13.6278C98.3438 13.5957 97.3865 13.7771 96.5106 14.1577C95.5025 14.6381 94.9984 15.3446 94.9984 16.2772C94.9984 17.0057 95.6341 17.6196 96.9055 18.1189C97.3003 18.2625 98.738 18.6817 101.221 19.3647C104.267 20.1764 106.363 21.1969 107.508 22.4263C108.504 23.5042 109.036 24.8981 108.998 26.3309C108.998 28.686 107.968 30.4405 105.899 31.6109C104.144 32.6126 101.84 33.1135 98.9863 33.1135Z" fill="#D6A119"/>
<path fill-rule="evenodd" clip-rule="evenodd" d="M23.0303 21.7821C23.0303 25.1678 22.0198 27.893 19.9987 29.9577C17.9777 32.0223 15.1517 33.0554 11.521 33.057C7.96439 33.057 5.15857 32.0137 3.10349 29.9271C1.04841 27.8406 0.013917 25.1256 0 21.7821C0 18.4386 1.02058 15.7549 3.06174 13.7309C5.1029 11.707 7.91877 10.695 11.5094 10.695C15.0999 10.695 17.9313 11.7227 20.0034 13.7779C22.0213 15.7721 23.0303 18.4402 23.0303 21.7821ZM17.6352 21.7821C17.6352 19.2494 17.1852 17.2983 16.2852 15.9286C15.26 14.3931 13.6719 13.6261 11.521 13.6276C9.37001 13.6292 7.7827 14.3962 6.75902 15.9286C5.85442 17.3014 5.40212 19.2526 5.40212 21.7821C5.40212 24.3116 5.85287 26.2831 6.75438 27.6966C7.77651 29.3167 9.36382 30.1252 11.5163 30.122C13.6688 30.1189 15.2569 29.3409 16.2806 27.7882C17.1759 26.4013 17.6236 24.3993 17.6236 21.7821H17.6352Z" fill="#D6A119"/>
<path fill-rule="evenodd" clip-rule="evenodd" d="M44.4053 32.4981H38.5602L32.1583 23.6557H30.4048V29.7275C30.402 29.9151 30.439 30.1011 30.5135 30.2728C30.5879 30.4446 30.698 30.5982 30.8362 30.7231C31.1002 30.9827 31.4539 31.1277 31.822 31.1269V32.4958H24.0679V31.1363C24.4353 31.1372 24.7884 30.9922 25.0514 30.7325C25.1896 30.6075 25.2997 30.454 25.3741 30.2822C25.4486 30.1104 25.4856 29.9245 25.4828 29.7369V14.0291C25.4861 13.8411 25.4493 13.6547 25.3748 13.4824C25.3004 13.3102 25.19 13.1563 25.0514 13.0312C24.7884 12.7715 24.4353 12.6265 24.0679 12.6274V11.2632H36.2894C38.1774 11.2632 39.7918 11.7939 41.1348 12.8669C41.7744 13.3515 42.2902 13.9839 42.6392 14.7113C42.9882 15.4387 43.1603 16.2401 43.1412 17.0486C43.1578 17.8123 43.0098 18.5706 42.7073 19.2705C42.4049 19.9704 41.9553 20.5951 41.39 21.1011C40.3199 22.0998 38.9545 22.7126 37.2937 22.9396L42.4662 29.6665C42.8165 30.1361 43.0391 30.4061 43.1412 30.5071C43.2969 30.6949 43.4899 30.8473 43.7077 30.9545C43.9255 31.0618 44.1632 31.1213 44.4053 31.1293V32.4981ZM30.4048 14.0526V20.8617H34.2227C35.1938 20.8739 36.1317 20.5044 36.8391 19.8309C37.1909 19.5207 37.4721 19.1369 37.6631 18.706C37.8541 18.2751 37.9505 17.8073 37.9455 17.335C37.9676 16.4784 37.6647 15.6457 37.0989 15.0082C36.8274 14.7005 36.4924 14.4568 36.1177 14.2946C35.7429 14.1323 35.3375 14.0553 34.9301 14.069L30.4048 14.0526Z" fill="#D6A119"/>
<path fill-rule="evenodd" clip-rule="evenodd" d="M88.1789 21.7821C88.1789 25.1678 87.1684 27.893 85.1474 29.9577C83.1263 32.0223 80.3004 33.0554 76.6696 33.057C73.113 33.057 70.308 32.0137 68.2544 29.9271C66.2009 27.8406 65.1695 25.1256 65.1602 21.7821C65.1602 18.4386 66.1808 15.7549 68.222 13.7309C70.2631 11.707 73.079 10.695 76.6696 10.695C80.2602 10.695 83.0915 11.7227 85.1636 13.7779C87.1769 15.7721 88.182 18.4402 88.1789 21.7821ZM82.7861 21.7821C82.7861 19.2494 82.3346 17.2983 81.4315 15.9286C80.4078 14.3931 78.8205 13.6261 76.6696 13.6276C74.5186 13.6292 72.9313 14.3962 71.9077 15.9286C71.0061 17.2983 70.5554 19.2494 70.5554 21.7821C70.5554 24.3147 71.0061 26.2862 71.9077 27.6966C72.9313 29.3167 74.5186 30.1251 76.6696 30.122C78.8205 30.1189 80.4078 29.3409 81.4315 27.7882C82.3346 26.4013 82.7861 24.3993 82.7861 21.7821Z" fill="#D6A119"/>
<path fill-rule="evenodd" clip-rule="evenodd" d="M45.5049 11.8173V16.701H47.2394C47.2309 16.1412 47.428 15.5993 47.7898 15.1872C47.9474 14.9881 48.1447 14.8275 48.3679 14.7169C48.5911 14.6063 48.8348 14.5482 49.0817 14.5469H52.1163L51.746 30.3377C51.7496 30.5257 51.7143 30.7122 51.6426 30.8845C51.5708 31.0568 51.4643 31.2108 51.3304 31.3359C51.0747 31.5963 50.6185 31.7416 50.2619 31.7408V33.1136H53.2976L54.4997 19.9901L55.7699 33.1136H58.7538V31.7502C58.397 31.753 57.94 31.6074 57.6854 31.3453C57.547 31.221 57.4364 31.0663 57.3615 30.8921C57.2866 30.718 57.2491 30.5287 57.2518 30.3377L56.8816 14.5469H59.9162C60.1673 14.5445 60.4156 14.6021 60.6422 14.7156C60.8688 14.829 61.0677 14.9952 61.2237 15.2014C61.5727 15.615 61.7639 16.1489 61.7607 16.701H63.4952V11.8173H45.5049Z" fill="#D6A119"/>
<path d="M50.441 5.35311C50.4406 4.50584 50.6808 3.67748 51.131 2.97284C51.5813 2.2682 52.2215 1.71893 52.9706 1.39452C53.7196 1.0701 54.544 0.98512 55.3393 1.15032C56.1346 1.31552 56.8652 1.72348 57.4385 2.32259C58.0119 2.92171 58.4023 3.68505 58.5604 4.51606C58.7185 5.34708 58.6372 6.20842 58.3267 6.99112C58.0163 7.77383 57.4906 8.44273 56.8162 8.91321C56.1418 9.38369 55.3491 9.63461 54.5382 9.63423C54.0001 9.63448 53.4672 9.52392 52.97 9.30887C52.4728 9.09381 52.021 8.77847 51.6405 8.38088C51.26 7.9833 50.9582 7.51125 50.7524 6.99172C50.5466 6.4722 50.4408 5.91539 50.441 5.35311Z" fill="#D6A119"/>
<path d="M7.69743 43.8437C7.69743 44.2923 7.62269 44.6799 7.47323 45.0066C7.32376 45.3333 7.11873 45.5853 6.85812 45.7625C6.59752 45.9397 6.29987 46.0283 5.96517 46.0283C5.63047 46.0283 5.33282 45.9397 5.07221 45.7625C4.81161 45.5853 4.60657 45.3333 4.45711 45.0066C4.30764 44.6799 4.23291 44.2923 4.23291 43.8437C4.23291 43.3952 4.30764 43.0076 4.45711 42.6808C4.60657 42.3541 4.81161 42.1022 5.07221 41.925C5.33282 41.7478 5.63047 41.6592 5.96517 41.6592C6.29987 41.6592 6.59752 41.7478 6.85812 41.925C7.11873 42.1022 7.32376 42.3541 7.47323 42.6808C7.62269 43.0076 7.69743 43.3952 7.69743 43.8437ZM7.23753 43.8437C7.23753 43.4755 7.18069 43.1647 7.06699 42.9113C6.95457 42.658 6.80191 42.4663 6.60902 42.3361C6.41739 42.206 6.20278 42.1409 5.96517 42.1409C5.72756 42.1409 5.5123 42.206 5.3194 42.3361C5.12778 42.4663 4.97512 42.658 4.86143 42.9113C4.74901 43.1647 4.6928 43.4755 4.6928 43.8437C4.6928 44.212 4.74901 44.5228 4.86143 44.7761C4.97512 45.0294 5.12778 45.2212 5.3194 45.3513C5.5123 45.4814 5.72756 45.5465 5.96517 45.5465C6.20278 45.5465 6.41739 45.4814 6.60902 45.3513C6.80191 45.2212 6.95457 45.0294 7.06699 44.7761C7.18069 44.5228 7.23753 44.212 7.23753 43.8437Z" fill="#503D06"/>
<path d="M9.68362 45.9701V41.7173H11.0096C11.3175 41.7173 11.5692 41.7775 11.7646 41.898C11.9614 42.017 12.107 42.1783 12.2015 42.3818C12.2961 42.5853 12.3433 42.8124 12.3433 43.0629C12.3433 43.3135 12.2961 43.5412 12.2015 43.7461C12.1083 43.951 11.9639 44.1144 11.7685 44.2362C11.573 44.3566 11.3226 44.4168 11.0173 44.4168H10.0669V43.96H11.002C11.2128 43.96 11.382 43.9206 11.5098 43.8416C11.6375 43.7627 11.7301 43.6561 11.7876 43.5219C11.8464 43.3862 11.8758 43.2332 11.8758 43.0629C11.8758 42.8927 11.8464 42.7404 11.7876 42.6061C11.7301 42.4718 11.6369 42.3666 11.5079 42.2905C11.3788 42.2129 11.2076 42.1742 10.9943 42.1742H10.1588V45.9701H9.68362Z" fill="#503D06"/>
<path d="M14.0814 42.1742V41.7173H17.0247V42.1742H15.7906V45.9701H15.3154V42.1742H14.0814Z" fill="#503D06"/>
<path d="M22.0931 43.8437C22.0931 44.2923 22.0184 44.6799 21.8689 45.0066C21.7194 45.3333 21.5144 45.5853 21.2538 45.7625C20.9932 45.9397 20.6955 46.0283 20.3608 46.0283C20.0261 46.0283 19.7285 45.9397 19.4679 45.7625C19.2073 45.5853 19.0022 45.3333 18.8528 45.0066C18.7033 44.6799 18.6286 44.2923 18.6286 43.8437C18.6286 43.3952 18.7033 43.0076 18.8528 42.6808C19.0022 42.3541 19.2073 42.1022 19.4679 41.925C19.7285 41.7478 20.0261 41.6592 20.3608 41.6592C20.6955 41.6592 20.9932 41.7478 21.2538 41.925C21.5144 42.1022 21.7194 42.3541 21.8689 42.6808C22.0184 43.0076 22.0931 43.3952 22.0931 43.8437ZM21.6332 43.8437C21.6332 43.4755 21.5764 43.1647 21.4627 42.9113C21.3502 42.658 21.1976 42.4663 21.0047 42.3361C20.8131 42.206 20.5985 42.1409 20.3608 42.1409C20.1232 42.1409 19.908 42.206 19.7151 42.3361C19.5235 42.4663 19.3708 42.658 19.2571 42.9113C19.1447 43.1647 19.0885 43.4755 19.0885 43.8437C19.0885 44.212 19.1447 44.5228 19.2571 44.7761C19.3708 45.0294 19.5235 45.2212 19.7151 45.3513C19.908 45.4814 20.1232 45.5465 20.3608 45.5465C20.5985 45.5465 20.8131 45.4814 21.0047 45.3513C21.1976 45.2212 21.3502 45.0294 21.4627 44.7761C21.5764 44.5228 21.6332 44.212 21.6332 43.8437Z" fill="#503D06"/>
<path d="M27.0149 41.7173V45.9701H26.5397V42.1742H24.5622V45.9701H24.087V41.7173H27.0149Z" fill="#503D06"/>
<path d="M29.1607 45.9701V41.7173H31.5291V42.1742H29.6359V43.6111H31.4065V44.068H29.6359V45.5133H31.5598V45.9701H29.1607Z" fill="#503D06"/>
<path d="M33.2355 47.0001V45.5133H33.4885C33.5753 45.4274 33.6571 45.3063 33.7337 45.1499C33.8117 44.9921 33.8775 44.7816 33.9311 44.5186C33.986 44.2542 34.0224 43.9185 34.0403 43.5115L34.1246 41.7173H36.4548V45.5133H36.907V46.9918H36.4548V45.9701H33.6877V47.0001H33.2355ZM34.0557 45.5133H36.0025V42.1742H34.5539L34.4926 43.5115C34.4772 43.8216 34.4504 44.1026 34.4121 44.3546C34.3738 44.6051 34.3246 44.8273 34.2645 45.0211C34.2045 45.2136 34.1349 45.3776 34.0557 45.5133Z" fill="#503D06"/>
<path d="M38.8122 41.7173H39.2798V45.0647H39.3181L41.4643 41.7173H41.9242V45.9701H41.4489V42.631H41.4106L39.2721 45.9701H38.8122V41.7173Z" fill="#503D06"/>
<path d="M44.1005 41.7173H44.5758V43.1377C44.5758 43.3481 44.6096 43.5135 44.6773 43.634C44.745 43.753 44.8408 43.8375 44.9647 43.8873C45.0887 43.9358 45.2349 43.96 45.4036 43.96C45.5096 43.96 45.6124 43.9559 45.7121 43.9475C45.8117 43.9379 45.9088 43.9247 46.0033 43.9081C46.0991 43.8915 46.1924 43.8714 46.2831 43.8479C46.3751 43.8243 46.4651 43.798 46.5533 43.769V44.2341C46.4677 44.2632 46.3827 44.2895 46.2984 44.313C46.2154 44.3366 46.1285 44.3566 46.0378 44.3732C45.9484 44.3899 45.852 44.403 45.7485 44.4127C45.645 44.421 45.53 44.4252 45.4036 44.4252C45.1327 44.4252 44.8996 44.3829 44.7041 44.2985C44.51 44.214 44.3605 44.0777 44.2557 43.8894C44.1523 43.7011 44.1005 43.4506 44.1005 43.1377V41.7173ZM46.492 41.7173H46.9672V45.9701H46.492V41.7173Z" fill="#503D06"/>
<path d="M49.1067 45.9701V41.7173H51.4751V42.1742H49.5819V43.6111H51.3525V44.068H49.5819V45.5133H51.5058V45.9701H49.1067Z" fill="#503D06"/>
<path d="M56.6767 43.0463H56.2015C56.1734 42.8982 56.1242 42.7681 56.054 42.6559C55.985 42.5438 55.9007 42.4497 55.801 42.3735C55.7026 42.296 55.5934 42.2378 55.4733 42.1991C55.3533 42.1603 55.2281 42.1409 55.0978 42.1409C54.8601 42.1409 54.6449 42.206 54.452 42.3361C54.2604 42.4663 54.1077 42.658 53.994 42.9113C53.8816 43.1647 53.8254 43.4755 53.8254 43.8437C53.8254 44.212 53.8816 44.5228 53.994 44.7761C54.1077 45.0294 54.2604 45.2212 54.452 45.3513C54.6449 45.4814 54.8601 45.5465 55.0978 45.5465C55.2281 45.5465 55.3533 45.5271 55.4733 45.4884C55.5934 45.4496 55.7026 45.3921 55.801 45.316C55.9007 45.2385 55.985 45.1436 56.054 45.0315C56.1242 44.918 56.1734 44.7879 56.2015 44.6411H56.6767C56.641 44.8585 56.5758 45.053 56.4813 45.2246C56.3867 45.3963 56.2692 45.5423 56.1287 45.6628C55.9882 45.7818 55.8304 45.8725 55.6554 45.9348C55.4816 45.9971 55.2958 46.0283 55.0978 46.0283C54.7631 46.0283 54.4654 45.9397 54.2048 45.7625C53.9442 45.5853 53.7392 45.3333 53.5897 45.0066C53.4402 44.6799 53.3655 44.2923 53.3655 43.8437C53.3655 43.3952 53.4402 43.0076 53.5897 42.6808C53.7392 42.3541 53.9442 42.1022 54.2048 41.925C54.4654 41.7478 54.7631 41.6592 55.0978 41.6592C55.2958 41.6592 55.4816 41.6903 55.6554 41.7526C55.8304 41.8149 55.9882 41.9063 56.1287 42.0267C56.2692 42.1458 56.3867 42.2911 56.4813 42.4628C56.5758 42.6331 56.641 42.8276 56.6767 43.0463Z" fill="#503D06"/>
<path d="M60.9389 45.9701L59.5899 44.0182H59.107V45.9701H58.6318V41.7173H59.107V43.5613H59.3139L60.8852 41.7173H61.4524L59.8658 43.5862L61.5061 45.9701H60.9389Z" fill="#503D06"/>
<path d="M63.3074 41.7173H63.7749V45.0647H63.8133L65.9594 41.7173H66.4193V45.9701H65.9441V42.631H65.9058L63.7673 45.9701H63.3074V41.7173Z" fill="#503D06"/>
<path d="M68.5574 45.9701V41.7173H70.9258V42.1742H69.0326V43.6111H70.8032V44.068H69.0326V45.5133H70.9565V45.9701H68.5574Z" fill="#503D06"/>
<path d="M78.8322 43.0463H78.357C78.3289 42.8982 78.2797 42.7681 78.2094 42.6559C78.1404 42.5438 78.0561 42.4497 77.9565 42.3735C77.8581 42.296 77.7489 42.2378 77.6288 42.1991C77.5087 42.1603 77.3835 42.1409 77.2532 42.1409C77.0156 42.1409 76.8004 42.206 76.6075 42.3361C76.4158 42.4663 76.2632 42.658 76.1495 42.9113C76.0371 43.1647 75.9809 43.4755 75.9809 43.8437C75.9809 44.212 76.0371 44.5228 76.1495 44.7761C76.2632 45.0294 76.4158 45.2212 76.6075 45.3513C76.8004 45.4814 77.0156 45.5465 77.2532 45.5465C77.3835 45.5465 77.5087 45.5271 77.6288 45.4884C77.7489 45.4496 77.8581 45.3921 77.9565 45.316C78.0561 45.2385 78.1404 45.1436 78.2094 45.0315C78.2797 44.918 78.3289 44.7879 78.357 44.6411H78.8322C78.7964 44.8585 78.7313 45.053 78.6367 45.2246C78.5422 45.3963 78.4247 45.5423 78.2841 45.6628C78.1436 45.7818 77.9858 45.8725 77.8108 45.9348C77.6371 45.9971 77.4512 46.0283 77.2532 46.0283C76.9185 46.0283 76.6209 45.9397 76.3603 45.7625C76.0997 45.5853 75.8946 45.3333 75.7452 45.0066C75.5957 44.6799 75.521 44.2923 75.521 43.8437C75.521 43.3952 75.5957 43.0076 75.7452 42.6808C75.8946 42.3541 76.0997 42.1022 76.3603 41.925C76.6209 41.7478 76.9185 41.6592 77.2532 41.6592C77.4512 41.6592 77.6371 41.6903 77.8108 41.7526C77.9858 41.8149 78.1436 41.9063 78.2841 42.0267C78.4247 42.1458 78.5422 42.2911 78.6367 42.4628C78.7313 42.6331 78.7964 42.8276 78.8322 43.0463Z" fill="#503D06"/>
<path d="M80.9482 45.9701H80.45L81.891 41.7173H82.3815L83.8225 45.9701H83.3243L82.1516 42.3901H82.1209L80.9482 45.9701ZM81.1321 44.3089H83.1403V44.7657H81.1321V44.3089Z" fill="#503D06"/>
<path d="M85.2837 45.9701V45.4967H85.3986C85.5622 45.4967 85.6893 45.4399 85.78 45.3264C85.8707 45.2129 85.9358 45.0294 85.9754 44.7761C86.0163 44.5228 86.0438 44.187 86.0578 43.769L86.1268 41.7173H88.5182V45.9701H88.043V42.1742H86.579L86.5177 43.8686C86.5024 44.3144 86.4647 44.6937 86.4046 45.0066C86.3446 45.3195 86.2392 45.5583 86.0885 45.723C85.9377 45.8877 85.718 45.9701 85.4293 45.9701H85.2837Z" fill="#503D06"/>
<path d="M93.9661 43.8437C93.9661 44.2923 93.8913 44.6799 93.7419 45.0066C93.5924 45.3333 93.3874 45.5853 93.1268 45.7625C92.8662 45.9397 92.5685 46.0283 92.2338 46.0283C91.8991 46.0283 91.6015 45.9397 91.3409 45.7625C91.0803 45.5853 90.8752 45.3333 90.7257 45.0066C90.5763 44.6799 90.5016 44.2923 90.5016 43.8437C90.5016 43.3952 90.5763 43.0076 90.7257 42.6808C90.8752 42.3541 91.0803 42.1022 91.3409 41.925C91.6015 41.7478 91.8991 41.6592 92.2338 41.6592C92.5685 41.6592 92.8662 41.7478 93.1268 41.925C93.3874 42.1022 93.5924 42.3541 93.7419 42.6808C93.8913 43.0076 93.9661 43.3952 93.9661 43.8437ZM93.5062 43.8437C93.5062 43.4755 93.4493 43.1647 93.3356 42.9113C93.2232 42.658 93.0706 42.4663 92.8777 42.3361C92.686 42.206 92.4714 42.1409 92.2338 42.1409C91.9962 42.1409 91.781 42.206 91.5881 42.3361C91.3964 42.4663 91.2438 42.658 91.1301 42.9113C91.0177 43.1647 90.9614 43.4755 90.9614 43.8437C90.9614 44.212 91.0177 44.5228 91.1301 44.7761C91.2438 45.0294 91.3964 45.2212 91.5881 45.3513C91.781 45.4814 91.9962 45.5465 92.2338 45.5465C92.4714 45.5465 92.686 45.4814 92.8777 45.3513C93.0706 45.2212 93.2232 45.0294 93.3356 44.7761C93.4493 44.5228 93.5062 44.212 93.5062 43.8437Z" fill="#503D06"/>
<path d="M95.9523 45.9701V41.7173H96.4275V43.6111H98.52V41.7173H98.9952V45.9701H98.52V44.068H96.4275V45.9701H95.9523Z" fill="#503D06"/>
<path d="M101.486 43.5032H102.605C102.886 43.5032 103.123 43.553 103.316 43.6527C103.51 43.7524 103.657 43.8929 103.757 44.0742C103.858 44.2556 103.908 44.4695 103.908 44.7159C103.908 44.9623 103.858 45.1796 103.757 45.3679C103.657 45.5562 103.51 45.7036 103.316 45.8102C103.123 45.9168 102.886 45.9701 102.605 45.9701H101.134V41.7173H101.609V45.5216H102.605C102.784 45.5216 102.936 45.4828 103.06 45.4053C103.185 45.3264 103.279 45.2253 103.343 45.1021C103.408 44.9775 103.441 44.846 103.441 44.7076C103.441 44.5041 103.369 44.3289 103.224 44.1822C103.08 44.0341 102.874 43.96 102.605 43.96H101.486V43.5032ZM104.767 41.7173V45.9701H104.292V41.7173H104.767Z" fill="#503D06"/>
</svg>
