<svg width="668" height="612" viewBox="0 0 668 612" fill="none" xmlns="http://www.w3.org/2000/svg">
<rect width="668" height="612" fill="white"/>
<path d="M338 227H311" stroke="#2B2C2E"/>
<path d="M314.5 179L301.5 197H210" stroke="#2B2C2E"/>
<path d="M320 178.5C320 181.538 317.538 184 314.5 184C311.462 184 309 181.538 309 178.5C309 175.462 311.462 173 314.5 173C317.538 173 320 175.462 320 178.5Z" fill="#2B2C2E"/>
<path opacity="0.7" fill-rule="evenodd" clip-rule="evenodd" d="M314.5 185.561C318.4 185.561 321.561 182.4 321.561 178.5C321.561 174.6 318.4 171.439 314.5 171.439C310.6 171.439 307.439 174.6 307.439 178.5C307.439 182.4 310.6 185.561 314.5 185.561ZM314.5 186C318.642 186 322 182.642 322 178.5C322 174.358 318.642 171 314.5 171C310.358 171 307 174.358 307 178.5C307 182.642 310.358 186 314.5 186Z" fill="#2B2C2E"/>
<path d="M317 178.5C317 179.881 315.881 181 314.5 181C313.119 181 312 179.881 312 178.5C312 177.119 313.119 176 314.5 176C315.881 176 317 177.119 317 178.5Z" fill="#F5F5F5"/>
<path d="M344 227.5C344 230.538 341.538 233 338.5 233C335.462 233 333 230.538 333 227.5C333 224.462 335.462 222 338.5 222C341.538 222 344 224.462 344 227.5Z" fill="#2B2C2E"/>
<path opacity="0.7" fill-rule="evenodd" clip-rule="evenodd" d="M338.5 234.561C342.4 234.561 345.561 231.4 345.561 227.5C345.561 223.6 342.4 220.439 338.5 220.439C334.6 220.439 331.439 223.6 331.439 227.5C331.439 231.4 334.6 234.561 338.5 234.561ZM338.5 235C342.642 235 346 231.642 346 227.5C346 223.358 342.642 220 338.5 220C334.358 220 331 223.358 331 227.5C331 231.642 334.358 235 338.5 235Z" fill="#2B2C2E"/>
<path d="M341 227.5C341 228.881 339.881 230 338.5 230C337.119 230 336 228.881 336 227.5C336 226.119 337.119 225 338.5 225C339.881 225 341 226.119 341 227.5Z" fill="#F5F5F5"/>
<path opacity="0.6" d="M357.801 88.6951L333.657 76C328.415 93.897 322.855 94.7372 323.003 95.1306C323.15 95.524 326.415 97.3563 327.103 97.8483C327.791 98.3393 336.292 100.404 336.93 100.552C337.569 100.699 352.163 102.419 355.356 103.009C358.55 103.599 362.137 105.123 364.053 105.81C365.586 106.362 369.311 105.581 370.982 105.123C371.031 104.959 371.011 104.532 370.539 104.14C369.95 103.648 368.476 100.65 368.132 99.2741C367.856 98.1723 367.723 94.8831 367.689 93.3758L366.363 92.7369L357.801 88.6951Z" fill="url(#paint0_linear_413_12651)"/>
<path opacity="0.6" d="M327.45 98.5698C326.638 97.7657 320.901 93.5337 318.235 91.6229C313.591 88.325 302.132 87.6622 293.829 88.1374C285.135 88.6337 278.71 92.2212 275.262 93.9917C270.442 100.077 269.264 101.011 265.843 107.162C261.568 114.85 259.531 115.53 260.091 121.95C260.774 129.777 266.599 129.777 269.634 129.777C272.668 129.777 287.205 130.279 290.847 129.777C292.35 129.57 293.605 124.466 296.364 120.971C299.122 117.475 313.742 115.938 318.431 116.078C323.12 116.217 328.785 110.438 329.74 106.852C330.784 102.935 328.409 99.5191 327.45 98.5698Z" fill="url(#paint1_linear_413_12651)"/>
<path opacity="0.6" d="M224.258 103.323C225.727 94.3884 232.895 91.9372 237.147 92.0012C245.154 93.305 241.618 92.2094 248.881 92.2094H253.547H255.33C257.758 92.2094 253.245 96.5248 247.308 108.316C243.025 116.824 244.678 123.141 241.897 122.882C238.057 122.523 234.266 123.691 228.873 122.289C222.145 120.539 222.116 116.351 224.258 103.323Z" fill="url(#paint2_linear_413_12651)"/>
<path d="M366 449L295 449" stroke="#2B2C2E"/>
<path d="M353 524L286 524" stroke="#2B2C2E"/>
<path d="M340 594L290 594" stroke="#2B2C2E"/>
<path d="M431 578L370 578" stroke="#2B2C2E"/>
<path d="M281 106L224.5 60H218" stroke="#2B2C2E"/>
<path d="M234 109.5L204 155H174" stroke="#2B2C2E"/>
<path d="M345 98L338.294 71H307" stroke="#2B2C2E"/>
<path opacity="0.6" d="M163.891 92.2258C163.578 87.2191 160.607 84.0102 159.161 83.0325C157.7 83.0325 154.552 82.9718 153.649 82.7296C152.521 82.4276 149.57 75.2629 148.918 73.6227C148.267 71.9826 146.619 67.4936 144.97 64.0837C143.32 60.6739 142.278 61.2781 141.237 60.4149C140.195 59.5517 135.943 54.8469 135.336 54.2857C134.727 53.7247 129.433 48.7609 127.133 48.1134C124.833 47.4661 123.574 49.6674 123.792 52.7319C124.008 55.7964 125.831 56.7892 126.525 57.8251C127.22 58.861 129.52 59.7674 130.822 61.2781C132.123 62.7888 133.469 64.8175 134.077 65.8966C134.684 66.9757 133.773 68.9611 133.469 70.6876C133.165 72.4141 131.646 73.3637 129.997 74.8312C128.348 76.2988 126.439 76.5146 125.05 76.8167C123.662 77.1189 120.406 76.7735 119.235 76.5146C118.063 76.2556 115.112 75.0903 113.984 74.4859C113.081 74.0025 105.957 71.4564 101.126 67.2029C101.3 66.6562 100.044 65.2383 97.9268 63.6499C95.2796 61.6645 91.2517 61.2803 92.1204 65.2513C92.9881 69.2222 96.4159 72.3033 96.8497 72.9076C97.2836 73.5119 98.1433 74.0975 98.3607 74.4859C98.5781 74.8744 97.8828 75.4787 97.9268 76.5146C97.9699 77.5506 98.4038 78.1548 98.8817 78.9317C99.3587 79.7086 98.5781 80.7873 98.8817 81.6075C99.1853 82.4276 100.444 83.6365 103.568 86.5285C106.693 89.4205 107.864 89.852 109.687 90.6293C111.51 91.4057 111.163 91.1465 111.163 91.4485C111.163 91.7515 109.992 96.801 110.208 97.6212C110.426 98.4414 111.9 99.9522 112.334 100.384C112.768 100.815 119.582 100.082 120.406 99.9522C121.231 99.8226 123.922 99.2616 125.05 100.858C126.179 102.456 128.044 103.664 129.172 104.009C130.301 104.355 131.82 104.009 133.296 103.664C134.771 103.319 138.199 102.8 141.107 102.456C144.015 102.11 148.397 102.067 149.049 102.024C149.7 101.981 151.305 102.498 152.477 103.189C153.414 103.742 155.211 104.599 155.992 104.959C156.513 105.102 158.171 104.95 160.636 103.189C163.717 100.988 164.282 98.4842 163.891 92.2258Z" fill="url(#paint3_linear_413_12651)"/>
<path d="M118.5 84.5L156 13H189" stroke="#2B2C2E"/>
<path d="M350 97.5C350 100.538 347.538 103 344.5 103C341.462 103 339 100.538 339 97.5C339 94.4624 341.462 92 344.5 92C347.538 92 350 94.4624 350 97.5Z" fill="#2B2C2E"/>
<path opacity="0.7" fill-rule="evenodd" clip-rule="evenodd" d="M344.5 104.561C348.4 104.561 351.561 101.4 351.561 97.5C351.561 93.6003 348.4 90.439 344.5 90.439C340.6 90.439 337.439 93.6003 337.439 97.5C337.439 101.4 340.6 104.561 344.5 104.561ZM344.5 105C348.642 105 352 101.642 352 97.5C352 93.3579 348.642 90 344.5 90C340.358 90 337 93.3579 337 97.5C337 101.642 340.358 105 344.5 105Z" fill="#2B2C2E"/>
<path d="M347 97.5C347 98.8807 345.881 100 344.5 100C343.119 100 342 98.8807 342 97.5C342 96.1193 343.119 95 344.5 95C345.881 95 347 96.1193 347 97.5Z" fill="#F5F5F5"/>
<path d="M287 106.5C287 109.538 284.538 112 281.5 112C278.462 112 276 109.538 276 106.5C276 103.462 278.462 101 281.5 101C284.538 101 287 103.462 287 106.5Z" fill="#2B2C2E"/>
<path opacity="0.7" fill-rule="evenodd" clip-rule="evenodd" d="M281.5 113.561C285.4 113.561 288.561 110.4 288.561 106.5C288.561 102.6 285.4 99.439 281.5 99.439C277.6 99.439 274.439 102.6 274.439 106.5C274.439 110.4 277.6 113.561 281.5 113.561ZM281.5 114C285.642 114 289 110.642 289 106.5C289 102.358 285.642 99 281.5 99C277.358 99 274 102.358 274 106.5C274 110.642 277.358 114 281.5 114Z" fill="#2B2C2E"/>
<path d="M284 106.5C284 107.881 282.881 109 281.5 109C280.119 109 279 107.881 279 106.5C279 105.119 280.119 104 281.5 104C282.881 104 284 105.119 284 106.5Z" fill="#F5F5F5"/>
<path d="M124 84.5C124 87.5376 121.538 90 118.5 90C115.462 90 113 87.5376 113 84.5C113 81.4624 115.462 79 118.5 79C121.538 79 124 81.4624 124 84.5Z" fill="#2B2C2E"/>
<path opacity="0.7" fill-rule="evenodd" clip-rule="evenodd" d="M118.5 91.561C122.4 91.561 125.561 88.3997 125.561 84.5C125.561 80.6003 122.4 77.439 118.5 77.439C114.6 77.439 111.439 80.6003 111.439 84.5C111.439 88.3997 114.6 91.561 118.5 91.561ZM118.5 92C122.642 92 126 88.6421 126 84.5C126 80.3579 122.642 77 118.5 77C114.358 77 111 80.3579 111 84.5C111 88.6421 114.358 92 118.5 92Z" fill="#2B2C2E"/>
<path d="M121 84.5C121 85.8807 119.881 87 118.5 87C117.119 87 116 85.8807 116 84.5C116 83.1193 117.119 82 118.5 82C119.881 82 121 83.1193 121 84.5Z" fill="#F5F5F5"/>
<path d="M240 108.5C240 111.538 237.538 114 234.5 114C231.462 114 229 111.538 229 108.5C229 105.462 231.462 103 234.5 103C237.538 103 240 105.462 240 108.5Z" fill="#2B2C2E"/>
<path opacity="0.7" fill-rule="evenodd" clip-rule="evenodd" d="M234.5 115.561C238.4 115.561 241.561 112.4 241.561 108.5C241.561 104.6 238.4 101.439 234.5 101.439C230.6 101.439 227.439 104.6 227.439 108.5C227.439 112.4 230.6 115.561 234.5 115.561ZM234.5 116C238.642 116 242 112.642 242 108.5C242 104.358 238.642 101 234.5 101C230.358 101 227 104.358 227 108.5C227 112.642 230.358 116 234.5 116Z" fill="#2B2C2E"/>
<path d="M237 108.5C237 109.881 235.881 111 234.5 111C233.119 111 232 109.881 232 108.5C232 107.119 233.119 106 234.5 106C235.881 106 237 107.119 237 108.5Z" fill="#F5F5F5"/>
<path d="M360 448.5C360 451.538 362.462 454 365.5 454C368.538 454 371 451.538 371 448.5C371 445.462 368.538 443 365.5 443C362.462 443 360 445.462 360 448.5Z" fill="#2B2C2E"/>
<path opacity="0.7" fill-rule="evenodd" clip-rule="evenodd" d="M365.5 455.65C361.551 455.65 358.35 452.449 358.35 448.5C358.35 444.551 361.551 441.35 365.5 441.35C369.449 441.35 372.65 444.551 372.65 448.5C372.65 452.449 369.449 455.65 365.5 455.65ZM365.5 456C361.358 456 358 452.642 358 448.5C358 444.358 361.358 441 365.5 441C369.642 441 373 444.358 373 448.5C373 452.642 369.642 456 365.5 456Z" fill="#2B2C2E"/>
<path d="M363 448.5C363 449.881 364.119 451 365.5 451C366.881 451 368 449.881 368 448.5C368 447.119 366.881 446 365.5 446C364.119 446 363 447.119 363 448.5Z" fill="#F5F5F5"/>
<path d="M348 523.5C348 526.538 350.462 529 353.5 529C356.538 529 359 526.538 359 523.5C359 520.462 356.538 518 353.5 518C350.462 518 348 520.462 348 523.5Z" fill="#2B2C2E"/>
<path opacity="0.7" fill-rule="evenodd" clip-rule="evenodd" d="M353.5 530.485C349.642 530.485 346.515 527.358 346.515 523.5C346.515 519.642 349.642 516.515 353.5 516.515C357.358 516.515 360.485 519.642 360.485 523.5C360.485 527.358 357.358 530.485 353.5 530.485ZM353.5 531C349.358 531 346 527.642 346 523.5C346 519.358 349.358 516 353.5 516C357.642 516 361 519.358 361 523.5C361 527.642 357.642 531 353.5 531Z" fill="#2B2C2E"/>
<path d="M351 523.5C351 524.881 352.119 526 353.5 526C354.881 526 356 524.881 356 523.5C356 522.119 354.881 521 353.5 521C352.119 521 351 522.119 351 523.5Z" fill="#F5F5F5"/>
<path d="M365 578.5C365 581.538 367.462 584 370.5 584C373.538 584 376 581.538 376 578.5C376 575.462 373.538 573 370.5 573C367.462 573 365 575.462 365 578.5Z" fill="#2B2C2E"/>
<path opacity="0.7" fill-rule="evenodd" clip-rule="evenodd" d="M370.5 585.573C366.594 585.573 363.427 582.406 363.427 578.5C363.427 574.594 366.594 571.427 370.5 571.427C374.406 571.427 377.573 574.594 377.573 578.5C377.573 582.406 374.406 585.573 370.5 585.573ZM370.5 586C366.358 586 363 582.642 363 578.5C363 574.358 366.358 571 370.5 571C374.642 571 378 574.358 378 578.5C378 582.642 374.642 586 370.5 586Z" fill="#2B2C2E"/>
<path d="M368 578.5C368 579.881 369.119 581 370.5 581C371.881 581 373 579.881 373 578.5C373 577.119 371.881 576 370.5 576C369.119 576 368 577.119 368 578.5Z" fill="#F5F5F5"/>
<path d="M335 593.5C335 596.538 337.462 599 340.5 599C343.538 599 346 596.538 346 593.5C346 590.462 343.538 588 340.5 588C337.462 588 335 590.462 335 593.5Z" fill="#2B2C2E"/>
<path opacity="0.7" fill-rule="evenodd" clip-rule="evenodd" d="M340.5 600.573C336.594 600.573 333.427 597.406 333.427 593.5C333.427 589.594 336.594 586.427 340.5 586.427C344.406 586.427 347.573 589.594 347.573 593.5C347.573 597.406 344.406 600.573 340.5 600.573ZM340.5 601C336.358 601 333 597.642 333 593.5C333 589.358 336.358 586 340.5 586C344.642 586 348 589.358 348 593.5C348 597.642 344.642 601 340.5 601Z" fill="#2B2C2E"/>
<path d="M338 593.5C338 594.881 339.119 596 340.5 596C341.881 596 343 594.881 343 593.5C343 592.119 341.881 591 340.5 591C339.119 591 338 592.119 338 593.5Z" fill="#F5F5F5"/>
<rect x="189" width="146" height="28" rx="6" fill="#FCE194"/>
<path d="M204.35 19.2051C205.206 19.2051 205.904 19.0023 206.441 18.5967C206.979 18.1865 207.248 17.6169 207.248 16.8877C207.248 16.4548 207.116 16.1016 206.852 15.8281C206.587 15.5501 206.207 15.3724 205.71 15.2949V15.2744C206.111 15.1924 206.43 15.0033 206.667 14.707C206.909 14.4108 207.029 14.0736 207.029 13.6953C207.029 13.0436 206.806 12.5332 206.359 12.1641C205.917 11.7904 205.27 11.6035 204.418 11.6035C203.511 11.6035 202.809 11.8291 202.312 12.2803C201.816 12.7269 201.567 13.3193 201.567 14.0576V14.0918H202.771V14.0576C202.771 13.6566 202.898 13.3193 203.153 13.0459C203.413 12.7679 203.821 12.6289 204.377 12.6289C204.81 12.6289 205.145 12.7314 205.382 12.9365C205.623 13.137 205.744 13.4173 205.744 13.7773C205.744 14.1146 205.646 14.3766 205.45 14.5635C205.254 14.7503 204.931 14.8438 204.479 14.8438H203.475V15.8281H204.589C205.076 15.8281 205.427 15.9238 205.642 16.1152C205.86 16.3021 205.97 16.5596 205.97 16.8877C205.97 17.2796 205.831 17.5918 205.553 17.8242C205.275 18.0566 204.876 18.1729 204.356 18.1729C203.741 18.1729 203.306 18.0339 203.051 17.7559C202.796 17.4779 202.668 17.1429 202.668 16.751V16.7168H201.458V16.751C201.458 17.4346 201.702 18.0156 202.189 18.4941C202.682 18.9681 203.402 19.2051 204.35 19.2051ZM208.854 16.8877C208.854 17.6305 209.078 18.1911 209.524 18.5693C209.975 18.9476 210.524 19.1367 211.172 19.1367C211.714 19.1367 212.156 19.0273 212.498 18.8086C212.844 18.5853 213.095 18.3301 213.25 18.043C213.268 18.2207 213.3 18.3984 213.345 18.5762C213.396 18.7493 213.45 18.8906 213.509 19H214.719V18.8906C214.642 18.6901 214.58 18.46 214.535 18.2002C214.494 17.9359 214.473 17.6556 214.473 17.3594V14.0781C214.473 13.2396 214.25 12.6175 213.803 12.2119C213.357 11.8063 212.726 11.6035 211.91 11.6035C211.099 11.6035 210.454 11.8132 209.975 12.2324C209.497 12.6471 209.258 13.1484 209.258 13.7363V13.7705H210.502V13.7363C210.502 13.4355 210.606 13.1712 210.816 12.9434C211.03 12.7155 211.384 12.6016 211.876 12.6016C212.372 12.6016 212.721 12.7383 212.922 13.0117C213.122 13.2852 213.222 13.6406 213.222 14.0781V14.5771H211.753C210.891 14.5771 210.192 14.7777 209.654 15.1787C209.121 15.5798 208.854 16.1494 208.854 16.8877ZM210.105 16.8467C210.105 16.4001 210.256 16.0583 210.556 15.8213C210.857 15.5843 211.297 15.4658 211.876 15.4658H213.222V16.5596C213.222 16.9788 213.036 17.348 212.662 17.667C212.288 17.9814 211.876 18.1387 211.425 18.1387C210.978 18.1387 210.645 18.0293 210.426 17.8105C210.212 17.5872 210.105 17.266 210.105 16.8467ZM216.722 11.8086V19H217.973V12.7998H220.851V19H222.102V11.8086H216.722ZM225.424 19L227.413 16.0127L226.149 15.8965L224.029 19H225.424ZM228.562 19H229.813V11.8086H227.044C226.165 11.8086 225.486 12.0182 225.007 12.4375C224.533 12.8522 224.296 13.4105 224.296 14.1123C224.296 14.7777 224.526 15.3086 224.986 15.7051C225.447 16.1016 226.105 16.3066 226.962 16.3203L227.03 16.3887H228.562V19ZM227.044 15.3975C226.488 15.3975 226.098 15.279 225.875 15.042C225.652 14.8005 225.54 14.4906 225.54 14.1123C225.54 13.7295 225.652 13.415 225.875 13.1689C226.103 12.9229 226.493 12.7998 227.044 12.7998H228.562V15.3975H227.044ZM231.685 15.5137C231.685 16.6348 231.963 17.5303 232.519 18.2002C233.075 18.8701 233.832 19.2051 234.789 19.2051C235.705 19.2051 236.395 18.9521 236.86 18.4463C237.33 17.9359 237.564 17.3525 237.564 16.6963V16.6621H236.354V16.6963C236.354 17.0882 236.231 17.4346 235.985 17.7354C235.744 18.0316 235.345 18.1797 234.789 18.1797C234.169 18.1797 233.709 17.9359 233.408 17.4482C233.112 16.9606 232.964 16.3431 232.964 15.5957V15.2129C232.964 14.4655 233.114 13.8503 233.415 13.3672C233.716 12.8796 234.181 12.6357 234.809 12.6357C235.365 12.6357 235.762 12.7839 235.999 13.0801C236.236 13.3763 236.354 13.7204 236.354 14.1123V14.1465H237.564V14.1123C237.564 13.4561 237.33 12.875 236.86 12.3691C236.395 11.8587 235.714 11.6035 234.816 11.6035C233.841 11.6035 233.075 11.9385 232.519 12.6084C231.963 13.2783 231.685 14.1738 231.685 15.2949V15.5137ZM238.48 12.7998H240.613V19H241.857V12.7998H243.99V11.8086H238.48V12.7998ZM246.792 11.8086H245.541V19H248.228C249.121 19 249.809 18.7858 250.292 18.3574C250.78 17.9245 251.024 17.3503 251.024 16.6348C251.024 15.9193 250.78 15.3519 250.292 14.9326C249.809 14.5088 249.121 14.2969 248.228 14.2969H246.792V11.8086ZM248.228 15.2881C248.798 15.2881 249.196 15.4157 249.424 15.6709C249.657 15.9215 249.773 16.2428 249.773 16.6348C249.773 17.0312 249.657 17.3594 249.424 17.6191C249.196 17.8789 248.798 18.0088 248.228 18.0088H246.792V15.2881H248.228ZM253.765 19L255.754 16.0127L254.489 15.8965L252.37 19H253.765ZM256.902 19H258.153V11.8086H255.385C254.505 11.8086 253.826 12.0182 253.348 12.4375C252.874 12.8522 252.637 13.4105 252.637 14.1123C252.637 14.7777 252.867 15.3086 253.327 15.7051C253.787 16.1016 254.446 16.3066 255.303 16.3203L255.371 16.3887H256.902V19ZM255.385 15.3975C254.829 15.3975 254.439 15.279 254.216 15.042C253.993 14.8005 253.881 14.4906 253.881 14.1123C253.881 13.7295 253.993 13.415 254.216 13.1689C254.444 12.9229 254.833 12.7998 255.385 12.7998H256.902V15.3975H255.385ZM264.155 19H265.406L268.003 14.5156C268.085 14.3698 268.161 14.2262 268.229 14.085C268.302 13.9437 268.368 13.8184 268.427 13.709H268.502C268.498 13.8457 268.493 14.0029 268.489 14.1807C268.484 14.3584 268.482 14.5156 268.482 14.6523V19H269.719V11.8086H268.468L265.871 16.2998C265.789 16.4411 265.711 16.5801 265.638 16.7168C265.565 16.849 265.499 16.972 265.44 17.0859H265.378C265.383 16.9492 265.385 16.7965 265.385 16.6279C265.39 16.4548 265.392 16.2998 265.392 16.1631V11.8086H264.155V19ZM275.721 11.8086V19H276.972V12.7998H279.85V19H281.101V11.8086H275.721ZM283.014 16.8877C283.014 17.6305 283.238 18.1911 283.684 18.5693C284.135 18.9476 284.685 19.1367 285.332 19.1367C285.874 19.1367 286.316 19.0273 286.658 18.8086C287.004 18.5853 287.255 18.3301 287.41 18.043C287.428 18.2207 287.46 18.3984 287.506 18.5762C287.556 18.7493 287.61 18.8906 287.67 19H288.88V18.8906C288.802 18.6901 288.741 18.46 288.695 18.2002C288.654 17.9359 288.633 17.6556 288.633 17.3594V14.0781C288.633 13.2396 288.41 12.6175 287.964 12.2119C287.517 11.8063 286.886 11.6035 286.07 11.6035C285.259 11.6035 284.614 11.8132 284.135 12.2324C283.657 12.6471 283.418 13.1484 283.418 13.7363V13.7705H284.662V13.7363C284.662 13.4355 284.767 13.1712 284.976 12.9434C285.19 12.7155 285.544 12.6016 286.036 12.6016C286.533 12.6016 286.881 12.7383 287.082 13.0117C287.282 13.2852 287.382 13.6406 287.382 14.0781V14.5771H285.913C285.051 14.5771 284.352 14.7777 283.814 15.1787C283.281 15.5798 283.014 16.1494 283.014 16.8877ZM284.265 16.8467C284.265 16.4001 284.416 16.0583 284.716 15.8213C285.017 15.5843 285.457 15.4658 286.036 15.4658H287.382V16.5596C287.382 16.9788 287.196 17.348 286.822 17.667C286.448 17.9814 286.036 18.1387 285.585 18.1387C285.138 18.1387 284.805 18.0293 284.587 17.8105C284.372 17.5872 284.265 17.266 284.265 16.8467ZM292.557 12.7998H295.004V19H296.248V11.8086H291.443L291.299 15.7871C291.267 16.5755 291.194 17.1475 291.08 17.5029C290.966 17.8584 290.748 18.0361 290.424 18.0361C290.324 18.0361 290.237 18.0293 290.164 18.0156C290.091 18.002 290.016 17.9792 289.939 17.9473V19.0137C290.025 19.0547 290.126 19.0843 290.24 19.1025C290.358 19.1253 290.497 19.1367 290.657 19.1367C291.34 19.1367 291.798 18.8633 292.031 18.3164C292.263 17.7695 292.4 16.9674 292.441 15.9102L292.557 12.7998ZM299.823 11.8086H298.572V19H301.259C302.152 19 302.84 18.7858 303.323 18.3574C303.811 17.9245 304.055 17.3503 304.055 16.6348C304.055 15.9193 303.811 15.3519 303.323 14.9326C302.84 14.5088 302.152 14.2969 301.259 14.2969H299.823V11.8086ZM301.259 15.2881C301.829 15.2881 302.227 15.4157 302.455 15.6709C302.688 15.9215 302.804 16.2428 302.804 16.6348C302.804 17.0312 302.688 17.3594 302.455 17.6191C302.227 17.8789 301.829 18.0088 301.259 18.0088H299.823V15.2881H301.259ZM311.007 20.8457H312.155V18.0088H311.164V11.8086H309.913V18.0088H307.035V11.8086H305.784V19H311.007V20.8457ZM314.848 11.8086H313.597V19H316.284C317.177 19 317.865 18.7858 318.348 18.3574C318.836 17.9245 319.08 17.3503 319.08 16.6348C319.08 15.9193 318.836 15.3519 318.348 14.9326C317.865 14.5088 317.177 14.2969 316.284 14.2969H314.848V11.8086ZM316.284 15.2881C316.853 15.2881 317.252 15.4157 317.48 15.6709C317.712 15.9215 317.829 16.2428 317.829 16.6348C317.829 17.0312 317.712 17.3594 317.48 17.6191C317.252 17.8789 316.853 18.0088 316.284 18.0088H314.848V15.2881H316.284ZM320.016 19H321.267V11.8086H320.016V19Z" fill="#2B2C2E"/>
<rect x="156.5" y="45.5" width="61" height="27" rx="5.5" fill="white"/>
<path d="M169.012 56.8086V64H170.263V57.7998H173.141V64H174.392V56.8086H169.012ZM178.377 57.7998H180.824V64H182.068V56.8086H177.262L177.119 60.7871C177.087 61.5755 177.014 62.1475 176.9 62.5029C176.786 62.8584 176.567 63.0361 176.244 63.0361C176.144 63.0361 176.057 63.0293 175.984 63.0156C175.911 63.002 175.836 62.9792 175.759 62.9473V64.0137C175.845 64.0547 175.945 64.0843 176.059 64.1025C176.178 64.1253 176.317 64.1367 176.476 64.1367C177.16 64.1367 177.618 63.8633 177.85 63.3164C178.083 62.7695 178.219 61.9674 178.26 60.9102L178.377 57.7998ZM183.961 60.5137C183.961 61.6348 184.242 62.5303 184.802 63.2002C185.363 63.8701 186.167 64.2051 187.215 64.2051C187.858 64.2051 188.407 64.0615 188.863 63.7744C189.318 63.4827 189.658 63.1501 189.881 62.7764L189.027 62.168C188.835 62.4414 188.589 62.6784 188.289 62.8789C187.992 63.0794 187.625 63.1797 187.188 63.1797C186.513 63.1797 186.019 62.9427 185.705 62.4688C185.39 61.9902 185.233 61.3659 185.233 60.5957V60.2129C185.233 59.429 185.386 58.8024 185.691 58.333C185.996 57.8636 186.452 57.6289 187.058 57.6289C187.591 57.6289 187.988 57.8135 188.248 58.1826C188.507 58.5472 188.637 58.9961 188.637 59.5293V59.6865H184.7V60.6846H189.902V60.1719C189.902 59.0417 189.651 58.1644 189.15 57.54C188.653 56.9157 187.944 56.6035 187.024 56.6035C186.103 56.6035 185.363 56.9385 184.802 57.6084C184.242 58.2783 183.961 59.1738 183.961 60.2949V60.5137ZM192.848 58.7158V56.8086H191.597V58.7158C191.597 59.5954 191.791 60.2448 192.178 60.6641C192.565 61.0833 193.201 61.293 194.085 61.293C194.573 61.293 194.967 61.2656 195.268 61.2109C195.573 61.1517 195.908 61.0833 196.273 61.0059V60.0078C195.899 60.099 195.569 60.1696 195.281 60.2197C194.994 60.2699 194.664 60.2949 194.29 60.2949C193.757 60.2949 193.383 60.1833 193.169 59.96C192.955 59.7321 192.848 59.3174 192.848 58.7158ZM196.895 56.8086H195.644V64H196.895V56.8086ZM198.767 60.5137C198.767 61.6348 199.057 62.5303 199.636 63.2002C200.214 63.8701 200.989 64.2051 201.96 64.2051C202.931 64.2051 203.705 63.8701 204.284 63.2002C204.863 62.5303 205.152 61.6348 205.152 60.5137V60.2949C205.152 59.1738 204.863 58.2783 204.284 57.6084C203.705 56.9385 202.931 56.6035 201.96 56.6035C200.989 56.6035 200.214 56.9385 199.636 57.6084C199.057 58.2783 198.767 59.1738 198.767 60.2949V60.5137ZM200.046 60.2129C200.046 59.4655 200.203 58.848 200.517 58.3604C200.832 57.8727 201.313 57.6289 201.96 57.6289C202.602 57.6289 203.081 57.8704 203.395 58.3535C203.714 58.8366 203.874 59.4564 203.874 60.2129V60.5957C203.874 61.3431 203.712 61.9606 203.389 62.4482C203.07 62.9359 202.593 63.1797 201.96 63.1797C201.326 63.1797 200.848 62.9359 200.524 62.4482C200.205 61.9606 200.046 61.3431 200.046 60.5957V60.2129Z" fill="#2B2C2E"/>
<rect x="156.5" y="45.5" width="61" height="27" rx="5.5" stroke="#E9E8EE"/>
<rect x="107.5" y="141.5" width="67" height="27" rx="5.5" fill="white"/>
<path d="M121.687 153.8H124.134V160H125.378V152.809H120.572L120.429 156.787C120.397 157.576 120.324 158.147 120.21 158.503C120.096 158.858 119.877 159.036 119.554 159.036C119.453 159.036 119.367 159.029 119.294 159.016C119.221 159.002 119.146 158.979 119.068 158.947V160.014C119.155 160.055 119.255 160.084 119.369 160.103C119.488 160.125 119.627 160.137 119.786 160.137C120.47 160.137 120.928 159.863 121.16 159.316C121.393 158.77 121.529 157.967 121.57 156.91L121.687 153.8ZM127.271 156.514C127.271 157.635 127.561 158.53 128.139 159.2C128.718 159.87 129.493 160.205 130.464 160.205C131.434 160.205 132.209 159.87 132.788 159.2C133.367 158.53 133.656 157.635 133.656 156.514V156.295C133.656 155.174 133.367 154.278 132.788 153.608C132.209 152.938 131.434 152.604 130.464 152.604C129.493 152.604 128.718 152.938 128.139 153.608C127.561 154.278 127.271 155.174 127.271 156.295V156.514ZM128.55 156.213C128.55 155.465 128.707 154.848 129.021 154.36C129.336 153.873 129.816 153.629 130.464 153.629C131.106 153.629 131.585 153.87 131.899 154.354C132.218 154.837 132.378 155.456 132.378 156.213V156.596C132.378 157.343 132.216 157.961 131.892 158.448C131.573 158.936 131.097 159.18 130.464 159.18C129.83 159.18 129.352 158.936 129.028 158.448C128.709 157.961 128.55 157.343 128.55 156.596V156.213ZM139.87 160H141.353L138.051 155.878L137.279 156.739L139.87 160ZM136.151 155.83V156.821H137.942L141.107 152.809H139.699L137.34 155.83H136.151ZM136.78 152.809H135.529V160H136.78V152.809ZM142.118 156.514C142.118 157.635 142.408 158.53 142.986 159.2C143.565 159.87 144.34 160.205 145.311 160.205C146.281 160.205 147.056 159.87 147.635 159.2C148.214 158.53 148.503 157.635 148.503 156.514V156.295C148.503 155.174 148.214 154.278 147.635 153.608C147.056 152.938 146.281 152.604 145.311 152.604C144.34 152.604 143.565 152.938 142.986 153.608C142.408 154.278 142.118 155.174 142.118 156.295V156.514ZM143.397 156.213C143.397 155.465 143.554 154.848 143.868 154.36C144.183 153.873 144.664 153.629 145.311 153.629C145.953 153.629 146.432 153.87 146.746 154.354C147.065 154.837 147.225 155.456 147.225 156.213V156.596C147.225 157.343 147.063 157.961 146.739 158.448C146.42 158.936 145.944 159.18 145.311 159.18C144.677 159.18 144.199 158.936 143.875 158.448C143.556 157.961 143.397 157.343 143.397 156.596V156.213ZM149.624 153.8H151.757V160H153.001V153.8H155.134V152.809H149.624V153.8ZM157.936 152.809H156.685V160H159.372C160.265 160 160.953 159.786 161.436 159.357C161.924 158.924 162.168 158.35 162.168 157.635C162.168 156.919 161.924 156.352 161.436 155.933C160.953 155.509 160.265 155.297 159.372 155.297H157.936V152.809ZM159.372 156.288C159.941 156.288 160.34 156.416 160.568 156.671C160.8 156.922 160.917 157.243 160.917 157.635C160.917 158.031 160.8 158.359 160.568 158.619C160.34 158.879 159.941 159.009 159.372 159.009H157.936V156.288H159.372Z" fill="#2B2C2E"/>
<rect x="107.5" y="141.5" width="67" height="27" rx="5.5" stroke="#E9E8EE"/>
<rect x="227.5" y="213.5" width="84" height="27" rx="5.5" fill="white"/>
<path d="M240.012 224.809V232H241.263V225.8H244.141V232H245.392V224.809H240.012ZM247.271 228.514C247.271 229.635 247.561 230.53 248.139 231.2C248.718 231.87 249.493 232.205 250.464 232.205C251.434 232.205 252.209 231.87 252.788 231.2C253.367 230.53 253.656 229.635 253.656 228.514V228.295C253.656 227.174 253.367 226.278 252.788 225.608C252.209 224.938 251.434 224.604 250.464 224.604C249.493 224.604 248.718 224.938 248.139 225.608C247.561 226.278 247.271 227.174 247.271 228.295V228.514ZM248.55 228.213C248.55 227.465 248.707 226.848 249.021 226.36C249.336 225.873 249.816 225.629 250.464 225.629C251.106 225.629 251.585 225.87 251.899 226.354C252.218 226.837 252.378 227.456 252.378 228.213V228.596C252.378 229.343 252.216 229.961 251.892 230.448C251.573 230.936 251.097 231.18 250.464 231.18C249.83 231.18 249.352 230.936 249.028 230.448C248.709 229.961 248.55 229.343 248.55 228.596V228.213ZM256.54 232L258.53 229.013L257.265 228.896L255.146 232H256.54ZM259.678 232H260.929V224.809H258.161C257.281 224.809 256.602 225.018 256.123 225.438C255.65 225.852 255.413 226.41 255.413 227.112C255.413 227.778 255.643 228.309 256.103 228.705C256.563 229.102 257.222 229.307 258.079 229.32L258.147 229.389H259.678V232ZM258.161 228.397C257.605 228.397 257.215 228.279 256.992 228.042C256.768 227.8 256.657 227.491 256.657 227.112C256.657 226.729 256.768 226.415 256.992 226.169C257.22 225.923 257.609 225.8 258.161 225.8H259.678V228.397H258.161ZM262.802 228.514C262.802 229.635 263.08 230.53 263.636 231.2C264.192 231.87 264.948 232.205 265.905 232.205C266.821 232.205 267.512 231.952 267.977 231.446C268.446 230.936 268.681 230.353 268.681 229.696V229.662H267.471V229.696C267.471 230.088 267.348 230.435 267.102 230.735C266.86 231.032 266.461 231.18 265.905 231.18C265.286 231.18 264.825 230.936 264.525 230.448C264.228 229.961 264.08 229.343 264.08 228.596V228.213C264.08 227.465 264.231 226.85 264.531 226.367C264.832 225.88 265.297 225.636 265.926 225.636C266.482 225.636 266.878 225.784 267.115 226.08C267.352 226.376 267.471 226.72 267.471 227.112V227.146H268.681V227.112C268.681 226.456 268.446 225.875 267.977 225.369C267.512 224.859 266.831 224.604 265.933 224.604C264.958 224.604 264.192 224.938 263.636 225.608C263.08 226.278 262.802 227.174 262.802 228.295V228.514ZM270.349 224.809V232H271.599V228.821H274.532V232H275.783V224.809H274.532V227.83H271.599V224.809H270.349ZM278.093 232H279.344L281.942 227.516C282.024 227.37 282.099 227.226 282.168 227.085C282.24 226.944 282.307 226.818 282.366 226.709H282.441C282.436 226.846 282.432 227.003 282.427 227.181C282.423 227.358 282.421 227.516 282.421 227.652V232H283.658V224.809H282.407L279.809 229.3C279.727 229.441 279.65 229.58 279.577 229.717C279.504 229.849 279.438 229.972 279.379 230.086H279.317C279.322 229.949 279.324 229.797 279.324 229.628C279.328 229.455 279.331 229.3 279.331 229.163V224.809H278.093V232ZM291.184 233.846H292.332V231.009H291.341V224.809H290.09V231.009H287.212V224.809H285.961V232H291.184V233.846ZM293.378 229.888C293.378 230.631 293.601 231.191 294.048 231.569C294.499 231.948 295.048 232.137 295.695 232.137C296.238 232.137 296.68 232.027 297.022 231.809C297.368 231.585 297.619 231.33 297.773 231.043C297.792 231.221 297.824 231.398 297.869 231.576C297.919 231.749 297.974 231.891 298.033 232H299.243V231.891C299.166 231.69 299.104 231.46 299.059 231.2C299.018 230.936 298.997 230.656 298.997 230.359V227.078C298.997 226.24 298.774 225.618 298.327 225.212C297.881 224.806 297.249 224.604 296.434 224.604C295.622 224.604 294.978 224.813 294.499 225.232C294.021 225.647 293.781 226.148 293.781 226.736V226.771H295.025V226.736C295.025 226.436 295.13 226.171 295.34 225.943C295.554 225.715 295.907 225.602 296.399 225.602C296.896 225.602 297.245 225.738 297.445 226.012C297.646 226.285 297.746 226.641 297.746 227.078V227.577H296.276C295.415 227.577 294.716 227.778 294.178 228.179C293.645 228.58 293.378 229.149 293.378 229.888ZM294.629 229.847C294.629 229.4 294.779 229.058 295.08 228.821C295.381 228.584 295.821 228.466 296.399 228.466H297.746V229.56C297.746 229.979 297.559 230.348 297.186 230.667C296.812 230.981 296.399 231.139 295.948 231.139C295.502 231.139 295.169 231.029 294.95 230.811C294.736 230.587 294.629 230.266 294.629 229.847Z" fill="#2B2C2E"/>
<rect x="227.5" y="213.5" width="84" height="27" rx="5.5" stroke="#E9E8EE"/>
<rect x="225.5" y="435.5" width="69" height="27" rx="5.5" fill="white"/>
<path d="M242.353 454H243.836L240.534 449.878L239.762 450.739L242.353 454ZM238.634 449.83V450.821H240.425L243.59 446.809H242.182L239.823 449.83H238.634ZM239.263 446.809H238.012V454H239.263V446.809ZM244.601 450.514C244.601 451.635 244.891 452.53 245.469 453.2C246.048 453.87 246.823 454.205 247.794 454.205C248.764 454.205 249.539 453.87 250.118 453.2C250.697 452.53 250.986 451.635 250.986 450.514V450.295C250.986 449.174 250.697 448.278 250.118 447.608C249.539 446.938 248.764 446.604 247.794 446.604C246.823 446.604 246.048 446.938 245.469 447.608C244.891 448.278 244.601 449.174 244.601 450.295V450.514ZM245.88 450.213C245.88 449.465 246.037 448.848 246.351 448.36C246.666 447.873 247.147 447.629 247.794 447.629C248.436 447.629 248.915 447.87 249.229 448.354C249.548 448.837 249.708 449.456 249.708 450.213V450.596C249.708 451.343 249.546 451.961 249.222 452.448C248.903 452.936 248.427 453.18 247.794 453.18C247.16 453.18 246.682 452.936 246.358 452.448C246.039 451.961 245.88 451.343 245.88 450.596V450.213ZM254.534 447.8H256.981V454H258.225V446.809H253.419L253.276 450.787C253.244 451.576 253.171 452.147 253.057 452.503C252.943 452.858 252.724 453.036 252.401 453.036C252.301 453.036 252.214 453.029 252.141 453.016C252.068 453.002 251.993 452.979 251.915 452.947V454.014C252.002 454.055 252.102 454.084 252.216 454.103C252.335 454.125 252.474 454.137 252.633 454.137C253.317 454.137 253.775 453.863 254.007 453.316C254.24 452.77 254.376 451.967 254.417 450.91L254.534 447.8ZM260.118 450.514C260.118 451.635 260.399 452.53 260.959 453.2C261.52 453.87 262.324 454.205 263.372 454.205C264.015 454.205 264.564 454.062 265.02 453.774C265.475 453.483 265.815 453.15 266.038 452.776L265.184 452.168C264.992 452.441 264.746 452.678 264.445 452.879C264.149 453.079 263.782 453.18 263.345 453.18C262.67 453.18 262.176 452.943 261.861 452.469C261.547 451.99 261.39 451.366 261.39 450.596V450.213C261.39 449.429 261.542 448.802 261.848 448.333C262.153 447.864 262.609 447.629 263.215 447.629C263.748 447.629 264.145 447.813 264.404 448.183C264.664 448.547 264.794 448.996 264.794 449.529V449.687H260.857V450.685H266.059V450.172C266.059 449.042 265.808 448.164 265.307 447.54C264.81 446.916 264.101 446.604 263.181 446.604C262.26 446.604 261.52 446.938 260.959 447.608C260.399 448.278 260.118 449.174 260.118 450.295V450.514ZM267.897 446.809V454H269.148V450.821H272.081V454H273.332V446.809H272.081V449.83H269.148V446.809H267.897ZM275.212 450.514C275.212 451.635 275.501 452.53 276.08 453.2C276.658 453.87 277.433 454.205 278.404 454.205C279.375 454.205 280.149 453.87 280.728 453.2C281.307 452.53 281.596 451.635 281.596 450.514V450.295C281.596 449.174 281.307 448.278 280.728 447.608C280.149 446.938 279.375 446.604 278.404 446.604C277.433 446.604 276.658 446.938 276.08 447.608C275.501 448.278 275.212 449.174 275.212 450.295V450.514ZM276.49 450.213C276.49 449.465 276.647 448.848 276.962 448.36C277.276 447.873 277.757 447.629 278.404 447.629C279.046 447.629 279.525 447.87 279.839 448.354C280.158 448.837 280.318 449.456 280.318 450.213V450.596C280.318 451.343 280.156 451.961 279.833 452.448C279.514 452.936 279.037 453.18 278.404 453.18C277.77 453.18 277.292 452.936 276.968 452.448C276.649 451.961 276.49 451.343 276.49 450.596V450.213Z" fill="#2B2C2E"/>
<rect x="225.5" y="435.5" width="69" height="27" rx="5.5" stroke="#E9E8EE"/>
<rect x="171.5" y="510.5" width="114" height="27" rx="5.5" fill="white"/>
<path d="M184.012 529H187.067C187.847 529 188.473 528.818 188.947 528.453C189.426 528.084 189.665 527.569 189.665 526.908C189.665 526.471 189.524 526.113 189.241 525.835C188.963 525.552 188.58 525.375 188.093 525.302V525.281C188.494 525.195 188.813 525.017 189.05 524.748C189.291 524.475 189.412 524.135 189.412 523.729C189.412 523.087 189.184 522.606 188.729 522.287C188.273 521.968 187.651 521.809 186.862 521.809H184.012V529ZM185.263 524.851V522.8H186.862C187.318 522.8 187.646 522.886 187.847 523.06C188.047 523.233 188.147 523.479 188.147 523.798C188.147 524.121 188.047 524.379 187.847 524.57C187.646 524.757 187.318 524.851 186.862 524.851H185.263ZM185.263 528.009V525.835H187.067C187.532 525.835 187.872 525.933 188.086 526.129C188.3 526.325 188.407 526.585 188.407 526.908C188.407 527.236 188.298 527.503 188.079 527.708C187.865 527.909 187.528 528.009 187.067 528.009H185.263ZM191.244 525.514C191.244 526.635 191.524 527.53 192.085 528.2C192.645 528.87 193.45 529.205 194.498 529.205C195.14 529.205 195.69 529.062 196.145 528.774C196.601 528.483 196.94 528.15 197.164 527.776L196.309 527.168C196.118 527.441 195.872 527.678 195.571 527.879C195.275 528.079 194.908 528.18 194.47 528.18C193.796 528.18 193.301 527.943 192.987 527.469C192.673 526.99 192.515 526.366 192.515 525.596V525.213C192.515 524.429 192.668 523.802 192.973 523.333C193.279 522.864 193.734 522.629 194.341 522.629C194.874 522.629 195.27 522.813 195.53 523.183C195.79 523.547 195.92 523.996 195.92 524.529V524.687H191.982V525.685H197.184V525.172C197.184 524.042 196.934 523.164 196.432 522.54C195.936 521.916 195.227 521.604 194.306 521.604C193.386 521.604 192.645 521.938 192.085 522.608C191.524 523.278 191.244 524.174 191.244 525.295V525.514ZM199.023 521.809V529H200.274V525.821H203.206V529H204.457V521.809H203.206V524.83H200.274V521.809H199.023ZM208.019 521.809H206.768V529H209.454C210.347 529 211.036 528.786 211.519 528.357C212.006 527.924 212.25 527.35 212.25 526.635C212.25 525.919 212.006 525.352 211.519 524.933C211.036 524.509 210.347 524.297 209.454 524.297H208.019V521.809ZM209.454 525.288C210.024 525.288 210.423 525.416 210.651 525.671C210.883 525.922 210.999 526.243 210.999 526.635C210.999 527.031 210.883 527.359 210.651 527.619C210.423 527.879 210.024 528.009 209.454 528.009H208.019V525.288H209.454ZM213.187 529H214.438V521.809H213.187V529ZM220.466 521.809V529H221.717V525.821H224.65V529H225.901V521.809H224.65V524.83H221.717V521.809H220.466ZM227.815 526.888C227.815 527.631 228.038 528.191 228.485 528.569C228.936 528.948 229.485 529.137 230.132 529.137C230.674 529.137 231.117 529.027 231.458 528.809C231.805 528.585 232.055 528.33 232.21 528.043C232.229 528.221 232.26 528.398 232.306 528.576C232.356 528.749 232.411 528.891 232.47 529H233.68V528.891C233.603 528.69 233.541 528.46 233.495 528.2C233.454 527.936 233.434 527.656 233.434 527.359V524.078C233.434 523.24 233.211 522.618 232.764 522.212C232.317 521.806 231.686 521.604 230.87 521.604C230.059 521.604 229.414 521.813 228.936 522.232C228.457 522.647 228.218 523.148 228.218 523.736V523.771H229.462V523.736C229.462 523.436 229.567 523.171 229.777 522.943C229.991 522.715 230.344 522.602 230.836 522.602C231.333 522.602 231.682 522.738 231.882 523.012C232.083 523.285 232.183 523.641 232.183 524.078V524.577H230.713C229.852 524.577 229.152 524.778 228.615 525.179C228.081 525.58 227.815 526.149 227.815 526.888ZM229.066 526.847C229.066 526.4 229.216 526.058 229.517 525.821C229.818 525.584 230.257 525.466 230.836 525.466H232.183V526.56C232.183 526.979 231.996 527.348 231.622 527.667C231.249 527.981 230.836 528.139 230.385 528.139C229.938 528.139 229.606 528.029 229.387 527.811C229.173 527.587 229.066 527.266 229.066 526.847ZM239.381 521.809V529H240.632V525.821H243.564V529H244.815V521.809H243.564V524.83H240.632V521.809H239.381ZM246.695 525.514C246.695 526.635 246.984 527.53 247.563 528.2C248.142 528.87 248.916 529.205 249.887 529.205C250.858 529.205 251.633 528.87 252.211 528.2C252.79 527.53 253.08 526.635 253.08 525.514V525.295C253.08 524.174 252.79 523.278 252.211 522.608C251.633 521.938 250.858 521.604 249.887 521.604C248.916 521.604 248.142 521.938 247.563 522.608C246.984 523.278 246.695 524.174 246.695 525.295V525.514ZM247.973 525.213C247.973 524.465 248.13 523.848 248.445 523.36C248.759 522.873 249.24 522.629 249.887 522.629C250.53 522.629 251.008 522.87 251.323 523.354C251.642 523.837 251.801 524.456 251.801 525.213V525.596C251.801 526.343 251.639 526.961 251.316 527.448C250.997 527.936 250.521 528.18 249.887 528.18C249.254 528.18 248.775 527.936 248.452 527.448C248.133 526.961 247.973 526.343 247.973 525.596V525.213ZM254.952 521.809V529H256.203V522.8H259.273V521.809H254.952ZM260.428 526.888C260.428 527.631 260.651 528.191 261.098 528.569C261.549 528.948 262.098 529.137 262.745 529.137C263.287 529.137 263.729 529.027 264.071 528.809C264.418 528.585 264.668 528.33 264.823 528.043C264.841 528.221 264.873 528.398 264.919 528.576C264.969 528.749 265.024 528.891 265.083 529H266.293V528.891C266.215 528.69 266.154 528.46 266.108 528.2C266.067 527.936 266.047 527.656 266.047 527.359V524.078C266.047 523.24 265.823 522.618 265.377 522.212C264.93 521.806 264.299 521.604 263.483 521.604C262.672 521.604 262.027 521.813 261.549 522.232C261.07 522.647 260.831 523.148 260.831 523.736V523.771H262.075V523.736C262.075 523.436 262.18 523.171 262.39 522.943C262.604 522.715 262.957 522.602 263.449 522.602C263.946 522.602 264.295 522.738 264.495 523.012C264.696 523.285 264.796 523.641 264.796 524.078V524.577H263.326C262.465 524.577 261.765 524.778 261.227 525.179C260.694 525.58 260.428 526.149 260.428 526.888ZM261.679 526.847C261.679 526.4 261.829 526.058 262.13 525.821C262.431 525.584 262.87 525.466 263.449 525.466H264.796V526.56C264.796 526.979 264.609 527.348 264.235 527.667C263.862 527.981 263.449 528.139 262.998 528.139C262.551 528.139 262.219 528.029 262 527.811C261.786 527.587 261.679 527.266 261.679 526.847ZM267.421 529H268.795L270.825 525.685H270.9L273.34 521.809H271.966L270.052 525.028H269.977L267.421 529ZM267.55 521.809L269.998 525.685H270.039L272.076 529H273.47L270.914 525.028H270.873L268.945 521.809H267.55Z" fill="#2B2C2E"/>
<rect x="171.5" y="510.5" width="114" height="27" rx="5.5" stroke="#E9E8EE"/>
<rect x="229.5" y="581.5" width="60" height="27" rx="5.5" fill="white"/>
<path d="M241.581 596.514C241.581 597.635 241.859 598.53 242.415 599.2C242.971 599.87 243.728 600.205 244.685 600.205C245.601 600.205 246.291 599.952 246.756 599.446C247.225 598.936 247.46 598.353 247.46 597.696V597.662H246.25V597.696C246.25 598.088 246.127 598.435 245.881 598.735C245.639 599.032 245.241 599.18 244.685 599.18C244.065 599.18 243.604 598.936 243.304 598.448C243.007 597.961 242.859 597.343 242.859 596.596V596.213C242.859 595.465 243.01 594.85 243.311 594.367C243.611 593.88 244.076 593.636 244.705 593.636C245.261 593.636 245.658 593.784 245.895 594.08C246.132 594.376 246.25 594.72 246.25 595.112V595.146H247.46V595.112C247.46 594.456 247.225 593.875 246.756 593.369C246.291 592.859 245.61 592.604 244.712 592.604C243.737 592.604 242.971 592.938 242.415 593.608C241.859 594.278 241.581 595.174 241.581 596.295V596.514ZM248.376 593.8H250.509V600H251.753V593.8H253.885V592.809H248.376V593.8ZM255.006 596.514C255.006 597.635 255.296 598.53 255.874 599.2C256.453 599.87 257.228 600.205 258.199 600.205C259.169 600.205 259.944 599.87 260.523 599.2C261.102 598.53 261.391 597.635 261.391 596.514V596.295C261.391 595.174 261.102 594.278 260.523 593.608C259.944 592.938 259.169 592.604 258.199 592.604C257.228 592.604 256.453 592.938 255.874 593.608C255.296 594.278 255.006 595.174 255.006 596.295V596.514ZM256.285 596.213C256.285 595.465 256.442 594.848 256.756 594.36C257.071 593.873 257.552 593.629 258.199 593.629C258.841 593.629 259.32 593.87 259.634 594.354C259.953 594.837 260.113 595.456 260.113 596.213V596.596C260.113 597.343 259.951 597.961 259.627 598.448C259.308 598.936 258.832 599.18 258.199 599.18C257.565 599.18 257.087 598.936 256.763 598.448C256.444 597.961 256.285 597.343 256.285 596.596V596.213ZM263.264 592.809V600H264.515V593.8H267.393V600H268.644V592.809H263.264ZM270.558 597.888C270.558 598.631 270.781 599.191 271.227 599.569C271.679 599.948 272.228 600.137 272.875 600.137C273.417 600.137 273.859 600.027 274.201 599.809C274.547 599.585 274.798 599.33 274.953 599.043C274.971 599.221 275.003 599.398 275.049 599.576C275.099 599.749 275.154 599.891 275.213 600H276.423V599.891C276.345 599.69 276.284 599.46 276.238 599.2C276.197 598.936 276.177 598.656 276.177 598.359V595.078C276.177 594.24 275.953 593.618 275.507 593.212C275.06 592.806 274.429 592.604 273.613 592.604C272.802 592.604 272.157 592.813 271.679 593.232C271.2 593.647 270.961 594.148 270.961 594.736V594.771H272.205V594.736C272.205 594.436 272.31 594.171 272.519 593.943C272.734 593.715 273.087 593.602 273.579 593.602C274.076 593.602 274.424 593.738 274.625 594.012C274.825 594.285 274.926 594.641 274.926 595.078V595.577H273.456C272.595 595.577 271.895 595.778 271.357 596.179C270.824 596.58 270.558 597.149 270.558 597.888ZM271.808 597.847C271.808 597.4 271.959 597.058 272.26 596.821C272.56 596.584 273 596.466 273.579 596.466H274.926V597.56C274.926 597.979 274.739 598.348 274.365 598.667C273.991 598.981 273.579 599.139 273.128 599.139C272.681 599.139 272.349 599.029 272.13 598.811C271.916 598.587 271.808 598.266 271.808 597.847Z" fill="#2B2C2E"/>
<rect x="229.5" y="581.5" width="60" height="27" rx="5.5" stroke="#E9E8EE"/>
<rect x="431.5" y="564.5" width="96" height="27" rx="5.5" fill="white"/>
<path d="M444.012 575.809V583H445.263V576.8H448.332V575.809H444.012ZM449.453 579.514C449.453 580.635 449.742 581.53 450.321 582.2C450.9 582.87 451.675 583.205 452.645 583.205C453.616 583.205 454.391 582.87 454.969 582.2C455.548 581.53 455.838 580.635 455.838 579.514V579.295C455.838 578.174 455.548 577.278 454.969 576.608C454.391 575.938 453.616 575.604 452.645 575.604C451.675 575.604 450.9 575.938 450.321 576.608C449.742 577.278 449.453 578.174 449.453 579.295V579.514ZM450.731 579.213C450.731 578.465 450.888 577.848 451.203 577.36C451.517 576.873 451.998 576.629 452.645 576.629C453.288 576.629 453.766 576.87 454.081 577.354C454.4 577.837 454.559 578.456 454.559 579.213V579.596C454.559 580.343 454.398 580.961 454.074 581.448C453.755 581.936 453.279 582.18 452.645 582.18C452.012 582.18 451.533 581.936 451.21 581.448C450.891 580.961 450.731 580.343 450.731 579.596V579.213ZM459.385 576.8H461.832V583H463.077V575.809H458.271L458.127 579.787C458.095 580.576 458.023 581.147 457.909 581.503C457.795 581.858 457.576 582.036 457.252 582.036C457.152 582.036 457.066 582.029 456.993 582.016C456.92 582.002 456.845 581.979 456.767 581.947V583.014C456.854 583.055 456.954 583.084 457.068 583.103C457.186 583.125 457.325 583.137 457.485 583.137C458.168 583.137 458.626 582.863 458.859 582.316C459.091 581.77 459.228 580.967 459.269 579.91L459.385 576.8ZM464.97 579.514C464.97 580.635 465.25 581.53 465.811 582.2C466.371 582.87 467.176 583.205 468.224 583.205C468.866 583.205 469.416 583.062 469.871 582.774C470.327 582.483 470.666 582.15 470.89 581.776L470.035 581.168C469.844 581.441 469.598 581.678 469.297 581.879C469.001 582.079 468.634 582.18 468.196 582.18C467.522 582.18 467.028 581.943 466.713 581.469C466.399 580.99 466.241 580.366 466.241 579.596V579.213C466.241 578.429 466.394 577.802 466.699 577.333C467.005 576.864 467.46 576.629 468.067 576.629C468.6 576.629 468.996 576.813 469.256 577.183C469.516 577.547 469.646 577.996 469.646 578.529V578.687H465.708V579.685H470.91V579.172C470.91 578.042 470.66 577.164 470.158 576.54C469.662 575.916 468.953 575.604 468.032 575.604C467.112 575.604 466.371 575.938 465.811 576.608C465.25 577.278 464.97 578.174 464.97 579.295V579.514ZM472.749 575.809V583H474V579.821H476.933V583H478.183V575.809H476.933V578.83H474V575.809H472.749ZM480.063 579.514C480.063 580.635 480.352 581.53 480.931 582.2C481.51 582.87 482.285 583.205 483.255 583.205C484.226 583.205 485.001 582.87 485.58 582.2C486.158 581.53 486.448 580.635 486.448 579.514V579.295C486.448 578.174 486.158 577.278 485.58 576.608C485.001 575.938 484.226 575.604 483.255 575.604C482.285 575.604 481.51 575.938 480.931 576.608C480.352 577.278 480.063 578.174 480.063 579.295V579.514ZM481.341 579.213C481.341 578.465 481.499 577.848 481.813 577.36C482.128 576.873 482.608 576.629 483.255 576.629C483.898 576.629 484.377 576.87 484.691 577.354C485.01 577.837 485.17 578.456 485.17 579.213V579.596C485.17 580.343 485.008 580.961 484.684 581.448C484.365 581.936 483.889 582.18 483.255 582.18C482.622 582.18 482.143 581.936 481.82 581.448C481.501 580.961 481.341 580.343 481.341 579.596V579.213ZM487.89 579.514C487.89 580.635 488.168 581.53 488.724 582.2C489.28 582.87 490.036 583.205 490.993 583.205C491.909 583.205 492.6 582.952 493.065 582.446C493.534 581.936 493.769 581.353 493.769 580.696V580.662H492.559V580.696C492.559 581.088 492.436 581.435 492.19 581.735C491.948 582.032 491.549 582.18 490.993 582.18C490.374 582.18 489.913 581.936 489.613 581.448C489.316 580.961 489.168 580.343 489.168 579.596V579.213C489.168 578.465 489.319 577.85 489.619 577.367C489.92 576.88 490.385 576.636 491.014 576.636C491.57 576.636 491.966 576.784 492.203 577.08C492.44 577.376 492.559 577.72 492.559 578.112V578.146H493.769V578.112C493.769 577.456 493.534 576.875 493.065 576.369C492.6 575.859 491.919 575.604 491.021 575.604C490.046 575.604 489.28 575.938 488.724 576.608C488.168 577.278 487.89 578.174 487.89 579.295V579.514ZM494.685 576.8H496.817V583H498.062V576.8H500.194V575.809H494.685V576.8ZM501.315 579.514C501.315 580.635 501.605 581.53 502.183 582.2C502.762 582.87 503.537 583.205 504.508 583.205C505.478 583.205 506.253 582.87 506.832 582.2C507.411 581.53 507.7 580.635 507.7 579.514V579.295C507.7 578.174 507.411 577.278 506.832 576.608C506.253 575.938 505.478 575.604 504.508 575.604C503.537 575.604 502.762 575.938 502.183 576.608C501.605 577.278 501.315 578.174 501.315 579.295V579.514ZM502.594 579.213C502.594 578.465 502.751 577.848 503.065 577.36C503.38 576.873 503.86 576.629 504.508 576.629C505.15 576.629 505.629 576.87 505.943 577.354C506.262 577.837 506.422 578.456 506.422 579.213V579.596C506.422 580.343 506.26 580.961 505.936 581.448C505.617 581.936 505.141 582.18 504.508 582.18C503.874 582.18 503.396 581.936 503.072 581.448C502.753 580.961 502.594 580.343 502.594 579.596V579.213ZM509.573 575.809V583H510.824V576.8H513.702V583H514.953V575.809H509.573Z" fill="#2B2C2E"/>
<rect x="431.5" y="564.5" width="96" height="27" rx="5.5" stroke="#E9E8EE"/>
<rect x="0.5" y="183.5" width="210" height="27" rx="5.5" fill="white"/>
<path d="M13.0117 194.809V202H14.2627V195.8H17.332V194.809H13.0117ZM18.8835 204.844H20.1345V201.214C20.3305 201.496 20.5902 201.722 20.9138 201.891C21.2419 202.055 21.6384 202.137 22.1032 202.137C22.9555 202.137 23.6368 201.795 24.1472 201.111C24.6576 200.428 24.9128 199.562 24.9128 198.514V198.295C24.9128 197.247 24.6576 196.381 24.1472 195.697C23.6368 195.014 22.9555 194.672 22.1032 194.672C21.6384 194.672 21.2305 194.772 20.8796 194.973C20.5333 195.173 20.2758 195.417 20.1071 195.704H20.073L20.0183 194.809H18.8835V204.844ZM20.1345 199.963V196.846C20.2621 196.559 20.4717 196.297 20.7634 196.06C21.0596 195.818 21.4174 195.697 21.8366 195.697C22.4519 195.697 22.9053 195.934 23.197 196.408C23.4887 196.878 23.6345 197.479 23.6345 198.213V198.596C23.6345 199.329 23.4864 199.933 23.1902 200.407C22.8985 200.877 22.4428 201.111 21.823 201.111C21.39 201.111 21.03 200.991 20.7429 200.749C20.4558 200.503 20.253 200.241 20.1345 199.963ZM26.1293 204.844C26.2478 204.889 26.3732 204.924 26.5053 204.946C26.6375 204.969 26.7901 204.98 26.9633 204.98C27.4829 204.98 27.9204 204.803 28.2758 204.447C28.6358 204.092 28.9457 203.524 29.2055 202.745L31.8989 194.809H30.7026L29.2329 199.498C29.1782 199.68 29.1258 199.851 29.0756 200.011C29.0301 200.17 28.9913 200.327 28.9594 200.482H28.9184C28.8911 200.327 28.8546 200.17 28.809 200.011C28.7635 199.851 28.711 199.68 28.6518 199.498L27.1 194.809H25.8696L28.3852 201.952V201.959C28.1072 202.82 27.8634 203.358 27.6538 203.572C27.4487 203.791 27.198 203.9 26.9018 203.9C26.7742 203.9 26.6398 203.889 26.4985 203.866C26.3618 203.843 26.2387 203.814 26.1293 203.777V204.844ZM38.297 203.846H39.4455V201.009H32.2541V203.846H33.4025V202H38.297V203.846ZM34.7218 195.8H37.2033V202H38.4543V194.809H33.6076L33.464 198.541C33.4367 199.329 33.3729 199.922 33.2726 200.318C33.1724 200.71 33.0425 201.02 32.883 201.248H34.1886C34.3117 200.965 34.4074 200.64 34.4757 200.271C34.5441 199.901 34.5897 199.354 34.6125 198.63L34.7218 195.8ZM40.8876 194.809V202H42.1386V198.821H45.0712V202H46.3221V194.809H45.0712V197.83H42.1386V194.809H40.8876ZM48.2018 198.514C48.2018 199.635 48.4911 200.53 49.0699 201.2C49.6487 201.87 50.4234 202.205 51.3941 202.205C52.3648 202.205 53.1396 201.87 53.7184 201.2C54.2971 200.53 54.5865 199.635 54.5865 198.514V198.295C54.5865 197.174 54.2971 196.278 53.7184 195.608C53.1396 194.938 52.3648 194.604 51.3941 194.604C50.4234 194.604 49.6487 194.938 49.0699 195.608C48.4911 196.278 48.2018 197.174 48.2018 198.295V198.514ZM49.4801 198.213C49.4801 197.465 49.6373 196.848 49.9518 196.36C50.2662 195.873 50.747 195.629 51.3941 195.629C52.0367 195.629 52.5152 195.87 52.8297 196.354C53.1487 196.837 53.3082 197.456 53.3082 198.213V198.596C53.3082 199.343 53.1464 199.961 52.8229 200.448C52.5038 200.936 52.0276 201.18 51.3941 201.18C50.7607 201.18 50.2822 200.936 49.9586 200.448C49.6396 199.961 49.4801 199.343 49.4801 198.596V198.213ZM56.4593 202H57.7103L60.3079 197.516C60.39 197.37 60.4652 197.226 60.5335 197.085C60.6064 196.944 60.6725 196.818 60.7318 196.709H60.807C60.8024 196.846 60.7978 197.003 60.7933 197.181C60.7887 197.358 60.7864 197.516 60.7864 197.652V202H62.0238V194.809H60.7728L58.1751 199.3C58.0931 199.441 58.0156 199.58 57.9427 199.717C57.8698 199.849 57.8037 199.972 57.7445 200.086H57.6829C57.6875 199.949 57.6898 199.797 57.6898 199.628C57.6943 199.455 57.6966 199.3 57.6966 199.163V194.809H56.4593V202ZM59.2484 192.635C58.9339 192.635 58.6741 192.553 58.4691 192.389C58.264 192.22 58.0908 191.924 57.9495 191.5L56.9515 192.102C57.1793 192.653 57.4892 193.052 57.8812 193.298C58.2777 193.544 58.7334 193.667 59.2484 193.667C59.7588 193.667 60.2145 193.542 60.6155 193.291C61.0166 193.04 61.3265 192.644 61.5452 192.102L60.554 191.521C60.4127 191.917 60.2373 192.202 60.0277 192.375C59.8226 192.548 59.5628 192.635 59.2484 192.635ZM67.5945 198.514C67.5945 199.635 67.8839 200.53 68.4627 201.2C69.0414 201.87 69.8162 202.205 70.7869 202.205C71.7576 202.205 72.5323 201.87 73.1111 201.2C73.6899 200.53 73.9793 199.635 73.9793 198.514V198.295C73.9793 197.174 73.6899 196.278 73.1111 195.608C72.5323 194.938 71.7576 194.604 70.7869 194.604C69.8162 194.604 69.0414 194.938 68.4627 195.608C67.8839 196.278 67.5945 197.174 67.5945 198.295V198.514ZM68.8728 198.213C68.8728 197.465 69.03 196.848 69.3445 196.36C69.6589 195.873 70.1397 195.629 70.7869 195.629C71.4295 195.629 71.908 195.87 72.2224 196.354C72.5414 196.837 72.7009 197.456 72.7009 198.213V198.596C72.7009 199.343 72.5392 199.961 72.2156 200.448C71.8966 200.936 71.4203 201.18 70.7869 201.18C70.1534 201.18 69.6749 200.936 69.3513 200.448C69.0323 199.961 68.8728 199.343 68.8728 198.596V198.213ZM75.1001 195.8H77.2329V202H78.477V195.8H80.6098V194.809H75.1001V195.8ZM87.2609 203.846H88.4094V201.009H81.218V203.846H82.3664V202H87.2609V203.846ZM83.6857 195.8H86.1672V202H87.4182V194.809H82.5715L82.4279 198.541C82.4006 199.329 82.3368 199.922 82.2365 200.318C82.1363 200.71 82.0064 201.02 81.8469 201.248H83.1525C83.2756 200.965 83.3713 200.64 83.4397 200.271C83.508 199.901 83.5536 199.354 83.5764 198.63L83.6857 195.8ZM89.4208 198.514C89.4208 199.635 89.7011 200.53 90.2616 201.2C90.8222 201.87 91.6266 202.205 92.6747 202.205C93.3173 202.205 93.8665 202.062 94.3222 201.774C94.7779 201.483 95.1174 201.15 95.3407 200.776L94.4863 200.168C94.2948 200.441 94.0488 200.678 93.748 200.879C93.4517 201.079 93.0849 201.18 92.6474 201.18C91.9729 201.18 91.4784 200.943 91.164 200.469C90.8495 199.99 90.6923 199.366 90.6923 198.596V198.213C90.6923 197.429 90.845 196.802 91.1503 196.333C91.4557 195.864 91.9114 195.629 92.5175 195.629C93.0507 195.629 93.4472 195.813 93.707 196.183C93.9667 196.547 94.0966 196.996 94.0966 197.529V197.687H90.1591V198.685H95.3613V198.172C95.3613 197.042 95.1106 196.164 94.6093 195.54C94.1126 194.916 93.4039 194.604 92.4833 194.604C91.5627 194.604 90.8222 194.938 90.2616 195.608C89.7011 196.278 89.4208 197.174 89.4208 198.295V198.514ZM98.8746 195.8H101.322V202H102.566V194.809H97.7604L97.6168 198.787C97.5849 199.576 97.512 200.147 97.3981 200.503C97.2842 200.858 97.0654 201.036 96.7418 201.036C96.6416 201.036 96.555 201.029 96.4821 201.016C96.4092 201.002 96.334 200.979 96.2565 200.947V202.014C96.3431 202.055 96.4433 202.084 96.5573 202.103C96.6758 202.125 96.8148 202.137 96.9743 202.137C97.6579 202.137 98.1159 201.863 98.3483 201.316C98.5807 200.77 98.7174 199.967 98.7584 198.91L98.8746 195.8ZM108.588 194.809V202H109.839V195.8H112.717V202H113.968V194.809H108.588ZM115.847 198.514C115.847 199.635 116.137 200.53 116.716 201.2C117.294 201.87 118.069 202.205 119.04 202.205C120.011 202.205 120.785 201.87 121.364 201.2C121.943 200.53 122.232 199.635 122.232 198.514V198.295C122.232 197.174 121.943 196.278 121.364 195.608C120.785 194.938 120.011 194.604 119.04 194.604C118.069 194.604 117.294 194.938 116.716 195.608C116.137 196.278 115.847 197.174 115.847 198.295V198.514ZM117.126 198.213C117.126 197.465 117.283 196.848 117.597 196.36C117.912 195.873 118.393 195.629 119.04 195.629C119.682 195.629 120.161 195.87 120.475 196.354C120.794 196.837 120.954 197.456 120.954 198.213V198.596C120.954 199.343 120.792 199.961 120.469 200.448C120.15 200.936 119.673 201.18 119.04 201.18C118.406 201.18 117.928 200.936 117.604 200.448C117.285 199.961 117.126 199.343 117.126 198.596V198.213ZM126.443 202.205C127.3 202.205 127.997 202.002 128.535 201.597C129.072 201.187 129.341 200.617 129.341 199.888C129.341 199.455 129.209 199.102 128.945 198.828C128.681 198.55 128.3 198.372 127.803 198.295V198.274C128.204 198.192 128.523 198.003 128.76 197.707C129.002 197.411 129.123 197.074 129.123 196.695C129.123 196.044 128.899 195.533 128.453 195.164C128.011 194.79 127.363 194.604 126.511 194.604C125.604 194.604 124.903 194.829 124.406 195.28C123.909 195.727 123.661 196.319 123.661 197.058V197.092H124.864V197.058C124.864 196.657 124.991 196.319 125.247 196.046C125.506 195.768 125.914 195.629 126.47 195.629C126.903 195.629 127.238 195.731 127.475 195.937C127.717 196.137 127.837 196.417 127.837 196.777C127.837 197.115 127.739 197.377 127.543 197.563C127.348 197.75 127.024 197.844 126.573 197.844H125.568V198.828H126.682C127.17 198.828 127.521 198.924 127.735 199.115C127.954 199.302 128.063 199.56 128.063 199.888C128.063 200.28 127.924 200.592 127.646 200.824C127.368 201.057 126.969 201.173 126.45 201.173C125.834 201.173 125.399 201.034 125.144 200.756C124.889 200.478 124.761 200.143 124.761 199.751V199.717H123.551V199.751C123.551 200.435 123.795 201.016 124.283 201.494C124.775 201.968 125.495 202.205 126.443 202.205ZM131.344 202H134.4C135.179 202 135.806 201.818 136.28 201.453C136.758 201.084 136.997 200.569 136.997 199.908C136.997 199.471 136.856 199.113 136.573 198.835C136.295 198.552 135.913 198.375 135.425 198.302V198.281C135.826 198.195 136.145 198.017 136.382 197.748C136.624 197.475 136.744 197.135 136.744 196.729C136.744 196.087 136.517 195.606 136.061 195.287C135.605 194.968 134.983 194.809 134.195 194.809H131.344V202ZM132.595 197.851V195.8H134.195C134.65 195.8 134.978 195.886 135.179 196.06C135.379 196.233 135.48 196.479 135.48 196.798C135.48 197.121 135.379 197.379 135.179 197.57C134.978 197.757 134.65 197.851 134.195 197.851H132.595ZM132.595 201.009V198.835H134.4C134.864 198.835 135.204 198.933 135.418 199.129C135.632 199.325 135.739 199.585 135.739 199.908C135.739 200.236 135.63 200.503 135.411 200.708C135.197 200.909 134.86 201.009 134.4 201.009H132.595ZM138.576 198.514C138.576 199.635 138.866 200.53 139.444 201.2C140.023 201.87 140.798 202.205 141.769 202.205C142.739 202.205 143.514 201.87 144.093 201.2C144.672 200.53 144.961 199.635 144.961 198.514V198.295C144.961 197.174 144.672 196.278 144.093 195.608C143.514 194.938 142.739 194.604 141.769 194.604C140.798 194.604 140.023 194.938 139.444 195.608C138.866 196.278 138.576 197.174 138.576 198.295V198.514ZM139.854 198.213C139.854 197.465 140.012 196.848 140.326 196.36C140.641 195.873 141.121 195.629 141.769 195.629C142.411 195.629 142.89 195.87 143.204 196.354C143.523 196.837 143.683 197.456 143.683 198.213V198.596C143.683 199.343 143.521 199.961 143.197 200.448C142.878 200.936 142.402 201.18 141.769 201.18C141.135 201.18 140.657 200.936 140.333 200.448C140.014 199.961 139.854 199.343 139.854 198.596V198.213ZM146.834 194.809V202H148.085V198.821H151.017V202H152.268V194.809H151.017V197.83H148.085V194.809H146.834ZM154.148 198.514C154.148 199.635 154.437 200.53 155.016 201.2C155.595 201.87 156.37 202.205 157.34 202.205C158.311 202.205 159.086 201.87 159.664 201.2C160.243 200.53 160.533 199.635 160.533 198.514V198.295C160.533 197.174 160.243 196.278 159.664 195.608C159.086 194.938 158.311 194.604 157.34 194.604C156.37 194.604 155.595 194.938 155.016 195.608C154.437 196.278 154.148 197.174 154.148 198.295V198.514ZM155.426 198.213C155.426 197.465 155.583 196.848 155.898 196.36C156.212 195.873 156.693 195.629 157.34 195.629C157.983 195.629 158.461 195.87 158.776 196.354C159.095 196.837 159.254 197.456 159.254 198.213V198.596C159.254 199.343 159.093 199.961 158.769 200.448C158.45 200.936 157.974 201.18 157.34 201.18C156.707 201.18 156.228 200.936 155.905 200.448C155.586 199.961 155.426 199.343 155.426 198.596V198.213ZM163.513 196.716V194.809H162.262V196.716C162.262 197.595 162.456 198.245 162.843 198.664C163.23 199.083 163.866 199.293 164.75 199.293C165.238 199.293 165.632 199.266 165.933 199.211C166.238 199.152 166.573 199.083 166.938 199.006V198.008C166.564 198.099 166.234 198.17 165.946 198.22C165.659 198.27 165.329 198.295 164.955 198.295C164.422 198.295 164.048 198.183 163.834 197.96C163.62 197.732 163.513 197.317 163.513 196.716ZM167.56 194.809H166.309V202H167.56V194.809ZM169.863 194.809V202H171.114V198.821H174.047V202H175.298V194.809H174.047V197.83H171.114V194.809H169.863ZM177.608 202H178.859L181.457 197.516C181.539 197.37 181.614 197.226 181.682 197.085C181.755 196.944 181.821 196.818 181.88 196.709H181.956C181.951 196.846 181.947 197.003 181.942 197.181C181.937 197.358 181.935 197.516 181.935 197.652V202H183.172V194.809H181.921L179.324 199.3C179.242 199.441 179.164 199.58 179.091 199.717C179.018 199.849 178.952 199.972 178.893 200.086H178.832C178.836 199.949 178.838 199.797 178.838 199.628C178.843 199.455 178.845 199.3 178.845 199.163V194.809H177.608V202ZM189.817 202H191.3L187.998 197.878L187.226 198.739L189.817 202ZM186.098 197.83V198.821H187.889L191.054 194.809H189.646L187.287 197.83H186.098ZM186.727 194.809H185.476V202H186.727V194.809ZM192.1 199.888C192.1 200.631 192.323 201.191 192.77 201.569C193.221 201.948 193.77 202.137 194.417 202.137C194.959 202.137 195.401 202.027 195.743 201.809C196.09 201.585 196.34 201.33 196.495 201.043C196.513 201.221 196.545 201.398 196.591 201.576C196.641 201.749 196.696 201.891 196.755 202H197.965V201.891C197.887 201.69 197.826 201.46 197.78 201.2C197.739 200.936 197.719 200.656 197.719 200.359V197.078C197.719 196.24 197.495 195.618 197.049 195.212C196.602 194.806 195.971 194.604 195.155 194.604C194.344 194.604 193.699 194.813 193.221 195.232C192.742 195.647 192.503 196.148 192.503 196.736V196.771H193.747V196.736C193.747 196.436 193.852 196.171 194.062 195.943C194.276 195.715 194.629 195.602 195.121 195.602C195.618 195.602 195.966 195.738 196.167 196.012C196.368 196.285 196.468 196.641 196.468 197.078V197.577H194.998C194.137 197.577 193.437 197.778 192.899 198.179C192.366 198.58 192.1 199.149 192.1 199.888ZM193.351 199.847C193.351 199.4 193.501 199.058 193.802 198.821C194.103 198.584 194.542 198.466 195.121 198.466H196.468V199.56C196.468 199.979 196.281 200.348 195.907 200.667C195.534 200.981 195.121 201.139 194.67 201.139C194.223 201.139 193.891 201.029 193.672 200.811C193.458 200.587 193.351 200.266 193.351 199.847Z" fill="#2B2C2E"/>
<rect x="0.5" y="183.5" width="210" height="27" rx="5.5" stroke="#E9E8EE"/>
<rect x="256.5" y="56.5" width="50" height="27" rx="5.5" fill="white"/>
<path d="M269.012 75H278.008V67.8086H276.757V74.0088H274.132V67.8086H272.881V74.0088H270.263V67.8086H269.012V75ZM279.881 71.5137C279.881 72.6348 280.161 73.5303 280.721 74.2002C281.282 74.8701 282.086 75.2051 283.134 75.2051C283.777 75.2051 284.326 75.0615 284.782 74.7744C285.238 74.4827 285.577 74.1501 285.801 73.7764L284.946 73.168C284.755 73.4414 284.509 73.6784 284.208 73.8789C283.912 74.0794 283.545 74.1797 283.107 74.1797C282.433 74.1797 281.938 73.9427 281.624 73.4688C281.309 72.9902 281.152 72.3659 281.152 71.5957V71.2129C281.152 70.429 281.305 69.8024 281.61 69.333C281.915 68.8636 282.371 68.6289 282.977 68.6289C283.51 68.6289 283.907 68.8135 284.167 69.1826C284.426 69.5472 284.556 69.9961 284.556 70.5293V70.6865H280.619V71.6846H285.821V71.1719C285.821 70.0417 285.57 69.1644 285.069 68.54C284.572 67.9157 283.864 67.6035 282.943 67.6035C282.023 67.6035 281.282 67.9385 280.721 68.6084C280.161 69.2783 279.881 70.1738 279.881 71.2949V71.5137ZM288.671 75L290.661 72.0127L289.396 71.8965L287.277 75H288.671ZM291.809 75H293.06V67.8086H290.291C289.412 67.8086 288.733 68.0182 288.254 68.4375C287.78 68.8522 287.543 69.4105 287.543 70.1123C287.543 70.7777 287.774 71.3086 288.234 71.7051C288.694 72.1016 289.353 72.3066 290.209 72.3203L290.278 72.3887H291.809V75ZM290.291 71.3975C289.735 71.3975 289.346 71.279 289.122 71.042C288.899 70.8005 288.788 70.4906 288.788 70.1123C288.788 69.7295 288.899 69.415 289.122 69.1689C289.35 68.9229 289.74 68.7998 290.291 68.7998H291.809V71.3975H290.291Z" fill="#2B2C2E"/>
<rect x="256.5" y="56.5" width="50" height="27" rx="5.5" stroke="#E9E8EE"/>
<path opacity="0.6" d="M406.455 128.042C402.941 125.773 361.943 114.825 296 134.741C298.085 141.141 302.628 154.675 304.121 157.607C305.988 161.271 307.456 163.659 311.128 168.919C314.067 173.126 317.143 178.108 318.314 180.075C322.729 186.523 332.989 199.508 335.343 204.212C338.3 210.12 340.039 215.658 339.879 217.252C339.72 218.846 339.392 224.061 338.754 228.682C338.243 232.38 337.476 236.173 337.157 237.607C336.306 240.384 334.25 246.599 332.845 249.241C331.097 252.528 330.458 257.206 329.507 264.165L329.494 264.262C328.727 269.873 327.907 271.69 328.226 276.1C330.16 264.262 332.425 257.15 340.99 254.534C345.231 253.237 362.276 249.241 380.493 265.891C383.574 268.707 389.164 286.578 384.699 302C384.699 302 398.013 295.642 401.028 292.632C404.636 289.032 410.603 277.208 412.722 273.009L412.792 272.87C418.799 260.971 421.552 265.761 423 269.91C422.485 261.241 422.211 260.624 422.153 257.824C422.094 255.024 420.618 248.734 419.887 245.94L420.449 240.374V232.941C419.819 230.504 418.543 223.081 417.976 219.306C417.266 214.587 417.976 189.743 412.581 167.782C411.211 162.207 409.075 159.537 409.592 155.928C410.005 153.039 412.346 150.547 412.011 144.282C412.011 139.818 409.969 130.311 406.455 128.042Z" fill="url(#paint4_linear_413_12651)"/>
<path opacity="0.6" d="M363.275 408.568C358.745 411.792 350.154 411.001 346.425 410.202C345.883 414.513 345.091 420.878 344.497 422.344C343.754 424.175 342.202 428.262 343.501 432.751C344.801 437.238 348.978 435.04 351.021 434.399C353.063 433.758 360.954 435.407 364.946 438.43C368.938 441.453 374.229 439.62 374.879 437.056C375.529 434.491 377.386 429.544 378.035 428.262C378.685 426.98 380.263 422.308 380.542 420.568C380.82 418.828 381.28 416.006 382.862 406.828C383.845 401.134 379.335 402.615 376.642 402.065C373.95 401.515 368.938 404.539 363.275 408.568Z" fill="url(#paint5_linear_413_12651)"/>
<path opacity="0.6" d="M361.64 531.097C356.706 531.748 353.776 530.482 350.526 530.482C351.781 532.373 350.926 547.314 350.526 549.377C350.127 551.44 349 560.92 349 561.779C349 562.638 352.306 560.787 354.209 559.711C361.64 555.51 370.082 553.631 372.42 553.975C374.757 554.318 375.082 555.624 374.985 553.287C374.928 551.911 374.687 551.074 374.402 549.641C374.117 548.209 373.482 546.115 372.933 542.342C372.591 539.993 371.534 527.554 371.192 528.012C370.85 528.471 366.299 530.482 361.64 531.097Z" fill="url(#paint6_linear_413_12651)"/>
<path opacity="0.6" d="M336.692 539.176C336.11 534.173 330.642 530.881 327.671 532.354C321.245 534.759 320.515 538.967 321.215 541.768C322.119 545.387 324.31 549.048 326.251 550.799C328.157 552.517 329.147 553.404 331.111 554.606C334.146 556.466 334.437 556.761 339.966 561.186C344.719 564.266 346.715 572.011 347.12 575.499L351 585C350.111 582.153 348.308 575.98 348.212 574.055C348.09 571.65 346.208 564.795 345.481 561.186C344.753 557.579 342.925 557.067 339.966 553.248C338.503 551.36 337.419 545.431 336.692 539.176Z" fill="url(#paint7_linear_413_12651)"/>
<path opacity="0.6" d="M356.099 521.527C356.732 519.635 357.714 515.377 356.574 513.485C355.149 511.12 353.249 508.281 351.824 504.497C350.399 500.713 352.299 490.305 350.874 487.94C349.449 485.575 347.549 484.156 346.124 481.79C344.699 479.425 344.699 469.018 343.274 467.126C341.849 465.234 342.324 466.18 340.424 463.814C338.524 461.449 343.684 454.353 342.734 450.569M343.274 466.653C344.857 464.603 348.404 459.368 349.924 454.826C351.824 449.15 351.349 445.838 352.299 443M348.974 485.575C348.341 483.525 347.264 478.763 348.024 476.114C348.974 472.802 356.099 471.856 353.724 462.395M355.559 476.114C356.192 477.691 356.954 482.169 356.574 485.575C356.099 489.832 355.149 496.928 356.099 499.766C357.049 502.605 358.473 505.997 360.374 508.754C363.634 513.485 364.109 515.377 360.374 522" stroke="url(#paint8_linear_413_12651)" stroke-width="3" stroke-linecap="round"/>
<path d="M463 208L412 208" stroke="#2B2C2E"/>
<rect x="462.5" y="194.5" width="141" height="27" rx="5.5" fill="white"/>
<path d="M475.012 205.809V213H476.263V206.8H479.332V205.809H475.012ZM480.884 215.844H482.134V212.214C482.33 212.496 482.59 212.722 482.914 212.891C483.242 213.055 483.638 213.137 484.103 213.137C484.955 213.137 485.637 212.795 486.147 212.111C486.658 211.428 486.913 210.562 486.913 209.514V209.295C486.913 208.247 486.658 207.381 486.147 206.697C485.637 206.014 484.955 205.672 484.103 205.672C483.638 205.672 483.231 205.772 482.88 205.973C482.533 206.173 482.276 206.417 482.107 206.704H482.073L482.018 205.809H480.884V215.844ZM482.134 210.963V207.846C482.262 207.559 482.472 207.297 482.763 207.06C483.06 206.818 483.417 206.697 483.837 206.697C484.452 206.697 484.905 206.934 485.197 207.408C485.489 207.878 485.634 208.479 485.634 209.213V209.596C485.634 210.329 485.486 210.933 485.19 211.407C484.898 211.877 484.443 212.111 483.823 212.111C483.39 212.111 483.03 211.991 482.743 211.749C482.456 211.503 482.253 211.241 482.134 210.963ZM488.129 215.844C488.248 215.889 488.373 215.924 488.505 215.946C488.637 215.969 488.79 215.98 488.963 215.98C489.483 215.98 489.92 215.803 490.276 215.447C490.636 215.092 490.946 214.524 491.206 213.745L493.899 205.809H492.703L491.233 210.498C491.178 210.68 491.126 210.851 491.076 211.011C491.03 211.17 490.991 211.327 490.959 211.482H490.918C490.891 211.327 490.855 211.17 490.809 211.011C490.763 210.851 490.711 210.68 490.652 210.498L489.1 205.809H487.87L490.385 212.952V212.959C490.107 213.82 489.863 214.358 489.654 214.572C489.449 214.791 489.198 214.9 488.902 214.9C488.774 214.9 488.64 214.889 488.498 214.866C488.362 214.843 488.239 214.814 488.129 214.777V215.844ZM500.297 214.846H501.445V212.009H494.254V214.846H495.403V213H500.297V214.846ZM496.722 206.8H499.203V213H500.454V205.809H495.608L495.464 209.541C495.437 210.329 495.373 210.922 495.273 211.318C495.172 211.71 495.042 212.02 494.883 212.248H496.189C496.312 211.965 496.407 211.64 496.476 211.271C496.544 210.901 496.59 210.354 496.612 209.63L496.722 206.8ZM504.139 205.809H502.888V213H505.574C506.467 213 507.155 212.786 507.639 212.357C508.126 211.924 508.37 211.35 508.37 210.635C508.37 209.919 508.126 209.352 507.639 208.933C507.155 208.509 506.467 208.297 505.574 208.297H504.139V205.809ZM505.574 209.288C506.144 209.288 506.543 209.416 506.77 209.671C507.003 209.922 507.119 210.243 507.119 210.635C507.119 211.031 507.003 211.359 506.77 211.619C506.543 211.879 506.144 212.009 505.574 212.009H504.139V209.288H505.574ZM512.088 213.854H513.291L517.195 203.047H515.985L512.088 213.854ZM525.623 213V205.809H524.399V213H525.623ZM528.344 213H529.731L526.997 208.926L526.19 209.76L528.344 213ZM525.014 208.83V209.821H526.84L529.478 205.809H528.145L526.197 208.83H525.014ZM521.685 213L523.825 209.76L523.059 208.926L520.325 213H521.685ZM525.014 208.83H523.825L521.877 205.809H520.537L523.176 209.821H525.014V208.83ZM530.879 213H532.13L534.728 208.516C534.81 208.37 534.885 208.226 534.954 208.085C535.027 207.944 535.093 207.818 535.152 207.709H535.227C535.222 207.846 535.218 208.003 535.213 208.181C535.209 208.358 535.207 208.516 535.207 208.652V213H536.444V205.809H535.193L532.595 210.3C532.513 210.441 532.436 210.58 532.363 210.717C532.29 210.849 532.224 210.972 532.165 211.086H532.103C532.108 210.949 532.11 210.797 532.11 210.628C532.114 210.455 532.117 210.3 532.117 210.163V205.809H530.879V213ZM538.747 213H541.803C542.582 213 543.209 212.818 543.683 212.453C544.161 212.084 544.401 211.569 544.401 210.908C544.401 210.471 544.259 210.113 543.977 209.835C543.699 209.552 543.316 209.375 542.828 209.302V209.281C543.229 209.195 543.548 209.017 543.785 208.748C544.027 208.475 544.148 208.135 544.148 207.729C544.148 207.087 543.92 206.606 543.464 206.287C543.008 205.968 542.386 205.809 541.598 205.809H538.747V213ZM539.998 208.851V206.8H541.598C542.054 206.8 542.382 206.886 542.582 207.06C542.783 207.233 542.883 207.479 542.883 207.798C542.883 208.121 542.783 208.379 542.582 208.57C542.382 208.757 542.054 208.851 541.598 208.851H539.998ZM539.998 212.009V209.835H541.803C542.268 209.835 542.607 209.933 542.821 210.129C543.036 210.325 543.143 210.585 543.143 210.908C543.143 211.236 543.033 211.503 542.815 211.708C542.6 211.909 542.263 212.009 541.803 212.009H539.998ZM545.979 209.514C545.979 210.635 546.269 211.53 546.848 212.2C547.426 212.87 548.201 213.205 549.172 213.205C550.143 213.205 550.917 212.87 551.496 212.2C552.075 211.53 552.364 210.635 552.364 209.514V209.295C552.364 208.174 552.075 207.278 551.496 206.608C550.917 205.938 550.143 205.604 549.172 205.604C548.201 205.604 547.426 205.938 546.848 206.608C546.269 207.278 545.979 208.174 545.979 209.295V209.514ZM547.258 209.213C547.258 208.465 547.415 207.848 547.729 207.36C548.044 206.873 548.525 206.629 549.172 206.629C549.814 206.629 550.293 206.87 550.607 207.354C550.926 207.837 551.086 208.456 551.086 209.213V209.596C551.086 210.343 550.924 210.961 550.601 211.448C550.281 211.936 549.805 212.18 549.172 212.18C548.538 212.18 548.06 211.936 547.736 211.448C547.417 210.961 547.258 210.343 547.258 209.596V209.213ZM553.485 206.8H555.618V213H556.862V206.8H558.995V205.809H553.485V206.8ZM562.535 213.854H563.738L567.642 203.047H566.432L562.535 213.854ZM571.175 206.8H573.308V213H574.552V206.8H576.685V205.809H571.175V206.8ZM577.84 210.888C577.84 211.631 578.063 212.191 578.51 212.569C578.961 212.948 579.51 213.137 580.157 213.137C580.7 213.137 581.142 213.027 581.484 212.809C581.83 212.585 582.081 212.33 582.236 212.043C582.254 212.221 582.286 212.398 582.331 212.576C582.381 212.749 582.436 212.891 582.495 213H583.705V212.891C583.628 212.69 583.566 212.46 583.521 212.2C583.48 211.936 583.459 211.656 583.459 211.359V208.078C583.459 207.24 583.236 206.618 582.789 206.212C582.343 205.806 581.711 205.604 580.896 205.604C580.085 205.604 579.44 205.813 578.961 206.232C578.483 206.647 578.243 207.148 578.243 207.736V207.771H579.488V207.736C579.488 207.436 579.592 207.171 579.802 206.943C580.016 206.715 580.369 206.602 580.862 206.602C581.358 206.602 581.707 206.738 581.907 207.012C582.108 207.285 582.208 207.641 582.208 208.078V208.577H580.739C579.877 208.577 579.178 208.778 578.64 209.179C578.107 209.58 577.84 210.149 577.84 210.888ZM579.091 210.847C579.091 210.4 579.241 210.058 579.542 209.821C579.843 209.584 580.283 209.466 580.862 209.466H582.208V210.56C582.208 210.979 582.021 211.348 581.648 211.667C581.274 211.981 580.862 212.139 580.41 212.139C579.964 212.139 579.631 212.029 579.412 211.811C579.198 211.587 579.091 211.266 579.091 210.847ZM588.046 213.205C588.903 213.205 589.6 213.002 590.138 212.597C590.675 212.187 590.944 211.617 590.944 210.888C590.944 210.455 590.812 210.102 590.548 209.828C590.283 209.55 589.903 209.372 589.406 209.295V209.274C589.807 209.192 590.126 209.003 590.363 208.707C590.605 208.411 590.726 208.074 590.726 207.695C590.726 207.044 590.502 206.533 590.056 206.164C589.614 205.79 588.966 205.604 588.114 205.604C587.207 205.604 586.505 205.829 586.009 206.28C585.512 206.727 585.264 207.319 585.264 208.058V208.092H586.467V208.058C586.467 207.657 586.594 207.319 586.85 207.046C587.109 206.768 587.517 206.629 588.073 206.629C588.506 206.629 588.841 206.731 589.078 206.937C589.32 207.137 589.44 207.417 589.44 207.777C589.44 208.115 589.342 208.377 589.146 208.563C588.95 208.75 588.627 208.844 588.176 208.844H587.171V209.828H588.285C588.773 209.828 589.124 209.924 589.338 210.115C589.557 210.302 589.666 210.56 589.666 210.888C589.666 211.28 589.527 211.592 589.249 211.824C588.971 212.057 588.572 212.173 588.053 212.173C587.437 212.173 587.002 212.034 586.747 211.756C586.492 211.478 586.364 211.143 586.364 210.751V210.717H585.154V210.751C585.154 211.435 585.398 212.016 585.886 212.494C586.378 212.968 587.098 213.205 588.046 213.205Z" fill="#2B2C2E"/>
<rect x="462.5" y="194.5" width="141" height="27" rx="5.5" stroke="#E9E8EE"/>
<path d="M417 208.5C417 211.538 414.538 214 411.5 214C408.462 214 406 211.538 406 208.5C406 205.462 408.462 203 411.5 203C414.538 203 417 205.462 417 208.5Z" fill="#2B2C2E"/>
<path opacity="0.7" fill-rule="evenodd" clip-rule="evenodd" d="M411.5 215.65C415.449 215.65 418.65 212.449 418.65 208.5C418.65 204.551 415.449 201.35 411.5 201.35C407.551 201.35 404.35 204.551 404.35 208.5C404.35 212.449 407.551 215.65 411.5 215.65ZM411.5 216C415.642 216 419 212.642 419 208.5C419 204.358 415.642 201 411.5 201C407.358 201 404 204.358 404 208.5C404 212.642 407.358 216 411.5 216Z" fill="#2B2C2E"/>
<path d="M414 208.5C414 209.881 412.881 211 411.5 211C410.119 211 409 209.881 409 208.5C409 207.119 410.119 206 411.5 206C412.881 206 414 207.119 414 208.5Z" fill="#F5F5F5"/>
<defs>
<linearGradient id="paint0_linear_413_12651" x1="330.488" y1="80.522" x2="335.118" y2="106.817" gradientUnits="userSpaceOnUse">
<stop stop-color="#FFDB53"/>
<stop offset="1" stop-color="#E0A233"/>
</linearGradient>
<linearGradient id="paint1_linear_413_12651" x1="270.921" y1="94.3307" x2="277.157" y2="131.23" gradientUnits="userSpaceOnUse">
<stop stop-color="#FFDB53"/>
<stop offset="1" stop-color="#E0A233"/>
</linearGradient>
<linearGradient id="paint2_linear_413_12651" x1="228.148" y1="96.6727" x2="235.076" y2="122.853" gradientUnits="userSpaceOnUse">
<stop stop-color="#FFDB53"/>
<stop offset="1" stop-color="#E0A233"/>
</linearGradient>
<linearGradient id="paint3_linear_413_12651" x1="103.233" y1="56.5917" x2="114.175" y2="105.66" gradientUnits="userSpaceOnUse">
<stop stop-color="#FFDB53"/>
<stop offset="1" stop-color="#E0A233"/>
</linearGradient>
<linearGradient id="paint4_linear_413_12651" x1="315.813" y1="149.981" x2="371.289" y2="289.711" gradientUnits="userSpaceOnUse">
<stop stop-color="#FFDB53"/>
<stop offset="1" stop-color="#E0A233"/>
</linearGradient>
<linearGradient id="paint5_linear_413_12651" x1="349.24" y1="407.728" x2="357.815" y2="439.772" gradientUnits="userSpaceOnUse">
<stop stop-color="#FFDB53"/>
<stop offset="1" stop-color="#E0A233"/>
</linearGradient>
<linearGradient id="paint6_linear_413_12651" x1="353.056" y1="533.125" x2="363.022" y2="560.179" gradientUnits="userSpaceOnUse">
<stop stop-color="#FFDB53"/>
<stop offset="1" stop-color="#E0A233"/>
</linearGradient>
<linearGradient id="paint7_linear_413_12651" x1="325.68" y1="539.989" x2="344.784" y2="578.376" gradientUnits="userSpaceOnUse">
<stop stop-color="#FFDB53"/>
<stop offset="1" stop-color="#E0A233"/>
</linearGradient>
<linearGradient id="paint8_linear_413_12651" x1="343.588" y1="454.908" x2="379.263" y2="491.78" gradientUnits="userSpaceOnUse">
<stop stop-color="#FFDB53"/>
<stop offset="1" stop-color="#E0A233"/>
</linearGradient>
</defs>
</svg>
