<svg width="72" height="30" viewBox="0 0 72 30" fill="none" xmlns="http://www.w3.org/2000/svg">
<rect width="72" height="30" rx="6" fill="#A2C871"/>
<path d="M7.05371 19H8.48828V14.8105H12.5571V19H13.9917V9.75781H12.5571V13.6553H8.48828V9.75781H7.05371V19ZM15.7563 14.6646C15.7563 16.1287 16.1076 17.2502 16.8101 18.0288C17.5125 18.8032 18.4202 19.1904 19.5332 19.1904C20.6504 19.1904 21.5602 18.8032 22.2627 18.0288C22.9694 17.2502 23.3228 16.1287 23.3228 14.6646V14.0933C23.3228 12.6291 22.9694 11.5098 22.2627 10.7354C21.5602 9.95671 20.6504 9.56738 19.5332 9.56738C18.4202 9.56738 17.5125 9.95671 16.8101 10.7354C16.1076 11.5098 15.7563 12.6291 15.7563 14.0933V14.6646ZM17.2163 14.7788V13.979C17.2163 12.938 17.4237 12.1403 17.8384 11.5859C18.2573 11.0273 18.8244 10.748 19.5396 10.748C20.2505 10.748 20.8154 11.0273 21.2344 11.5859C21.6533 12.1403 21.8628 12.938 21.8628 13.979V14.7788C21.8628 15.8156 21.6533 16.6133 21.2344 17.1719C20.8154 17.7305 20.2505 18.0098 19.5396 18.0098C18.8244 18.0098 18.2573 17.7305 17.8384 17.1719C17.4237 16.6133 17.2163 15.8156 17.2163 14.7788ZM25.0811 19H28.2739C29.1838 19 29.9159 18.7673 30.4702 18.3018C31.0288 17.8363 31.3081 17.1825 31.3081 16.3403C31.3081 15.7437 31.1685 15.2612 30.8892 14.8931C30.6099 14.5249 30.2502 14.2773 29.8101 14.1504V14.125C30.1655 14.0023 30.4618 13.7801 30.6987 13.4585C30.9357 13.1326 31.0542 12.7137 31.0542 12.2017C31.0542 11.3595 30.7897 10.7417 30.2607 10.3481C29.7318 9.95459 29.006 9.75781 28.0835 9.75781H25.0811V19ZM26.4966 17.8828V14.7344H28.2549C28.8135 14.7344 29.224 14.8761 29.4863 15.1597C29.7487 15.439 29.8799 15.8198 29.8799 16.3022C29.8799 16.7889 29.7487 17.174 29.4863 17.4575C29.224 17.741 28.8135 17.8828 28.2549 17.8828H26.4966ZM26.4966 13.6489V10.875H28.0645C28.623 10.875 29.0229 10.9935 29.2642 11.2305C29.5096 11.4674 29.6323 11.806 29.6323 12.2461C29.6323 12.6904 29.5096 13.0353 29.2642 13.2808C29.0229 13.5262 28.623 13.6489 28.0645 13.6489H26.4966ZM39.9917 19V9.75781H38.4492L34.8374 16.1626C34.7655 16.2938 34.6914 16.4398 34.6152 16.6006C34.5433 16.7614 34.484 16.901 34.4375 17.0195H34.3867C34.3952 16.8841 34.3994 16.7233 34.3994 16.5371C34.4036 16.3467 34.4058 16.1838 34.4058 16.0483V9.75781H32.9775V19H34.52L38.1382 12.5571C38.2144 12.4217 38.2863 12.2842 38.354 12.1445C38.4217 12.0007 38.4831 11.8674 38.5381 11.7446H38.5889C38.5804 11.8843 38.5741 12.0387 38.5698 12.208C38.5656 12.373 38.5635 12.5254 38.5635 12.665V19H39.9917ZM42.1055 19H43.54V14.8105H47.6089V19H49.0435V9.75781H47.6089V13.6553H43.54V9.75781H42.1055V19ZM56.4512 19H58.1841L54.1089 13.7061L52.96 14.4233L56.4512 19ZM51.8936 13.6553V14.8169H53.8677L57.8984 9.75781H56.3242L53.2583 13.6553H51.8936ZM51.1572 19H52.5918V9.75781H51.1572V19ZM58.0381 19H59.4219L61.6943 12.1826C61.7451 12.0387 61.7874 11.8949 61.8213 11.751C61.8594 11.6071 61.8911 11.4674 61.9165 11.332H61.9736C61.999 11.4674 62.0286 11.6071 62.0625 11.751C62.1006 11.8949 62.1429 12.0387 62.1895 12.1826L64.4492 19H65.96L62.71 9.70068H61.2627L58.0381 19ZM59.5742 16.7085H64.3604L63.9858 15.5659H59.9424L59.5742 16.7085Z" fill="white"/>
</svg>
