<svg width="34" height="34" viewBox="0 0 34 34" fill="none" xmlns="http://www.w3.org/2000/svg">
<rect width="34" height="34" rx="8" fill="#F5F5F5"/>
<g clip-path="url(#clip0_1354_24798)">
<path fill-rule="evenodd" clip-rule="evenodd" d="M23.6792 13.4697C23.776 13.1512 23.6792 12.9167 23.2154 12.9167H21.6842C21.2945 12.9167 21.1148 13.1192 21.0174 13.3426C21.0174 13.3426 20.2387 15.2069 19.1356 16.4179C18.7786 16.7691 18.6164 16.8805 18.4216 16.8805C18.3242 16.8805 18.1777 16.7691 18.1777 16.45V13.4697C18.1777 13.0871 18.0704 12.9167 17.7461 12.9167H15.3381C15.0948 12.9167 14.9484 13.0941 14.9484 13.2627C14.9484 13.6249 15.5002 13.7089 15.5568 14.7286V16.9441C15.5568 17.43 15.4676 17.5181 15.2727 17.5181C14.7536 17.5181 13.4907 15.645 12.7411 13.5018C12.5958 13.0847 12.4488 12.9167 12.0574 12.9167H10.525C10.0875 12.9167 10 13.1192 10 13.3426C10 13.7404 10.5192 15.7167 12.4179 18.3307C13.6837 20.1157 15.4658 21.0834 17.0892 21.0834C18.0628 21.0834 18.183 20.8687 18.183 20.4983V19.1491C18.183 18.7192 18.2752 18.6334 18.5837 18.6334C18.8112 18.6334 19.2003 18.7454 20.1092 19.6058C21.1475 20.6261 21.3184 21.0834 21.9029 21.0834H23.4342C23.8717 21.0834 24.091 20.8687 23.965 20.4441C23.8262 20.0217 23.3303 19.4087 22.6729 18.6812C22.3159 18.2671 21.7804 17.8208 21.6177 17.5974C21.3907 17.311 21.4555 17.1832 21.6177 16.9283C21.6177 16.9283 23.4843 14.3465 23.6786 13.4697H23.6792Z" fill="#7F818C"/>
</g>
<defs>
<clipPath id="clip0_1354_24798">
<rect width="14" height="14" fill="white" transform="translate(10 10)"/>
</clipPath>
</defs>
</svg>
