<svg width="34" height="34" viewBox="0 0 34 34" fill="none" xmlns="http://www.w3.org/2000/svg">
<rect width="34" height="34" rx="8" fill="#F5F5F5"/>
<path d="M18.9415 14.3595C12.2262 14.4069 10.8542 19.1352 11.0026 21.8957C11.0084 22.0033 11.1544 22.0173 11.1907 21.9158C12.8748 17.2024 16.9976 16.8812 18.9724 17.3411C19.0171 17.3515 19.0469 17.3913 19.0469 17.4372V19.6177C19.0469 19.7068 19.1546 19.7514 19.2176 19.6884L22.9762 15.9298C23.0152 15.8908 23.0152 15.8274 22.9762 15.7884L19.2173 12.0295C19.1543 11.9665 19.0467 12.011 19.0466 12.1001L19.0437 14.2592C19.0437 14.3144 18.9967 14.3591 18.9415 14.3595Z" fill="#7F818C" stroke="#7F818C"/>
</svg>
