<svg width="34" height="34" viewBox="0 0 34 34" fill="none" xmlns="http://www.w3.org/2000/svg">
<rect width="34" height="34" rx="8" fill="#F5F5F5"/>
<path d="M24 17.0434C24 13.1523 20.8644 10 17 10C13.1329 10 10 13.1523 10 17.0434C10 20.558 12.5589 23.4722 15.9062 24V19.0798H14.1287V17.0438H15.9062V15.4912C15.9062 13.7264 16.9497 12.7518 18.5492 12.7518C19.3153 12.7518 20.1172 12.8891 20.1172 12.8891V14.6222H19.233C18.365 14.6222 18.0938 15.1659 18.0938 15.7227V17.0434H20.0349L19.723 19.0793H18.0938V23.9996C21.4384 23.4717 24 20.558 24 17.0434Z" fill="#7F818C"/>
</svg>
