<svg width="34" height="34" viewBox="0 0 34 34" fill="none" xmlns="http://www.w3.org/2000/svg">
<rect width="34" height="34" rx="8" fill="#F5F5F5"/>
<path d="M18.4611 20.1741C19.2051 20.0037 19.9151 19.7096 20.5615 19.3039C20.7894 19.1501 20.9486 18.9136 21.0053 18.6446C21.0619 18.3755 21.0117 18.095 20.8653 17.8623C20.7188 17.6296 20.4876 17.463 20.2205 17.3978C19.9534 17.3325 19.6714 17.3738 19.4341 17.5128C18.7042 17.9684 17.861 18.21 17.0005 18.21C16.14 18.21 15.2968 17.9684 14.5669 17.5128C14.33 17.3634 14.0435 17.314 13.7701 17.3754C13.4968 17.4368 13.259 17.604 13.1087 17.8404V17.8426C13.0345 17.96 12.9842 18.0909 12.9606 18.2278C12.937 18.3647 12.9407 18.5049 12.9715 18.6404C13.0022 18.7758 13.0593 18.9039 13.1397 19.0172C13.22 19.1306 13.3219 19.2269 13.4395 19.3008L13.4412 19.303C14.086 19.7088 14.7949 20.0024 15.5377 20.1714L13.5165 22.1923C13.3186 22.3865 13.2058 22.6513 13.2028 22.9286C13.1999 23.2059 13.307 23.473 13.5007 23.6714L13.5187 23.6894C13.7195 23.8963 13.9907 23.9991 14.262 23.9991C14.5332 23.9991 14.804 23.8963 15.0044 23.6894L17.0007 21.7044L18.9852 23.692C19.407 24.0949 20.0768 24.0857 20.4828 23.6644C20.6733 23.4672 20.7798 23.2037 20.7798 22.9294C20.7798 22.6552 20.6733 22.3917 20.4828 22.1944L18.4611 20.1741ZM17.0003 17.2258C17.9582 17.2252 18.8768 16.8445 19.5543 16.1673C20.2319 15.4901 20.613 14.5717 20.614 13.6137C20.614 11.6223 18.9918 10 17.0003 10C15.0088 10 13.3865 11.6223 13.3865 13.6137C13.3876 14.5719 13.7686 15.4905 14.4461 16.1681C15.1236 16.8456 16.0422 17.2268 17.0003 17.2279V17.2258ZM17.0003 12.1192C17.3966 12.1195 17.7766 12.277 18.0568 12.5572C18.337 12.8375 18.4946 13.2175 18.4948 13.6137C18.4947 14.0104 18.3373 14.3907 18.0571 14.6715C17.777 14.9522 17.3969 15.1104 17.0003 15.1113C16.6035 15.1103 16.2233 14.9521 15.9428 14.6715C15.6623 14.3908 15.5044 14.0105 15.5036 13.6137C15.505 13.2172 15.6631 12.8373 15.9435 12.557C16.2239 12.2766 16.6038 12.1184 17.0003 12.1171V12.1192Z" fill="#7F818C"/>
</svg>
