<svg width="670" height="612" viewBox="0 0 670 612" fill="none" xmlns="http://www.w3.org/2000/svg">
<rect width="670" height="612" fill="white"/>
<path d="M360 210.5C360 213.538 362.462 216 365.5 216C368.538 216 371 213.538 371 210.5C371 207.462 368.538 205 365.5 205C362.462 205 360 207.462 360 210.5Z" fill="#2B2C2E"/>
<path opacity="0.7" fill-rule="evenodd" clip-rule="evenodd" d="M365.5 217.65C361.551 217.65 358.35 214.449 358.35 210.5C358.35 206.551 361.551 203.35 365.5 203.35C369.449 203.35 372.65 206.551 372.65 210.5C372.65 214.449 369.449 217.65 365.5 217.65ZM365.5 218C361.358 218 358 214.642 358 210.5C358 206.358 361.358 203 365.5 203C369.642 203 373 206.358 373 210.5C373 214.642 369.642 218 365.5 218Z" fill="#2B2C2E"/>
<path d="M363 210.5C363 211.881 364.119 213 365.5 213C366.881 213 368 211.881 368 210.5C368 209.119 366.881 208 365.5 208C364.119 208 363 209.119 363 210.5Z" fill="#F5F5F5"/>
<path opacity="0.6" d="M340.125 222.784L340.126 222.784C340.622 222.494 341.189 222.396 341.673 222.313L341.719 222.305C342.234 222.216 342.687 222.133 343.106 221.918C343.113 221.908 343.155 221.856 343.202 221.709C343.264 221.513 343.311 221.215 343.312 220.811C343.316 220.006 343.138 218.845 342.621 217.379C341.594 214.46 339.24 210.373 334.405 205.554C333.348 204.973 332.411 204.27 331.438 203.54C331.302 203.437 331.165 203.335 331.026 203.231C329.875 202.373 328.616 201.472 326.954 200.616C323.635 198.909 318.653 197.357 309.691 196.807C303.415 196.422 299.802 196.379 296.486 196.794C293.168 197.208 290.133 198.083 284.999 199.568C282.738 200.221 280.044 201.437 277.745 203.083C275.437 204.734 273.585 206.775 272.907 209.057L272.907 209.057C271.344 214.319 269.5 222.927 269.5 227.706C269.5 233.035 270.945 240.283 272.346 244.068L272.347 244.068C273.453 247.058 275.589 250.646 277.603 253.659C279.617 256.671 281.478 259.061 282.009 259.652C282.536 260.238 284.033 261.679 286.175 263.096C288.317 264.513 291.075 265.888 294.129 266.377C296.54 266.764 300.587 266.205 304.867 265.177C309.114 264.157 313.502 262.697 316.574 261.337L322.169 258.224L322.169 258.224L327.703 255.145L328.998 253.6L328.98 253.602C328.697 253.633 328.215 253.621 327.756 253.401C327.268 253.168 326.84 252.712 326.716 251.946L326.716 251.945C326.486 250.517 326.847 249.685 327.217 248.832C327.277 248.696 327.336 248.559 327.394 248.419L327.394 248.418C327.51 248.134 327.755 247.788 328.03 247.446C328.316 247.092 328.671 246.699 329.045 246.31C329.778 245.549 330.615 244.778 331.202 244.328C332.211 243.287 333.717 241.731 334.989 240.412C335.63 239.747 336.212 239.142 336.64 238.695C336.854 238.471 337.03 238.287 337.155 238.154C337.217 238.088 337.266 238.036 337.301 237.998C337.331 237.965 337.342 237.953 337.342 237.953C337.342 237.953 337.34 237.955 337.338 237.958C337.388 237.893 337.454 237.839 337.481 237.817L337.483 237.815C337.525 237.781 337.577 237.741 337.635 237.699C337.75 237.613 337.904 237.504 338.082 237.38C338.438 237.133 338.903 236.817 339.377 236.496L339.515 236.402C340.434 235.78 341.321 235.179 341.551 234.991C341.793 234.793 342.771 233.863 343.78 232.86C344.28 232.363 344.779 231.856 345.188 231.424C345.606 230.982 345.905 230.644 346.026 230.474C346.393 229.954 347.125 228.954 347.65 228.24C347.362 228.345 347.02 228.475 346.616 228.633L346.434 228.167L346.616 228.633C345.306 229.143 344.321 229.61 343.476 230.011C343.136 230.173 342.819 230.323 342.512 230.461C341.449 230.941 340.532 231.262 339.369 231.262C338.91 231.262 338.472 231.274 338.051 231.285C337.995 231.286 337.939 231.288 337.883 231.289C337.415 231.301 336.967 231.311 336.554 231.299C335.754 231.274 334.97 231.169 334.401 230.725L334.401 230.725C333.955 230.378 333.328 229.819 332.988 229.125C332.814 228.769 332.706 228.359 332.754 227.916C332.803 227.469 333.007 227.035 333.377 226.629C333.377 226.629 333.377 226.629 333.377 226.629L333.746 226.966C334.479 226.162 335.359 225.838 336.147 225.548C336.394 225.458 336.631 225.37 336.852 225.273C337.446 225.01 338.418 224.412 339.296 223.872C339.69 223.63 340.065 223.399 340.378 223.216L340.125 222.784ZM340.125 222.784C339.809 222.97 339.424 223.206 339.026 223.451C338.785 223.599 338.539 223.75 338.3 223.895C337.648 224.291 337.046 224.64 336.65 224.815L340.125 222.784Z" fill="url(#paint0_linear_409_11943)" stroke="url(#paint1_linear_409_11943)"/>
<path opacity="0.6" d="M370.886 237.132C370.497 237.25 370.152 237.343 369.87 237.407C370.212 236.915 370.716 236.228 371.276 235.481C371.911 234.632 372.601 233.729 373.167 232.995L374.347 235.922C373.306 236.322 371.972 236.804 370.886 237.132ZM369.227 237.498C369.226 237.498 369.225 237.498 369.225 237.498L369.227 237.498Z" fill="url(#paint2_linear_409_11943)" stroke="url(#paint3_linear_409_11943)"/>
<path opacity="0.6" d="M354.319 209.41L354.319 209.41C354.874 206.45 356.589 204.35 358.532 202.918C360.181 201.704 361.98 200.983 363.326 200.642C362.832 204.077 362.812 206.714 363.754 210.085L363.765 210.127L363.784 210.167C364.484 211.628 365.107 212.974 365.593 214.024C365.881 214.645 366.121 215.163 366.3 215.54C366.201 215.568 366.094 215.596 365.981 215.623C365.61 215.712 365.218 215.777 364.909 215.777C364.345 215.777 364.184 215.733 363.697 215.602C363.46 215.538 363.146 215.454 362.671 215.343L362.671 215.343C361.933 215.172 361.589 215.194 361.264 215.273C361.221 215.283 361.186 215.292 361.155 215.3C361.08 215.32 361.03 215.333 360.951 215.343C360.853 215.356 360.706 215.362 360.459 215.333C360.277 215.312 360.057 215.335 359.844 215.369C359.62 215.405 359.359 215.462 359.075 215.533C358.507 215.676 357.82 215.883 357.106 216.114C355.885 216.51 354.563 216.984 353.576 217.355C353.574 217.341 353.572 217.328 353.569 217.314C353.521 217.012 353.489 216.552 353.503 215.892C353.531 214.575 353.738 212.508 354.319 209.41Z" fill="url(#paint4_linear_409_11943)" stroke="url(#paint5_linear_409_11943)"/>
<path opacity="0.6" d="M333.402 533.408C332.217 531.039 330.203 523.696 331.625 513.274C333.402 500.246 335.772 493.14 331.625 488.994C327.478 484.849 323.332 465.899 325.109 458.793C326.886 451.687 333.402 452.279 333.402 441.62V428M318 430.961C318.987 430.961 321.08 432.382 321.554 438.067C322.147 445.173 319.185 449.318 321.554 451.687C323.45 453.582 325.899 454.845 326.886 455.24M336.364 448.134C336.562 453.464 336.246 464.715 333.402 467.084C329.848 470.045 332.217 477.743 333.402 483.073C334.35 487.336 333.797 491.166 333.402 492.547M338.734 470.637C339.919 473.598 341.933 480.585 340.511 484.849C338.734 490.179 338.141 497.877 336.957 503.799C335.772 509.721 337.549 512.089 338.141 518.011C338.615 522.749 337.549 530.644 336.957 534" stroke="url(#paint6_linear_409_11943)" stroke-width="3" stroke-linecap="round"/>
<path opacity="0.6" d="M299.299 577.924C299.31 577.921 299.318 577.918 299.325 577.916C299.352 577.912 299.382 577.906 299.415 577.898C299.492 577.88 299.623 577.845 299.854 577.777C300.318 577.641 301.211 577.363 302.937 576.795C303.417 576.637 303.839 576.499 304.213 576.376C305.774 575.865 306.489 575.631 306.996 575.414C307.408 575.238 307.704 575.064 308.192 574.776C308.459 574.618 308.782 574.428 309.213 574.184C311.02 573.165 311.704 572.624 312.555 571.952C312.787 571.769 313.031 571.576 313.314 571.361C313.952 570.877 315.725 569.773 317.647 568.748C318.604 568.237 319.587 567.752 320.473 567.377C321.37 566.997 322.128 566.747 322.648 566.68C323.175 566.612 323.761 566.65 324.415 566.737C324.74 566.78 325.074 566.834 325.422 566.892L325.494 566.904C325.817 566.957 326.152 567.012 326.49 567.06C327.94 567.267 329.554 567.362 331.131 566.638C331.906 566.283 333.086 565.475 334.401 564.514C335.312 563.847 336.313 563.089 337.322 562.324C337.782 561.976 338.244 561.626 338.699 561.282C340.161 560.182 341.559 559.154 342.672 558.439C343.231 558.08 343.7 557.812 344.06 557.653C344.241 557.573 344.376 557.528 344.47 557.51C344.504 557.503 344.526 557.501 344.538 557.5C344.756 557.608 344.975 557.808 345.185 558.105C345.402 558.412 345.592 558.795 345.747 559.213C346.061 560.054 346.212 560.96 346.212 561.503C346.212 562.013 346.274 562.794 346.34 563.614C346.356 563.815 346.372 564.018 346.387 564.221C346.469 565.277 346.532 566.311 346.483 566.979C346.483 566.976 346.482 566.986 346.476 567.012C346.47 567.037 346.461 567.071 346.447 567.112C346.42 567.196 346.379 567.3 346.326 567.42C346.219 567.66 346.068 567.944 345.893 568.22C345.716 568.497 345.523 568.753 345.333 568.944C345.133 569.146 344.985 569.226 344.906 569.243C344.642 569.301 344.313 569.425 343.951 569.563L343.894 569.585C343.529 569.723 343.094 569.889 342.566 570.062C341.458 570.427 339.934 570.831 337.847 571.075C334.604 571.455 327.349 571.346 324.343 571.301C323.763 571.293 323.341 571.286 323.137 571.286C322.846 571.286 322.538 571.271 322.202 571.252C322.17 571.25 322.137 571.248 322.105 571.247C321.8 571.23 321.475 571.211 321.139 571.203C320.39 571.186 319.563 571.217 318.673 571.423L318.673 571.424C316.989 571.815 313.802 572.76 311.431 574.373L311.431 574.373C311.291 574.468 311.155 574.561 311.022 574.652C308.518 576.36 307.183 577.27 305.164 577.617C304.739 577.69 304.388 577.765 304.061 577.835C304.033 577.841 304.005 577.847 303.977 577.853C303.625 577.928 303.294 577.996 302.901 578.055C302.117 578.173 301.062 578.257 299.116 578.257H299.066L299.017 578.267C298.585 578.354 298.186 578.447 297.815 578.541C298.432 578.255 298.824 578.095 299.058 578.007C299.178 577.963 299.255 577.937 299.299 577.924Z" fill="url(#paint7_linear_409_11943)" stroke="url(#paint8_linear_409_11943)"/>
<path d="M285 245L198 245" stroke="#2B2C2E"/>
<path d="M280 245.5C280 248.538 282.462 251 285.5 251C288.538 251 291 248.538 291 245.5C291 242.462 288.538 240 285.5 240C282.462 240 280 242.462 280 245.5Z" fill="#2B2C2E"/>
<path opacity="0.7" fill-rule="evenodd" clip-rule="evenodd" d="M285.5 252.65C281.551 252.65 278.35 249.449 278.35 245.5C278.35 241.551 281.551 238.35 285.5 238.35C289.449 238.35 292.65 241.551 292.65 245.5C292.65 249.449 289.449 252.65 285.5 252.65ZM285.5 253C281.358 253 278 249.642 278 245.5C278 241.358 281.358 238 285.5 238C289.642 238 293 241.358 293 245.5C293 249.642 289.642 253 285.5 253Z" fill="#2B2C2E"/>
<path d="M283 245.5C283 246.881 284.119 248 285.5 248C286.881 248 288 246.881 288 245.5C288 244.119 286.881 243 285.5 243C284.119 243 283 244.119 283 245.5Z" fill="#F5F5F5"/>
<rect x="135.5" y="231.5" width="62" height="27" rx="5.5" fill="white"/>
<path d="M152.154 250V242.809H150.931V250H152.154ZM154.875 250H156.263L153.528 245.926L152.722 246.76L154.875 250ZM151.546 245.83V246.821H153.371L156.01 242.809H154.677L152.729 245.83H151.546ZM148.217 250L150.356 246.76L149.591 245.926L146.856 250H148.217ZM151.546 245.83H150.356L148.408 242.809H147.068L149.707 246.821H151.546V245.83ZM157.411 250H158.662L161.259 245.516C161.342 245.37 161.417 245.226 161.485 245.085C161.558 244.944 161.624 244.818 161.683 244.709H161.759C161.754 244.846 161.749 245.003 161.745 245.181C161.74 245.358 161.738 245.516 161.738 245.652V250H162.975V242.809H161.724L159.127 247.3C159.045 247.441 158.967 247.58 158.894 247.717C158.821 247.849 158.755 247.972 158.696 248.086H158.634C158.639 247.949 158.641 247.797 158.641 247.628C158.646 247.455 158.648 247.3 158.648 247.163V242.809H157.411V250ZM165.279 250H168.334C169.114 250 169.74 249.818 170.214 249.453C170.693 249.084 170.932 248.569 170.932 247.908C170.932 247.471 170.791 247.113 170.508 246.835C170.23 246.552 169.847 246.375 169.36 246.302V246.281C169.761 246.195 170.08 246.017 170.317 245.748C170.558 245.475 170.679 245.135 170.679 244.729C170.679 244.087 170.451 243.606 169.996 243.287C169.54 242.968 168.918 242.809 168.129 242.809H165.279V250ZM166.53 245.851V243.8H168.129C168.585 243.8 168.913 243.886 169.114 244.06C169.314 244.233 169.414 244.479 169.414 244.798C169.414 245.121 169.314 245.379 169.114 245.57C168.913 245.757 168.585 245.851 168.129 245.851H166.53ZM166.53 249.009V246.835H168.334C168.799 246.835 169.139 246.933 169.353 247.129C169.567 247.325 169.674 247.585 169.674 247.908C169.674 248.236 169.565 248.503 169.346 248.708C169.132 248.909 168.795 249.009 168.334 249.009H166.53ZM172.511 246.514C172.511 247.635 172.8 248.53 173.379 249.2C173.958 249.87 174.733 250.205 175.703 250.205C176.674 250.205 177.449 249.87 178.028 249.2C178.606 248.53 178.896 247.635 178.896 246.514V246.295C178.896 245.174 178.606 244.278 178.028 243.608C177.449 242.938 176.674 242.604 175.703 242.604C174.733 242.604 173.958 242.938 173.379 243.608C172.8 244.278 172.511 245.174 172.511 246.295V246.514ZM173.789 246.213C173.789 245.465 173.946 244.848 174.261 244.36C174.575 243.873 175.056 243.629 175.703 243.629C176.346 243.629 176.824 243.87 177.139 244.354C177.458 244.837 177.617 245.456 177.617 246.213V246.596C177.617 247.343 177.456 247.961 177.132 248.448C176.813 248.936 176.337 249.18 175.703 249.18C175.07 249.18 174.591 248.936 174.268 248.448C173.949 247.961 173.789 247.343 173.789 246.596V246.213ZM180.016 243.8H182.149V250H183.393V243.8H185.526V242.809H180.016V243.8Z" fill="#2B2C2E"/>
<rect x="135.5" y="231.5" width="62" height="27" rx="5.5" stroke="#E9E8EE"/>
<path d="M337 481H393" stroke="#2B2C2E"/>
<path d="M332 481.5C332 484.538 334.462 487 337.5 487C340.538 487 343 484.538 343 481.5C343 478.462 340.538 476 337.5 476C334.462 476 332 478.462 332 481.5Z" fill="#2B2C2E"/>
<path opacity="0.7" fill-rule="evenodd" clip-rule="evenodd" d="M337.5 488.573C333.594 488.573 330.427 485.406 330.427 481.5C330.427 477.594 333.594 474.427 337.5 474.427C341.406 474.427 344.573 477.594 344.573 481.5C344.573 485.406 341.406 488.573 337.5 488.573ZM337.5 489C333.358 489 330 485.642 330 481.5C330 477.358 333.358 474 337.5 474C341.642 474 345 477.358 345 481.5C345 485.642 341.642 489 337.5 489Z" fill="#2B2C2E"/>
<path d="M335 481.5C335 482.881 336.119 484 337.5 484C338.881 484 340 482.881 340 481.5C340 480.119 338.881 479 337.5 479C336.119 479 335 480.119 335 481.5Z" fill="#F5F5F5"/>
<rect x="393.5" y="467.5" width="107" height="27" rx="5.5" fill="white"/>
<path d="M406.012 486H409.067C409.847 486 410.473 485.818 410.947 485.453C411.426 485.084 411.665 484.569 411.665 483.908C411.665 483.471 411.524 483.113 411.241 482.835C410.963 482.552 410.58 482.375 410.093 482.302V482.281C410.494 482.195 410.813 482.017 411.05 481.748C411.291 481.475 411.412 481.135 411.412 480.729C411.412 480.087 411.184 479.606 410.729 479.287C410.273 478.968 409.651 478.809 408.862 478.809H406.012V486ZM407.263 481.851V479.8H408.862C409.318 479.8 409.646 479.886 409.847 480.06C410.047 480.233 410.147 480.479 410.147 480.798C410.147 481.121 410.047 481.379 409.847 481.57C409.646 481.757 409.318 481.851 408.862 481.851H407.263ZM407.263 485.009V482.835H409.067C409.532 482.835 409.872 482.933 410.086 483.129C410.3 483.325 410.407 483.585 410.407 483.908C410.407 484.236 410.298 484.503 410.079 484.708C409.865 484.909 409.528 485.009 409.067 485.009H407.263ZM413.244 482.514C413.244 483.635 413.524 484.53 414.085 485.2C414.645 485.87 415.45 486.205 416.498 486.205C417.14 486.205 417.69 486.062 418.145 485.774C418.601 485.483 418.94 485.15 419.164 484.776L418.309 484.168C418.118 484.441 417.872 484.678 417.571 484.879C417.275 485.079 416.908 485.18 416.47 485.18C415.796 485.18 415.301 484.943 414.987 484.469C414.673 483.99 414.515 483.366 414.515 482.596V482.213C414.515 481.429 414.668 480.802 414.973 480.333C415.279 479.864 415.734 479.629 416.341 479.629C416.874 479.629 417.27 479.813 417.53 480.183C417.79 480.547 417.92 480.996 417.92 481.529V481.687H413.982V482.685H419.184V482.172C419.184 481.042 418.934 480.164 418.432 479.54C417.936 478.916 417.227 478.604 416.306 478.604C415.386 478.604 414.645 478.938 414.085 479.608C413.524 480.278 413.244 481.174 413.244 482.295V482.514ZM421.023 478.809V486H422.274V482.821H425.206V486H426.457V478.809H425.206V481.83H422.274V478.809H421.023ZM430.019 478.809H428.768V486H431.454C432.347 486 433.036 485.786 433.519 485.357C434.006 484.924 434.25 484.35 434.25 483.635C434.25 482.919 434.006 482.352 433.519 481.933C433.036 481.509 432.347 481.297 431.454 481.297H430.019V478.809ZM431.454 482.288C432.024 482.288 432.423 482.416 432.651 482.671C432.883 482.922 432.999 483.243 432.999 483.635C432.999 484.031 432.883 484.359 432.651 484.619C432.423 484.879 432.024 485.009 431.454 485.009H430.019V482.288H431.454ZM435.187 486H436.438V478.809H435.187V486ZM442.466 486H445.522C446.301 486 446.928 485.818 447.402 485.453C447.88 485.084 448.12 484.569 448.12 483.908C448.12 483.471 447.978 483.113 447.696 482.835C447.418 482.552 447.035 482.375 446.547 482.302V482.281C446.949 482.195 447.268 482.017 447.504 481.748C447.746 481.475 447.867 481.135 447.867 480.729C447.867 480.087 447.639 479.606 447.183 479.287C446.727 478.968 446.105 478.809 445.317 478.809H442.466V486ZM443.717 481.851V479.8H445.317C445.773 479.8 446.101 479.886 446.301 480.06C446.502 480.233 446.602 480.479 446.602 480.798C446.602 481.121 446.502 481.379 446.301 481.57C446.101 481.757 445.773 481.851 445.317 481.851H443.717ZM443.717 485.009V482.835H445.522C445.987 482.835 446.326 482.933 446.541 483.129C446.755 483.325 446.862 483.585 446.862 483.908C446.862 484.236 446.753 484.503 446.534 484.708C446.32 484.909 445.982 485.009 445.522 485.009H443.717ZM453.827 478.809V486H455.078V482.821H458.011V486H459.262V478.809H458.011V481.83H455.078V478.809H453.827ZM461.141 482.514C461.141 483.635 461.431 484.53 462.01 485.2C462.588 485.87 463.363 486.205 464.334 486.205C465.304 486.205 466.079 485.87 466.658 485.2C467.237 484.53 467.526 483.635 467.526 482.514V482.295C467.526 481.174 467.237 480.278 466.658 479.608C466.079 478.938 465.304 478.604 464.334 478.604C463.363 478.604 462.588 478.938 462.01 479.608C461.431 480.278 461.141 481.174 461.141 482.295V482.514ZM462.42 482.213C462.42 481.465 462.577 480.848 462.891 480.36C463.206 479.873 463.687 479.629 464.334 479.629C464.976 479.629 465.455 479.87 465.769 480.354C466.088 480.837 466.248 481.456 466.248 482.213V482.596C466.248 483.343 466.086 483.961 465.762 484.448C465.443 484.936 464.967 485.18 464.334 485.18C463.7 485.18 463.222 484.936 462.898 484.448C462.579 483.961 462.42 483.343 462.42 482.596V482.213ZM469.399 478.809V486H470.65V479.8H473.719V478.809H469.399ZM474.874 483.888C474.874 484.631 475.098 485.191 475.544 485.569C475.995 485.948 476.544 486.137 477.192 486.137C477.734 486.137 478.176 486.027 478.518 485.809C478.864 485.585 479.115 485.33 479.27 485.043C479.288 485.221 479.32 485.398 479.365 485.576C479.416 485.749 479.47 485.891 479.529 486H480.739V485.891C480.662 485.69 480.6 485.46 480.555 485.2C480.514 484.936 480.493 484.656 480.493 484.359V481.078C480.493 480.24 480.27 479.618 479.823 479.212C479.377 478.806 478.746 478.604 477.93 478.604C477.119 478.604 476.474 478.813 475.995 479.232C475.517 479.647 475.278 480.148 475.278 480.736V480.771H476.522V480.736C476.522 480.436 476.627 480.171 476.836 479.943C477.05 479.715 477.404 479.602 477.896 479.602C478.392 479.602 478.741 479.738 478.942 480.012C479.142 480.285 479.242 480.641 479.242 481.078V481.577H477.773C476.911 481.577 476.212 481.778 475.674 482.179C475.141 482.58 474.874 483.149 474.874 483.888ZM476.125 483.847C476.125 483.4 476.276 483.058 476.576 482.821C476.877 482.584 477.317 482.466 477.896 482.466H479.242V483.56C479.242 483.979 479.056 484.348 478.682 484.667C478.308 484.981 477.896 485.139 477.445 485.139C476.998 485.139 476.665 485.029 476.446 484.811C476.232 484.587 476.125 484.266 476.125 483.847ZM481.867 486H483.241L485.271 482.685H485.347L487.787 478.809H486.413L484.499 482.028H484.424L481.867 486ZM481.997 478.809L484.444 482.685H484.485L486.522 486H487.917L485.36 482.028H485.319L483.392 478.809H481.997Z" fill="#2B2C2E"/>
<rect x="393.5" y="467.5" width="107" height="27" rx="5.5" stroke="#E9E8EE"/>
<rect x="410.5" y="186.5" width="84" height="27" rx="5.5" fill="white"/>
<path d="M423.012 197.809V205H424.263V198.8H427.141V205H428.392V197.809H423.012ZM430.271 201.514C430.271 202.635 430.561 203.53 431.139 204.2C431.718 204.87 432.493 205.205 433.464 205.205C434.434 205.205 435.209 204.87 435.788 204.2C436.367 203.53 436.656 202.635 436.656 201.514V201.295C436.656 200.174 436.367 199.278 435.788 198.608C435.209 197.938 434.434 197.604 433.464 197.604C432.493 197.604 431.718 197.938 431.139 198.608C430.561 199.278 430.271 200.174 430.271 201.295V201.514ZM431.55 201.213C431.55 200.465 431.707 199.848 432.021 199.36C432.336 198.873 432.816 198.629 433.464 198.629C434.106 198.629 434.585 198.87 434.899 199.354C435.218 199.837 435.378 200.456 435.378 201.213V201.596C435.378 202.343 435.216 202.961 434.892 203.448C434.573 203.936 434.097 204.18 433.464 204.18C432.83 204.18 432.352 203.936 432.028 203.448C431.709 202.961 431.55 202.343 431.55 201.596V201.213ZM439.54 205L441.53 202.013L440.265 201.896L438.146 205H439.54ZM442.678 205H443.929V197.809H441.161C440.281 197.809 439.602 198.018 439.123 198.438C438.65 198.852 438.413 199.41 438.413 200.112C438.413 200.778 438.643 201.309 439.103 201.705C439.563 202.102 440.222 202.307 441.079 202.32L441.147 202.389H442.678V205ZM441.161 201.397C440.605 201.397 440.215 201.279 439.992 201.042C439.768 200.8 439.657 200.491 439.657 200.112C439.657 199.729 439.768 199.415 439.992 199.169C440.22 198.923 440.609 198.8 441.161 198.8H442.678V201.397H441.161ZM445.802 201.514C445.802 202.635 446.08 203.53 446.636 204.2C447.192 204.87 447.948 205.205 448.905 205.205C449.821 205.205 450.512 204.952 450.977 204.446C451.446 203.936 451.681 203.353 451.681 202.696V202.662H450.471V202.696C450.471 203.088 450.348 203.435 450.102 203.735C449.86 204.032 449.461 204.18 448.905 204.18C448.286 204.18 447.825 203.936 447.525 203.448C447.228 202.961 447.08 202.343 447.08 201.596V201.213C447.08 200.465 447.231 199.85 447.531 199.367C447.832 198.88 448.297 198.636 448.926 198.636C449.482 198.636 449.878 198.784 450.115 199.08C450.352 199.376 450.471 199.72 450.471 200.112V200.146H451.681V200.112C451.681 199.456 451.446 198.875 450.977 198.369C450.512 197.859 449.831 197.604 448.933 197.604C447.958 197.604 447.192 197.938 446.636 198.608C446.08 199.278 445.802 200.174 445.802 201.295V201.514ZM453.349 197.809V205H454.599V201.821H457.532V205H458.783V197.809H457.532V200.83H454.599V197.809H453.349ZM461.093 205H462.344L464.942 200.516C465.024 200.37 465.099 200.226 465.168 200.085C465.24 199.944 465.307 199.818 465.366 199.709H465.441C465.436 199.846 465.432 200.003 465.427 200.181C465.423 200.358 465.421 200.516 465.421 200.652V205H466.658V197.809H465.407L462.809 202.3C462.727 202.441 462.65 202.58 462.577 202.717C462.504 202.849 462.438 202.972 462.379 203.086H462.317C462.322 202.949 462.324 202.797 462.324 202.628C462.328 202.455 462.331 202.3 462.331 202.163V197.809H461.093V205ZM474.184 206.846H475.332V204.009H474.341V197.809H473.09V204.009H470.212V197.809H468.961V205H474.184V206.846ZM476.378 202.888C476.378 203.631 476.601 204.191 477.048 204.569C477.499 204.948 478.048 205.137 478.695 205.137C479.238 205.137 479.68 205.027 480.022 204.809C480.368 204.585 480.619 204.33 480.773 204.043C480.792 204.221 480.824 204.398 480.869 204.576C480.919 204.749 480.974 204.891 481.033 205H482.243V204.891C482.166 204.69 482.104 204.46 482.059 204.2C482.018 203.936 481.997 203.656 481.997 203.359V200.078C481.997 199.24 481.774 198.618 481.327 198.212C480.881 197.806 480.249 197.604 479.434 197.604C478.622 197.604 477.978 197.813 477.499 198.232C477.021 198.647 476.781 199.148 476.781 199.736V199.771H478.025V199.736C478.025 199.436 478.13 199.171 478.34 198.943C478.554 198.715 478.907 198.602 479.399 198.602C479.896 198.602 480.245 198.738 480.445 199.012C480.646 199.285 480.746 199.641 480.746 200.078V200.577H479.276C478.415 200.577 477.716 200.778 477.178 201.179C476.645 201.58 476.378 202.149 476.378 202.888ZM477.629 202.847C477.629 202.4 477.779 202.058 478.08 201.821C478.381 201.584 478.821 201.466 479.399 201.466H480.746V202.56C480.746 202.979 480.559 203.348 480.186 203.667C479.812 203.981 479.399 204.139 478.948 204.139C478.502 204.139 478.169 204.029 477.95 203.811C477.736 203.587 477.629 203.266 477.629 202.847Z" fill="#2B2C2E"/>
<rect x="410.5" y="186.5" width="84" height="27" rx="5.5" stroke="#E9E8EE"/>
<path d="M338 569L357 589H453" stroke="#2B2C2E"/>
<path d="M343 567.5C343 570.538 340.538 573 337.5 573C334.462 573 332 570.538 332 567.5C332 564.462 334.462 562 337.5 562C340.538 562 343 564.462 343 567.5Z" fill="#2B2C2E"/>
<path opacity="0.7" fill-rule="evenodd" clip-rule="evenodd" d="M337.5 574.561C341.4 574.561 344.561 571.4 344.561 567.5C344.561 563.6 341.4 560.439 337.5 560.439C333.6 560.439 330.439 563.6 330.439 567.5C330.439 571.4 333.6 574.561 337.5 574.561ZM337.5 575C341.642 575 345 571.642 345 567.5C345 563.358 341.642 560 337.5 560C333.358 560 330 563.358 330 567.5C330 571.642 333.358 575 337.5 575Z" fill="#2B2C2E"/>
<path d="M340 567.5C340 568.881 338.881 570 337.5 570C336.119 570 335 568.881 335 567.5C335 566.119 336.119 565 337.5 565C338.881 565 340 566.119 340 567.5Z" fill="#F5F5F5"/>
<rect x="453.5" y="575.5" width="60" height="27" rx="5.5" fill="white"/>
<path d="M465.581 590.514C465.581 591.635 465.859 592.53 466.415 593.2C466.971 593.87 467.728 594.205 468.685 594.205C469.601 594.205 470.291 593.952 470.756 593.446C471.225 592.936 471.46 592.353 471.46 591.696V591.662H470.25V591.696C470.25 592.088 470.127 592.435 469.881 592.735C469.639 593.032 469.241 593.18 468.685 593.18C468.065 593.18 467.604 592.936 467.304 592.448C467.007 591.961 466.859 591.343 466.859 590.596V590.213C466.859 589.465 467.01 588.85 467.311 588.367C467.611 587.88 468.076 587.636 468.705 587.636C469.261 587.636 469.658 587.784 469.895 588.08C470.132 588.376 470.25 588.72 470.25 589.112V589.146H471.46V589.112C471.46 588.456 471.225 587.875 470.756 587.369C470.291 586.859 469.61 586.604 468.712 586.604C467.737 586.604 466.971 586.938 466.415 587.608C465.859 588.278 465.581 589.174 465.581 590.295V590.514ZM472.376 587.8H474.509V594H475.753V587.8H477.885V586.809H472.376V587.8ZM479.006 590.514C479.006 591.635 479.296 592.53 479.874 593.2C480.453 593.87 481.228 594.205 482.199 594.205C483.169 594.205 483.944 593.87 484.523 593.2C485.102 592.53 485.391 591.635 485.391 590.514V590.295C485.391 589.174 485.102 588.278 484.523 587.608C483.944 586.938 483.169 586.604 482.199 586.604C481.228 586.604 480.453 586.938 479.874 587.608C479.296 588.278 479.006 589.174 479.006 590.295V590.514ZM480.285 590.213C480.285 589.465 480.442 588.848 480.756 588.36C481.071 587.873 481.552 587.629 482.199 587.629C482.841 587.629 483.32 587.87 483.634 588.354C483.953 588.837 484.113 589.456 484.113 590.213V590.596C484.113 591.343 483.951 591.961 483.627 592.448C483.308 592.936 482.832 593.18 482.199 593.18C481.565 593.18 481.087 592.936 480.763 592.448C480.444 591.961 480.285 591.343 480.285 590.596V590.213ZM487.264 586.809V594H488.515V587.8H491.393V594H492.644V586.809H487.264ZM494.558 591.888C494.558 592.631 494.781 593.191 495.227 593.569C495.679 593.948 496.228 594.137 496.875 594.137C497.417 594.137 497.859 594.027 498.201 593.809C498.547 593.585 498.798 593.33 498.953 593.043C498.971 593.221 499.003 593.398 499.049 593.576C499.099 593.749 499.154 593.891 499.213 594H500.423V593.891C500.345 593.69 500.284 593.46 500.238 593.2C500.197 592.936 500.177 592.656 500.177 592.359V589.078C500.177 588.24 499.953 587.618 499.507 587.212C499.06 586.806 498.429 586.604 497.613 586.604C496.802 586.604 496.157 586.813 495.679 587.232C495.2 587.647 494.961 588.148 494.961 588.736V588.771H496.205V588.736C496.205 588.436 496.31 588.171 496.519 587.943C496.734 587.715 497.087 587.602 497.579 587.602C498.076 587.602 498.424 587.738 498.625 588.012C498.825 588.285 498.926 588.641 498.926 589.078V589.577H497.456C496.595 589.577 495.895 589.778 495.357 590.179C494.824 590.58 494.558 591.149 494.558 591.888ZM495.808 591.847C495.808 591.4 495.959 591.058 496.26 590.821C496.56 590.584 497 590.466 497.579 590.466H498.926V591.56C498.926 591.979 498.739 592.348 498.365 592.667C497.991 592.981 497.579 593.139 497.128 593.139C496.681 593.139 496.349 593.029 496.13 592.811C495.916 592.587 495.808 592.266 495.808 591.847Z" fill="#2B2C2E"/>
<rect x="453.5" y="575.5" width="60" height="27" rx="5.5" stroke="#E9E8EE"/>
<path d="M368 208L377 200H410" stroke="#2B2C2E"/>
<defs>
<linearGradient id="paint0_linear_409_11943" x1="281.481" y1="206.702" x2="296.577" y2="267.088" gradientUnits="userSpaceOnUse">
<stop stop-color="#FFDB53"/>
<stop offset="1" stop-color="#E0A233"/>
</linearGradient>
<linearGradient id="paint1_linear_409_11943" x1="281.481" y1="206.702" x2="296.577" y2="267.088" gradientUnits="userSpaceOnUse">
<stop stop-color="#FFDB53"/>
<stop offset="1" stop-color="#E0A233"/>
</linearGradient>
<linearGradient id="paint2_linear_409_11943" x1="369.936" y1="232.904" x2="371.351" y2="237.928" gradientUnits="userSpaceOnUse">
<stop stop-color="#FFDB53"/>
<stop offset="1" stop-color="#E0A233"/>
</linearGradient>
<linearGradient id="paint3_linear_409_11943" x1="369.936" y1="232.904" x2="371.351" y2="237.928" gradientUnits="userSpaceOnUse">
<stop stop-color="#FFDB53"/>
<stop offset="1" stop-color="#E0A233"/>
</linearGradient>
<linearGradient id="paint4_linear_409_11943" x1="355.184" y1="202.713" x2="360.392" y2="217.093" gradientUnits="userSpaceOnUse">
<stop stop-color="#FFDB53"/>
<stop offset="1" stop-color="#E0A233"/>
</linearGradient>
<linearGradient id="paint5_linear_409_11943" x1="355.184" y1="202.713" x2="360.392" y2="217.093" gradientUnits="userSpaceOnUse">
<stop stop-color="#FFDB53"/>
<stop offset="1" stop-color="#E0A233"/>
</linearGradient>
<linearGradient id="paint6_linear_409_11943" x1="321.588" y1="443.978" x2="367.896" y2="479.649" gradientUnits="userSpaceOnUse">
<stop stop-color="#FFDB53"/>
<stop offset="1" stop-color="#E0A233"/>
</linearGradient>
<linearGradient id="paint7_linear_409_11943" x1="301.424" y1="560.467" x2="303.883" y2="580.956" gradientUnits="userSpaceOnUse">
<stop stop-color="#FFDB53"/>
<stop offset="1" stop-color="#E0A233"/>
</linearGradient>
<linearGradient id="paint8_linear_409_11943" x1="301.424" y1="560.467" x2="303.883" y2="580.956" gradientUnits="userSpaceOnUse">
<stop stop-color="#FFDB53"/>
<stop offset="1" stop-color="#E0A233"/>
</linearGradient>
</defs>
</svg>
