<svg width="54" height="30" viewBox="0 0 54 30" fill="none" xmlns="http://www.w3.org/2000/svg">
<rect width="54" height="30" rx="6" fill="#F3B265"/>
<path d="M5.96191 19H7.3457L9.61816 12.1826C9.66895 12.0387 9.71126 11.8949 9.74512 11.751C9.7832 11.6071 9.81494 11.4674 9.84033 11.332H9.89746C9.92285 11.4674 9.95247 11.6071 9.98633 11.751C10.0244 11.8949 10.0667 12.0387 10.1133 12.1826L12.373 19H13.8838L10.6338 9.70068H9.18652L5.96191 19ZM7.49805 16.7085H12.2842L11.9097 15.5659H7.86621L7.49805 16.7085ZM20.1934 19H21.9263L17.8511 13.7061L16.7021 14.4233L20.1934 19ZM15.6357 13.6553V14.8169H17.6099L21.6406 9.75781H20.0664L17.0005 13.6553H15.6357ZM14.8994 19H16.334V9.75781H14.8994V19ZM29.4863 20.8408H30.8193V17.8447H29.7085V9.75781H28.2676V17.8447H24.3066V9.75781H22.8721V19H29.4863V20.8408ZM39.0396 19V9.75781H37.4971L33.8853 16.1626C33.8133 16.2938 33.7393 16.4398 33.6631 16.6006C33.5911 16.7614 33.5319 16.901 33.4854 17.0195H33.4346C33.443 16.8841 33.4473 16.7233 33.4473 16.5371C33.4515 16.3467 33.4536 16.1838 33.4536 16.0483V9.75781H32.0254V19H33.5679L37.186 12.5571C37.2622 12.4217 37.3341 12.2842 37.4019 12.1445C37.4696 12.0007 37.5309 11.8674 37.5859 11.7446H37.6367C37.6283 11.8843 37.6219 12.0387 37.6177 12.208C37.6134 12.373 37.6113 12.5254 37.6113 12.665V19H39.0396ZM46.9043 19H45.4634V15.3628H43.4575L43.2036 15.2803C42.4334 15.1787 41.841 14.8867 41.4263 14.4043C41.0116 13.9219 40.8042 13.3019 40.8042 12.5444C40.8042 11.6685 41.075 10.985 41.6167 10.4941C42.1584 10.0033 42.9264 9.75781 43.9209 9.75781H46.9043V19ZM45.4634 14.2329V10.8877H43.9526C43.3179 10.8877 42.8735 11.0443 42.6196 11.3574C42.37 11.6663 42.2451 12.062 42.2451 12.5444C42.2451 13.0269 42.37 13.4289 42.6196 13.7505C42.8693 14.0721 43.3094 14.2329 43.9399 14.2329H45.4634ZM41.9341 19H40.3789L42.6006 14.7344H44.0986L41.9341 19Z" fill="white"/>
</svg>
