<svg width="85" height="30" viewBox="0 0 85 30" fill="none" xmlns="http://www.w3.org/2000/svg">
<rect width="85" height="30" rx="6" fill="#F076C7"/>
<path d="M6.70459 14.6646C6.70459 16.1245 7.05371 17.2438 7.75195 18.0225C8.4502 18.8011 9.35368 19.1904 10.4624 19.1904C11.5288 19.1904 12.3561 18.8921 12.9443 18.2954C13.5326 17.6987 13.8499 16.9497 13.8965 16.0483V15.9595H12.4492V16.0483C12.4111 16.5815 12.2313 17.0428 11.9097 17.4321C11.5881 17.8172 11.1035 18.0098 10.4561 18.0098C9.77051 18.0098 9.21615 17.7305 8.79297 17.1719C8.37402 16.6133 8.16455 15.8262 8.16455 14.8105V13.9473C8.16455 12.8724 8.37191 12.0705 8.78662 11.5415C9.20133 11.0125 9.75781 10.748 10.4561 10.748C11.1416 10.748 11.6431 10.9364 11.9604 11.313C12.2821 11.6896 12.445 12.153 12.4492 12.7031V12.7983H13.8965V12.7095C13.8838 11.8039 13.5749 11.0549 12.9697 10.4624C12.3646 9.86572 11.5288 9.56738 10.4624 9.56738C9.35791 9.56738 8.45443 9.95459 7.75195 10.729C7.05371 11.5034 6.70459 12.6248 6.70459 14.0933V14.6646ZM15.2866 17.7749V19.0381C15.4009 19.0804 15.5215 19.1121 15.6484 19.1333C15.7754 19.1545 15.9574 19.165 16.1943 19.165C16.7995 19.165 17.3052 18.9788 17.7114 18.6064C18.1177 18.2298 18.5282 17.5443 18.9429 16.5498L21.7993 9.75781H20.3774L18.6191 14.106C18.5218 14.3472 18.452 14.5355 18.4097 14.6709C18.3716 14.8063 18.3271 14.9544 18.2764 15.1152H18.2383C18.1833 14.9544 18.1325 14.8063 18.0859 14.6709C18.0394 14.5355 17.9632 14.3472 17.8574 14.106L15.9595 9.75781H14.3979L17.5591 16.6323L17.5654 16.6069C17.3242 17.1021 17.0936 17.4406 16.8735 17.6226C16.6577 17.8003 16.3763 17.8892 16.0293 17.8892C15.8854 17.8892 15.7521 17.8786 15.6294 17.8574C15.5067 17.8363 15.3924 17.8088 15.2866 17.7749ZM22.9229 19H24.3574V10.9131H28.3247V19H29.7593V9.75781H22.9229V19ZM31.873 19H37.605V17.8574H33.3076V14.8105H36.9512V13.6616H33.3076V10.9067H37.5415V9.75781H31.873V19ZM39.084 19H40.5186V15.5024H42.1182C43.1169 15.5024 43.8828 15.2485 44.416 14.7407C44.9492 14.2287 45.2158 13.522 45.2158 12.6206C45.2158 11.715 44.9492 11.0125 44.416 10.5132C43.8828 10.0096 43.1169 9.75781 42.1182 9.75781H39.084V19ZM40.5186 14.3599V10.9004H42.0674C42.7021 10.9004 43.1465 11.0612 43.4004 11.3828C43.6543 11.7002 43.7812 12.1128 43.7812 12.6206C43.7812 13.1242 43.6543 13.541 43.4004 13.8711C43.1465 14.1969 42.7021 14.3599 42.0674 14.3599H40.5186ZM53.2773 20.8408H54.6104V17.8447H53.4995V9.75781H52.0586V17.8447H48.0977V9.75781H46.6631V19H53.2773V20.8408ZM55.8164 19H61.5483V17.8574H57.251V14.8105H60.8945V13.6616H57.251V10.9067H61.4849V9.75781H55.8164V19ZM63.0273 19H64.4619V14.8105H68.5308V19H69.9653V9.75781H68.5308V13.6553H64.4619V9.75781H63.0273V19ZM70.9873 19H72.3711L74.6436 12.1826C74.6943 12.0387 74.7367 11.8949 74.7705 11.751C74.8086 11.6071 74.8403 11.4674 74.8657 11.332H74.9229C74.9482 11.4674 74.9779 11.6071 75.0117 11.751C75.0498 11.8949 75.0921 12.0387 75.1387 12.1826L77.3984 19H78.9092L75.6592 9.70068H74.2119L70.9873 19ZM72.5234 16.7085H77.3096L76.9351 15.5659H72.8916L72.5234 16.7085Z" fill="white"/>
</svg>
