<svg width="20" height="21" viewBox="0 0 20 21" fill="none" xmlns="http://www.w3.org/2000/svg">
<path fill-rule="evenodd" clip-rule="evenodd" d="M10.0004 3.60039C5.91348 3.60039 2.60039 6.91348 2.60039 11.0004C2.60039 15.0873 5.91348 18.4004 10.0004 18.4004C14.0873 18.4004 17.4004 15.0873 17.4004 11.0004C17.4004 6.91348 14.0873 3.60039 10.0004 3.60039ZM1.40039 11.0004C1.40039 6.25074 5.25074 2.40039 10.0004 2.40039C14.75 2.40039 18.6004 6.25074 18.6004 11.0004C18.6004 15.75 14.75 19.6004 10.0004 19.6004C5.25074 19.6004 1.40039 15.75 1.40039 11.0004Z" fill="#7F818C"/>
<path fill-rule="evenodd" clip-rule="evenodd" d="M10.0004 10.4004C10.3318 10.4004 10.6004 10.669 10.6004 11.0004V15.0004C10.6004 15.3318 10.3318 15.6004 10.0004 15.6004C9.66902 15.6004 9.40039 15.3318 9.40039 15.0004V11.0004C9.40039 10.669 9.66902 10.4004 10.0004 10.4004Z" fill="#7F818C"/>
<circle cx="10" cy="8" r="1" fill="#7F818C"/>
</svg>
